SplineFontDB: 3.2
FontName: ParibartanS
FullName: ParibartanS
FamilyName: Paribartan
Weight: Regular
Copyright: Copyright 2024 The Paribartan Project Authors (github.com/mitradranirban/paribartan)
Version: 0.001
ItalicAngle: 0
UnderlinePosition: 0
UnderlineWidth: 0
Ascent: 800
Descent: 200
InvalidEm: 1
UFOAscent: 800
UFODescent: -250
LayerCount: 2
Layer: 0 0 "Back" 1
Layer: 1 0 "Fore" 0
StyleMap: 0x0000
FSType: 0
OS2Version: 0
OS2_WeightWidthSlopeOnly: 0
OS2_UseTypoMetrics: 0
CreationTime: 1733728903
ModificationTime: 1734456710
PfmFamily: 17
TTFWeight: 400
TTFWidth: 5
LineGap: 0
VLineGap: 0
OS2TypoAscent: 1200
OS2TypoAOffset: 0
OS2TypoDescent: -400
OS2TypoDOffset: 0
OS2TypoLinegap: 0
OS2WinAscent: 1160
OS2WinAOffset: 0
OS2WinDescent: 348
OS2WinDOffset: 0
HheadAscent: 1200
HheadAOffset: 0
HheadDescent: -400
HheadDOffset: 0
OS2CapHeight: 750
OS2XHeight: 500
OS2Vendor: 'anir'
MarkAttachClasses: 1
DEI: 91125
LangName: 1033 "" "" "" "" "" "" "" "" "Dr Anirban Mitra" "Dr Anirban Mitra" "Variable Color Bengali Font" "https://fonts.atipra.in" "https://github.com/mitradranirban" "This Font Software is licensed under the SIL Open Font License, Version 1.1. This license is available with a FAQ at: https://openfontlicense.org+ACIA" " https://openfontlicense.org"
PickledDataWithLists: "(dp0
Vxyz.fontra.lineMetricsHorizontalLayout.zones
p1
(dp2
Vascender
p3
I16
sVbaseline
p4
I-16
sVcapHeight
p5
I16
sVdescender
p6
I-16
sVxHeight
p7
I16
ss."
Encoding: UnicodeBmp
Compacted: 1
UnicodeInterp: none
NameList: AGL For New Fonts
DisplaySize: -128
AntiAlias: 1
FitToEm: 1
WidthSeparation: 150
WinInfo: 360 10 4
BeginPrivate: 0
EndPrivate
Grid
-1000 -402 m 0
 2000 -402 l 1024
-1000 510.5 m 0
 2000 510.5 l 1024
  Named: "XHGHT"
-982 752 m 0
 2018 752 l 1024
  Named: "CAPS"
-1000 1202 m 0
 2000 1202 l 1024
EndSplineSet
BeginChars: 65538 453

StartChar: exclam
Encoding: 33 33 0
Width: 252
VWidth: 0
Flags: HW
HStem: -2 142<0 152>
VStem: 0 152<-2 140 258 772>
LayerCount: 2
Fore
SplineSet
0 -2 m 1
 0 140 l 1
 152 140 l 1
 152 -2 l 1
 0 -2 l 1
0 258 m 1
 0 772 l 1
 152 772 l 1
 152 258 l 1
 0 258 l 1
EndSplineSet
EndChar

StartChar: quotedbl
Encoding: 34 34 1
Width: 452
VWidth: 0
Flags: HW
HStem: 532 257<0 152 200 352>
VStem: 0 152<532 789> 200 152<532 789>
LayerCount: 2
Fore
SplineSet
0 532 m 1
 0 789 l 1
 152 789 l 1
 152 532 l 1
 0 532 l 1
200 532 m 1
 200 789 l 1
 352 789 l 1
 352 532 l 1
 200 532 l 1
EndSplineSet
EndChar

StartChar: numbersign
Encoding: 35 35 2
Width: 644
VWidth: 0
Flags: HW
HStem: 216 152<5 14.8453 193.718 314.845 493.718 549> 466 152<5 59.044 237.917 359.044 537.917 549>
LayerCount: 2
Fore
SplineSet
359.043945312 466 m 1
 211.043945312 466 l 1
 193.717773438 368 l 1
 341.717773438 368 l 1
 359.043945312 466 l 1
99 692 m 1
 251 692 l 1
 237.916992188 618 l 1
 385.916992188 618 l 1
 399 692 l 1
 551 692 l 1
 537.916992188 618 l 1
 549 618 l 1
 549 466 l 1
 511.043945312 466 l 1
 493.717773438 368 l 1
 549 368 l 1
 549 216 l 1
 466.845703125 216 l 1
 455 149 l 1
 303 149 l 1
 314.845703125 216 l 1
 166.845703125 216 l 1
 155 149 l 1
 3 149 l 1
 14.845703125 216 l 1
 5 216 l 1
 5 368 l 1
 41.7177734375 368 l 1
 59.0439453125 466 l 1
 5 466 l 1
 5 618 l 1
 85.9169921875 618 l 1
 99 692 l 1
EndSplineSet
EndChar

StartChar: dollar
Encoding: 36 36 3
Width: 512
VWidth: 0
Flags: HW
VStem: 203 210.5<155.062 301.804> 203 79<-182 -0.345529 442.672 585.787 774.489 1030>
LayerCount: 2
Fore
SplineSet
203 585.787109375 m 1
 196.98046875 579.745117188 191.647460938 572.815429688 187 565 c 0
 170.333007812 537.666992188 168.833007812 507.666992188 182.5 475 c 0
 187.901367188 462.088867188 194.734375 451.313476562 203 442.671875 c 1
 203 585.787109375 l 1
10 57 m 2
 85 182 l 1
 90.3330078125 178 97.6669921875 173 107 167 c 0
 132.333007812 152.333007812 159.333007812 148.333007812 188 155 c 0
 193.245117188 156.219726562 198.245117188 157.741210938 203 159.563476562 c 1
 203 309.608398438 l 1
 196.412109375 311.99609375 189.412109375 313.79296875 182 315 c 0
 149.333007812 333 121 353 97 375 c 0
 73 397 54 421.666992188 40 449 c 0
 26 476.333007812 20 506.333007812 22 539 c 0
 24 571.666992188 35.3330078125 605 56 639 c 0
 90.1865234375 695.163085938 139.186523438 734.8359375 203 758.017578125 c 1
 203 1030 l 1
 282 1030 l 1
 282 774.489257812 l 1
 329.180664062 775.873046875 371.180664062 760.04296875 408 727 c 0
 410 725 413.5 722.5 418.5 719.5 c 0
 423.5 716.5 427 714 429 712 c 2
 354 587 l 1
 346 593.666992188 338.666992188 598.666992188 332 602 c 0
 315.936523438 610.876953125 299.26953125 615.533203125 282 615.966796875 c 1
 282 400.544921875 l 1
 301.361328125 388.936523438 318.361328125 377.254882812 333 365.5 c 0
 355 347.833007812 374.166992188 327.333007812 390.5 304 c 0
 406.833007812 280.666992188 414.5 254.333007812 413.5 225 c 0
 412.5 195.666992188 402 164 382 130 c 0
 358.666992188 90.6669921875 325.5 58.1669921875 282.5 32.5 c 0
 282.333007812 32.400390625 282.166992188 32.30078125 282 32.2021484375 c 2
 282 -182 l 1
 203 -182 l 1
 203 -0.345703125 l 1
 185.934570312 -4.318359375 168.767578125 -6.3701171875 151.5 -6.5 c 0
 107.166992188 -6.8330078125 67 9.3330078125 31 42 c 0
 29 44 25.5 46.5 20.5 49.5 c 0
 15.5 52.5 12 55 10 57 c 2
EndSplineSet
EndChar

StartChar: percent
Encoding: 37 37 4
Width: 691
VWidth: 0
Flags: HW
HStem: 82 75<448.188 471.812> 264 75<448.188 471.812> 483 75<143.188 166.812> 665 75<143.188 166.812>
VStem: 25 76<568.334 654.111> 209 76<568.933 653.698> 330 76<167.334 253.111> 514 76<167.933 252.698>
LayerCount: 2
Fore
SplineSet
485 818 m 1
 591 757 l 1
 106 -83 l 1
 0 -22 l 1
 485 818 l 1
460 264 m 0
 456 264 452 263 448 262 c 1
 448 263 l 1
 423 258 406 236 406 210 c 0
 406 184 423 163 448 158 c 1
 448 159 l 1
 452 158 456 157 460 157 c 0
 464 157 468 158 472 159 c 1
 472 158 l 1
 497 163 514 184 514 210 c 0
 514 236 497 258 472 263 c 1
 472 262 l 1
 468 263 464 264 460 264 c 0
459 82 m 0
 458 82 458 82 457 82 c 0
 455 82 452 82 450 82 c 0
 383 87 330 142 330 210 c 0
 330 278 383 334 450 339 c 0
 452 339 455 339 457 339 c 0
 458 339 458 339 459 339 c 0
 460 339 460 339 461 339 c 0
 533 339 590 282 590 210 c 0
 590 139 533 82 461 82 c 0
 460 82 460 82 459 82 c 0
155 665 m 4
 151 665 147 664 143 663 c 5
 143 664 l 5
 118 659 101 637 101 611 c 4
 101 585 118 564 143 559 c 5
 143 560 l 5
 147 559 151 558 155 558 c 4
 159 558 163 559 167 560 c 5
 167 559 l 5
 192 564 209 585 209 611 c 4
 209 637 192 659 167 664 c 5
 167 663 l 5
 163 664 159 665 155 665 c 4
154 483 m 4
 153 483 153 483 152 483 c 4
 150 483 147 483 145 483 c 4
 78 488 25 543 25 611 c 4
 25 679 78 735 145 740 c 4
 147 740 150 740 152 740 c 4
 153 740 153 740 154 740 c 4
 155 740 155 740 156 740 c 4
 228 740 285 683 285 611 c 4
 285 540 228 483 156 483 c 4
 155 483 155 483 154 483 c 4
EndSplineSet
EndChar

StartChar: ampersand
Encoding: 38 38 5
Width: 649
VWidth: 0
Flags: HW
HStem: 3 151<200.364 271.357> 498 20G<247.268 269.279>
VStem: 6.8926 151<196.066 271.468>
LayerCount: 2
Fore
SplineSet
271.578125 157.893554688 m 1
 158.534179688 272.051757812 l 1
 158.110351562 268.1015625 157.892578125 264.081054688 157.892578125 260 c 0
 157.892578125 201 204.892578125 154 264.892578125 154 c 0
 265.63671875 154 267.953125 155.373046875 271.578125 157.893554688 c 1
338.892578125 810 m 1
 335.892578125 691 l 1
 310.892578125 689 192.892578125 624 173.892578125 605 c 0
 150.892578125 582 140.892578125 551 142.892578125 521 c 1
 165.551757812 498.340820312 l 1
 196.095703125 511.012695312 229.643554688 518 264.892578125 518 c 0
 273.666015625 518 282.338867188 517.560546875 290.892578125 516.704101562 c 1
 290.892578125 373 l 1
 402.024414062 261.868164062 l 1
 459.897460938 309.09375 514.953125 354.163085938 518.892578125 355.131835938 c 1
 518.892578125 202.295898438 l 2
 517.041015625 202.110351562 504.50390625 192.668945312 485.904296875 177.98828125 c 1
 549.892578125 114 l 1
 431.892578125 -4 l 1
 355.688476562 72.955078125 l 1
 308.41015625 34.77734375 268.403320312 3 264.892578125 3 c 0
 121.892578125 3 6.892578125 118 6.892578125 260 c 0
 6.892578125 307.479492188 19.5703125 351.873046875 41.7412109375 389.995117188 c 1
 25.892578125 406 l 1
 -29.18359375 505.021484375 12.6962890625 608.463867188 66.892578125 712 c 0
 93.875 763.546875 306.1484375 829.728515625 338.892578125 810 c 1
EndSplineSet
EndChar

StartChar: quotesingle
Encoding: 39 39 6
Width: 252
VWidth: 0
Flags: HW
HStem: 532 257<0 152>
VStem: 0 152<532 789>
LayerCount: 2
Fore
SplineSet
0 532 m 1
 0 789 l 1
 152 789 l 1
 152 532 l 1
 0 532 l 1
EndSplineSet
EndChar

StartChar: parenleft
Encoding: 40 40 7
Width: 555
VWidth: 0
Flags: HW
HStem: -14 25<323.819 410.389> 744 29<314.924 405.227>
VStem: 0 104<252.783 504.708>
LayerCount: 2
Fore
SplineSet
382 744 m 1
 254 744 104 579 104 378 c 0
 104 176 254 11 382 11 c 1
 455 -7 l 1
 431 -12 407 -14 382 -14 c 0
 171 -14 0 162 0 380 c 0
 0 597 171 773 382 773 c 0
 407 773 431 771 455 766 c 1
 382 744 l 1
EndSplineSet
EndChar

StartChar: parenright
Encoding: 41 41 8
Width: 555
VWidth: 0
Flags: HW
HStem: -14 25<44.6111 131.181> 744 29<49.7727 140.076>
VStem: 351 104<252.783 504.708>
LayerCount: 2
Fore
SplineSet
73 744 m 1
 0 766 l 1
 24 771 48 773 73 773 c 0
 284 773 455 597 455 380 c 0
 455 162 284 -14 73 -14 c 0
 48 -14 24 -12 0 -7 c 1
 73 11 l 1
 201 11 351 176 351 378 c 0
 351 579 201 744 73 744 c 1
EndSplineSet
EndChar

StartChar: asterisk
Encoding: 42 42 9
Width: 644
VWidth: 0
Flags: HW
HStem: 344 152<0 89 455 544>
VStem: 196 152<149 237 603 692>
LayerCount: 2
Fore
SplineSet
544 496 m 1
 544 344 l 1
 455 344 l 1
 518 281 l 1
 411 174 l 1
 348 237 l 1
 348 149 l 1
 196 149 l 1
 196 237 l 1
 133 174 l 1
 26 281 l 1
 89 344 l 1
 0 344 l 1
 0 496 l 1
 89 496 l 1
 26 559 l 1
 133 666 l 1
 196 603 l 1
 196 692 l 1
 348 692 l 1
 348 603 l 1
 411 666 l 1
 518 559 l 1
 455 496 l 1
 544 496 l 1
EndSplineSet
EndChar

StartChar: plus
Encoding: 43 43 10
Width: 644
VWidth: 0
Flags: HW
HStem: 344 152<0 544>
VStem: 196 152<149 692>
LayerCount: 2
Fore
SplineSet
196 692 m 1
 348 692 l 1
 348 496 l 1
 544 496 l 1
 544 344 l 1
 348 344 l 1
 348 149 l 1
 196 149 l 1
 196 344 l 1
 0 344 l 1
 0 496 l 1
 196 496 l 1
 196 692 l 1
EndSplineSet
EndChar

StartChar: comma
Encoding: 44 44 11
Width: 252
VWidth: 0
Flags: HW
HStem: -134 274<42.7671 95.182>
VStem: 0 152<-2 140>
LayerCount: 2
Fore
SplineSet
0 -2 m 1
 0 140 l 1
 152 140 l 1
 152 -2 l 1
 92 -134 l 1
 34 -130 l 1
 42.767578125 -2 l 1
 0 -2 l 1
EndSplineSet
EndChar

StartChar: hyphen
Encoding: 45 45 12
Width: 644
VWidth: 0
Flags: HW
HStem: 344 152<0 544>
LayerCount: 2
Fore
SplineSet
544 496 m 1
 544 344 l 1
 0 344 l 1
 0 496 l 1
 544 496 l 1
EndSplineSet
EndChar

StartChar: period
Encoding: 46 46 13
Width: 252
VWidth: 0
Flags: HW
HStem: -2 142<0 152>
VStem: 0 152<-2 140>
LayerCount: 2
Fore
SplineSet
0 -2 m 1
 0 140 l 1
 152 140 l 1
 152 -2 l 1
 0 -2 l 1
EndSplineSet
EndChar

StartChar: slash
Encoding: 47 47 14
Width: 691
VWidth: 0
Flags: HW
LayerCount: 2
Fore
SplineSet
485 818 m 1
 591 757 l 1
 106 -83 l 1
 0 -22 l 1
 485 818 l 1
EndSplineSet
EndChar

StartChar: zero
Encoding: 48 48 15
Width: 864
VWidth: 0
Flags: HW
HStem: -14 157<306.32 458.56> 612 161<306.32 458.56>
VStem: 76.5 122<271.459 485.999> 565.5 122<268.943 488.503>
LayerCount: 2
Fore
SplineSet
565.5 378 m 0
 565.5 507 484.5 612 382.5 612 c 0
 280.5 612 198.5 507 198.5 378 c 0
 198.5 248 280.5 143 382.5 143 c 0
 484.5 143 565.5 248 565.5 378 c 0
687.5 380 m 0
 687.5 162 551.5 -14 382.5 -14 c 0
 213.5 -14 76.5 162 76.5 380 c 0
 76.5 597 213.5 773 382.5 773 c 0
 551.5 773 687.5 597 687.5 380 c 0
EndSplineSet
EndChar

StartChar: one
Encoding: 49 49 16
Width: 436
VWidth: 0
Flags: HW
HStem: -2 21G<184 336> 754 20G<184 336>
VStem: 184 152<-2 774>
LayerCount: 2
Fore
SplineSet
108 487 m 1
 0 594 l 1
 182 776 l 1
 184.018554688 774 l 1
 336 774 l 1
 336 -2 l 1
 184 -2 l 1
 184 563 l 1
 108 487 l 1
EndSplineSet
EndChar

StartChar: two
Encoding: 50 50 17
Width: 555
VWidth: 0
Flags: HW
HStem: 0 226<8.0748 194.22> 586 128.801<8.0915 184.536>
VStem: 309 153<324.465 477.36>
LayerCount: 2
Fore
SplineSet
80 586 m 0
 54.4453125 586 29.9033203125 582.599609375 7 576.325195312 c 1
 7 709.06640625 l 1
 30.62890625 712.829101562 55.0341796875 714.80078125 80 714.80078125 c 0
 291 714.80078125 462 574 462 400.400390625 c 0
 462 270.616210938 367.301757812 167.858398438 231.891601562 123.775390625 c 1
 507 126.400390625 l 1
 507 4.80078125 l 1
 4 0 l 1
 7 235.682617188 l 1
 29.9033203125 229.401367188 54.4453125 226 80 226 c 0
 207 226 309 294.80078125 309 398.80078125 c 0
 309 502 207 586 80 586 c 0
EndSplineSet
EndChar

StartChar: three
Encoding: 51 51 18
Width: 435
VWidth: 0
Flags: HW
HStem: -6.12012 122.31<0 127.642> 288.149 122.641<51.207 148.605> 582.75 122.311<6 130.704>
VStem: 184 151<159.615 254.202 444.41 539.831>
LayerCount: 2
Fore
SplineSet
0 -5.0703125 m 1
 0 118.7265625 l 1
 8.326171875 117.068359375 17.0361328125 116.189453125 26 116.189453125 c 0
 114.59765625 116.189453125 184 154.260742188 184 202.049804688 c 0
 184 247.192382812 143.44921875 283.25 89.595703125 288.15234375 c 0
 85.4228515625 287.991210938 81.2236328125 287.91015625 77 287.91015625 c 0
 72.8291015625 287.91015625 68.681640625 287.990234375 64.55859375 288.149414062 c 0
 59.943359375 287.72265625 55.41796875 287.061523438 51 286.1796875 c 1
 51 288.959960938 l 1
 51 409.979492188 l 1
 51 412.756835938 l 1
 55.41796875 411.876953125 59.943359375 411.216796875 64.5576171875 410.790039062 c 0
 68.681640625 410.94921875 72.8291015625 411.030273438 77 411.030273438 c 0
 81.224609375 411.030273438 85.423828125 410.948242188 89.59765625 410.787109375 c 0
 143.450195312 415.686523438 184 451.690429688 184 496.080078125 c 0
 184 544.6796875 117.233398438 582.75 32 582.75 c 0
 23.0361328125 582.75 14.326171875 581.87109375 6 580.209960938 c 1
 6 704.009765625 l 1
 14.5537109375 704.704101562 23.2265625 705.060546875 32 705.060546875 c 0
 199.94140625 705.060546875 335 611.91015625 335 496.080078125 c 0
 335 438.852539062 306.532226562 387.0390625 260.310546875 349.418945312 c 1
 306.532226562 311.696289062 335 259.680664062 335 202.049804688 c 0
 335 87.0302734375 197.267578125 -6.1201171875 26 -6.1201171875 c 0
 17.2265625 -6.1201171875 8.5537109375 -5.7646484375 0 -5.0703125 c 1
EndSplineSet
EndChar

StartChar: four
Encoding: 52 52 19
Width: 752
VWidth: 0
Flags: HW
HStem: 191.015 150<237.765 335.765> 754 20G<318.718 472.766>
VStem: 335.765 137.001<341.015 521.015> 343.764 129.002<0 192.015>
LayerCount: 2
Fore
SplineSet
335.764648438 341.014648438 m 1
 335.764648438 521.014648438 l 1
 237.764648438 344.014648438 l 1
 335.764648438 341.014648438 l 1
343.763671875 0 m 1
 343.763671875 192.014648438 l 1
 342.764648438 191.014648438 l 1
 7.7646484375 191.014648438 l 1
 329.764648438 774 l 1
 472.765625 774 l 1
 472.765625 0 l 1
 343.763671875 0 l 1
EndSplineSet
EndChar

StartChar: five
Encoding: 53 53 20
Width: 384
VWidth: 0
Flags: HW
HStem: 3 151<0 90.529> 622 152<152 317>
VStem: 0 152<471.593 622> 133 151<196.066 325.061>
LayerCount: 2
Fore
SplineSet
0 4 m 1
 0 157 l 1
 8 155 17 154 26 154 c 0
 86 154 133 201 133 260 c 0
 133 320 86 367 26 367 c 0
 17 367 8 366 0 364 c 1
 0 397 l 1
 0 517 l 1
 0 773 l 1
 1 773 l 1
 1 774 l 1
 318 774 l 1
 317 622 l 1
 152 622 l 1
 152 485 l 1
 231 441 284 357 284 260 c 0
 284 118 169 3 26 3 c 0
 17 3 9 3 0 4 c 1
EndSplineSet
EndChar

StartChar: six
Encoding: 54 54 21
Width: 729
VWidth: 0
Flags: HW
HStem: 612 161<287.002 499.858>
VStem: 0 224<251.187 324.857> 442 167<195.982 323.016>
LayerCount: 2
Fore
SplineSet
332.955078125 366.982421875 m 0
 324.642578125 367.12890625 316.393554688 365.848632812 309 364 c 1
 309 364.828125 l 1
 259.8984375 354.9453125 224 312.4375 224 260 c 0
 224 224.543945312 240.973632812 193.420898438 267.541992188 174.228515625 c 0
 277.942382812 168.08203125 288.862304688 162.750976562 300.22265625 158.317382812 c 0
 303.096679688 157.485351562 306.024414062 156.767578125 309 156.169921875 c 1
 309 157 l 1
 316.393554688 155.151367188 324.642578125 154.157226562 332.955078125 154.017578125 c 0
 341.23046875 154.163085938 349.280273438 155.234375 357 157.131835938 c 1
 357 156.169921875 l 1
 406.1015625 166.0390625 442 208.436523438 442 260 c 0
 442 312.4375 406.1015625 354.9453125 357 364.828125 c 1
 357 363.864257812 l 1
 349.280273438 365.765625 341.23046875 366.836914062 332.955078125 366.982421875 c 0
382 612 m 0
 267.669921875 612 173.6015625 526.90625 155.969726562 415.8125 c 1
 199.354492188 463.500976562 260.4609375 494.749023438 329.12890625 499.397460938 c 0
 334.006835938 499.727539062 338.66015625 499.930664062 343.451171875 499.9765625 c 0
 344.631835938 499.98828125 345.815429688 500 347 500 c 0
 347.301757812 500 347.603515625 499.999023438 347.905273438 499.998046875 c 0
 348.92578125 500 349.956054688 500 351 500 c 0
 474.041992188 500 576.35546875 414.859375 602.516601562 300 c 0
 606.759765625 281.370117188 609 261.958007812 609 242 c 0
 609 214.854492188 604.797851562 188.6953125 597 164.138671875 c 0
 577.598632812 103.034179688 535.939453125 51.8447265625 481.387695312 20.041015625 c 0
 449.198242188 -2.3076171875 415.973632812 -14 382 -14 c 0
 379.5859375 -14 377.176757812 -13.9765625 374.772460938 -13.9306640625 c 0
 366.946289062 -14.638671875 359.017578125 -15 351 -15 c 0
 349.956054688 -15 348.92578125 -14.998046875 347.90625 -14.998046875 c 0
 347.604492188 -14.998046875 347.301757812 -15 347 -15 c 0
 345.815429688 -15 344.631835938 -14.9921875 343.451171875 -14.9765625 c 0
 338.662109375 -14.9130859375 334.004882812 -14.794921875 329.133789062 -14.3974609375 c 0
 275.603515625 -10.0244140625 226.633789062 9.9453125 187.079101562 40.984375 c 1
 75.05859375 109.575195312 0 235.5703125 0 380 c 0
 0 597 171 773 382 773 c 0
 406.965820312 773 477.37109375 770.536132812 501 765.83203125 c 1
 501 599.90625 l 1
 478.096679688 607.749023438 407.5546875 612 382 612 c 0
EndSplineSet
EndChar

StartChar: seven
Encoding: 55 55 22
Width: 610
VWidth: 0
Flags: HW
HStem: 610 152<0 339>
LayerCount: 2
Fore
SplineSet
163 0 m 1
 1 0 l 1
 339 610 l 1
 0 610 l 1
 0 762 l 1
 510 762 l 1
 510 610 l 1
 163 0 l 1
EndSplineSet
EndChar

StartChar: eight
Encoding: 56 56 23
Width: 616
VWidth: 0
Flags: HW
HStem: 366.983 92.0348<236.347 283.638>
VStem: 0 151<197.14 324.826 500.772 628.449> 369 151<195.844 324.826 500.772 629.753>
LayerCount: 2
Fore
SplineSet
259.037109375 3.201171875 m 0
 258.771484375 3.201171875 258.505859375 3.2001953125 258.240234375 3.2001953125 c 0
 257.197265625 3.2001953125 256.15625 3.2060546875 255.116210938 3.220703125 c 0
 250.90234375 3.2607421875 246.8046875 3.380859375 242.518554688 3.7294921875 c 0
 124.077148438 11.744140625 31.2001953125 109.6484375 31.2001953125 229.359375 c 0
 31.2001953125 279.814453125 47.4677734375 326.307617188 75.0703125 363.905273438 c 1
 47.4677734375 401.375976562 31.2001953125 447.659179688 31.2001953125 497.759765625 c 0
 31.2001953125 618.3125 124.075195312 716.250976562 242.513671875 724.26953125 c 0
 246.801757812 724.619140625 250.901367188 724.73828125 255.116210938 724.779296875 c 0
 256.15625 724.793945312 257.197265625 724.799804688 258.240234375 724.799804688 c 0
 258.505859375 724.799804688 258.771484375 724.798828125 259.036132812 724.797851562 c 0
 259.934570312 724.799804688 260.840820312 724.799804688 261.759765625 724.799804688 c 0
 387.599609375 724.799804688 488.799804688 623.599609375 488.799804688 497.759765625 c 0
 488.799804688 447.659179688 472.532226562 401.375976562 444.9296875 363.905273438 c 1
 472.532226562 326.307617188 488.799804688 279.814453125 488.799804688 229.359375 c 0
 488.799804688 104.400390625 387.599609375 3.2001953125 261.759765625 3.2001953125 c 0
 260.840820312 3.2001953125 259.934570312 3.201171875 259.037109375 3.201171875 c 0
259.959960938 591.904296875 m 0
 252.64453125 591.78125 245.38671875 590.907226562 238.879882812 589.279296875 c 1
 238.879882812 590.008789062 l 1
 195.669921875 581.3125 164.080078125 543.904296875 164.080078125 497.759765625 c 0
 164.080078125 452.384765625 195.669921875 415.075195312 238.879882812 406.389648438 c 1
 238.879882812 407.120117188 l 1
 245.38671875 405.493164062 252.64453125 404.618164062 259.959960938 404.49609375 c 0
 267.2421875 404.624023438 274.327148438 405.565429688 281.120117188 407.236328125 c 1
 281.120117188 406.389648438 l 1
 324.330078125 415.075195312 355.919921875 452.384765625 355.919921875 497.759765625 c 0
 355.919921875 543.904296875 324.330078125 581.3125 281.120117188 590.008789062 c 1
 281.120117188 589.16015625 l 1
 274.327148438 590.833984375 267.2421875 591.776367188 259.959960938 591.904296875 c 0
259.959960938 323.504882812 m 0
 252.64453125 323.381835938 245.38671875 322.505859375 238.879882812 320.879882812 c 1
 238.879882812 321.609375 l 1
 195.669921875 312.912109375 164.080078125 275.504882812 164.080078125 229.359375 c 0
 164.080078125 183.984375 195.669921875 146.673828125 238.879882812 137.990234375 c 1
 238.879882812 138.720703125 l 1
 245.38671875 137.09375 252.64453125 136.21875 259.959960938 136.094726562 c 0
 267.243164062 136.223632812 274.327148438 137.166015625 281.120117188 138.8359375 c 1
 281.120117188 137.990234375 l 1
 324.330078125 146.673828125 355.919921875 183.984375 355.919921875 229.359375 c 0
 355.919921875 275.504882812 324.330078125 312.912109375 281.120117188 321.609375 c 1
 281.120117188 320.760742188 l 1
 274.327148438 322.434570312 267.243164062 323.375976562 259.959960938 323.504882812 c 0
EndSplineSet
EndChar

StartChar: nine
Encoding: 57 57 24
Width: 729
VWidth: 0
Flags: HW
HStem: -15 161<109.125 322.237> 753 20G<253.991 258.522 261.849 262.592>
VStem: 0 167<434.984 562.018> 385 224<269.5 508.141>
LayerCount: 2
Fore
SplineSet
276.044921875 391.017578125 m 0
 284.357421875 390.87109375 292.606445312 392.151367188 300 394 c 1
 300 393.171875 l 1
 349.1015625 403.0546875 385 445.5625 385 498 c 0
 385 533.456054688 368.026367188 564.579101562 341.458007812 583.771484375 c 0
 331.057617188 589.91796875 320.137695312 595.249023438 308.77734375 599.682617188 c 0
 305.903320312 600.514648438 302.975585938 601.232421875 300 601.830078125 c 1
 300 601 l 1
 292.606445312 602.848632812 284.357421875 603.842773438 276.044921875 603.982421875 c 0
 267.76953125 603.836914062 259.719726562 602.765625 252 600.868164062 c 1
 252 601.830078125 l 1
 202.8984375 591.9609375 167 549.563476562 167 498 c 0
 167 445.5625 202.8984375 403.0546875 252 393.171875 c 1
 252 394.135742188 l 1
 259.719726562 392.234375 267.76953125 391.163085938 276.044921875 391.017578125 c 0
227 146 m 0
 341.330078125 146 435.3984375 231.09375 453.030273438 342.1875 c 1
 409.645507812 294.499023438 348.5390625 263.250976562 279.87109375 258.602539062 c 0
 274.993164062 258.272460938 270.33984375 258.069335938 265.548828125 258.0234375 c 0
 264.368164062 258.01171875 263.184570312 258 262 258 c 0
 261.698242188 258 261.396484375 258.000976562 261.094726562 258.001953125 c 0
 260.07421875 258 259.043945312 258 258 258 c 0
 134.958007812 258 32.64453125 343.140625 6.4833984375 458 c 0
 2.240234375 476.629882812 0 496.041992188 0 516 c 0
 0 543.145507812 4.2021484375 569.3046875 12 593.861328125 c 0
 31.4013671875 654.965820312 73.060546875 706.155273438 127.612304688 737.958984375 c 0
 159.801757812 760.307617188 193.026367188 772 227 772 c 0
 229.4140625 772 231.823242188 771.9765625 234.227539062 771.930664062 c 0
 242.053710938 772.638671875 249.982421875 773 258 773 c 0
 259.043945312 773 260.07421875 772.998046875 261.09375 772.998046875 c 0
 261.395507812 772.998046875 261.698242188 773 262 773 c 0
 263.184570312 773 264.368164062 772.9921875 265.548828125 772.9765625 c 0
 270.337890625 772.913085938 274.995117188 772.794921875 279.866210938 772.397460938 c 0
 333.396484375 768.024414062 382.366210938 748.0546875 421.920898438 717.015625 c 1
 533.94140625 648.424804688 609 522.4296875 609 378 c 0
 609 161 438 -15 227 -15 c 0
 202.034179688 -15 131.62890625 -12.5361328125 108 -7.83203125 c 1
 108 158.09375 l 1
 130.903320312 150.250976562 201.4453125 146 227 146 c 0
EndSplineSet
EndChar

StartChar: colon
Encoding: 58 58 25
Width: 252
VWidth: 0
Flags: HW
HStem: -2 142<0 152> 398 142<0 152>
VStem: 0 152<-2 140 398 540>
LayerCount: 2
Fore
SplineSet
0 -2 m 1
 0 140 l 1
 152 140 l 1
 152 -2 l 1
 0 -2 l 1
0 398 m 1
 0 540 l 1
 152 540 l 1
 152 398 l 1
 0 398 l 1
EndSplineSet
EndChar

StartChar: semicolon
Encoding: 59 59 26
Width: 252
VWidth: 0
Flags: HW
HStem: 398 142<0 152>
VStem: 0 152<-2 140 398 540>
LayerCount: 2
Fore
SplineSet
0 398 m 1
 0 540 l 1
 152 540 l 1
 152 398 l 1
 0 398 l 1
0 -2 m 1
 0 140 l 1
 152 140 l 1
 152 -2 l 1
 92 -134 l 1
 34 -130 l 1
 42.767578125 -2 l 1
 0 -2 l 1
EndSplineSet
EndChar

StartChar: less
Encoding: 60 60 27
Width: 644
VWidth: 0
Flags: HW
LayerCount: 2
Fore
SplineSet
544 546 m 1
 544 394 l 1
 329.895507812 337.71875 l 1
 544 296 l 1
 544 144 l 1
 0 250 l 1
 0 251 l 1
 0 402 l 1
 0 403 l 1
 544 546 l 1
EndSplineSet
EndChar

StartChar: equal
Encoding: 61 61 28
Width: 644
VWidth: 0
Flags: HW
HStem: 144 152<0 544> 394 152<0 544>
LayerCount: 2
Fore
SplineSet
544 546 m 1
 544 394 l 1
 0 394 l 1
 0 546 l 1
 544 546 l 1
544 296 m 1
 544 144 l 1
 0 144 l 1
 0 296 l 1
 544 296 l 1
EndSplineSet
EndChar

StartChar: greater
Encoding: 62 62 29
Width: 644
VWidth: 0
Flags: HW
LayerCount: 2
Fore
SplineSet
0 546 m 1
 544 403 l 1
 544 402 l 1
 544 251 l 1
 544 250 l 1
 0 144 l 1
 0 296 l 1
 214 338 l 1
 0 394 l 1
 0 546 l 1
EndSplineSet
EndChar

StartChar: question
Encoding: 63 63 30
Width: 384
VWidth: 0
Flags: HW
HStem: -2 142<0 152> 230 238<0 94.438> 678 151<0 90.529>
VStem: 0 152<-2 140 230 359.991> 133 151<508.983 635.934>
LayerCount: 2
Fore
SplineSet
0 828 m 1
 9 829 17 829 26 829 c 0
 169 829 284 714 284 572 c 0
 284 474.831054688 230.901367188 390.58984375 152 346.573242188 c 1
 152 230 l 1
 0 230 l 1
 0 315 l 1
 0 440 l 1
 0 468 l 1
 8 466 17 465 26 465 c 0
 86 465 133 512 133 572 c 0
 133 631 86 678 26 678 c 0
 17 678 8 677 0 675 c 1
 0 828 l 1
0 -2 m 1
 0 140 l 1
 152 140 l 1
 152 -2 l 1
 0 -2 l 1
EndSplineSet
EndChar

StartChar: at
Encoding: 64 64 31
Width: 864
VWidth: 0
Flags: HW
HStem: 239 75<381.227 423> 421 71<381.227 435>
VStem: 293 76<325.505 409.715> 435 83.0107<315.318 421> 435 76<318.62 421>
LayerCount: 2
Fore
SplineSet
511 236 m 1025xe8
474 166 m 1025xe0
437 228 m 1
 423 239 l 1
 351 239 293 296 293 368 c 0
 293 439 351 492 423 492 c 0
 427 492 431 492 435 492 c 2
 511 492 l 1
 518.010742188 318.353515625 l 2
 522.831054688 287.021484375 603.69921875 219.975585938 612 326 c 0
 611.986328125 327.467773438 607.7578125 340.56640625 608 342 c 0
 620 413 599 487 545 541 c 0
 455 631 309 628 218 537 c 0
 126 445 124 299 214 209 c 0
 284 139 388 125 474 166 c 0
 498 177 587 54 587 54 c 1
 435 -46 233 -32 103 98 c 0
 -46 247 -43 493 111 647 c 0
 264 800 510 804 659 655 c 0
 773 541 800 362 737 220 c 1
 629.654296875 157.57421875 534.088867188 199.5390625 437 228 c 1
435 420 m 1
 431 421 427 421 423 421 c 0
 393 421 369 398 369 368 c 0
 369 338 393 314 423 314 c 0
 427 314 431 315 435 316 c 1
 435 420 l 1
EndSplineSet
EndChar

StartChar: A
Encoding: 65 65 32
Width: 752
VWidth: 0
Flags: HW
HStem: 227 140<247.449 356.827>
LayerCount: 2
Fore
SplineSet
356.827148438 367 m 1
 307.200195312 535.223632812 l 1
 247.448242188 367 l 1
 356.827148438 367 l 1
500 0 m 1
 411 228.13671875 l 1
 411 227 l 1
 211.038085938 227 l 1
 152 0 l 1
 0 0 l 1
 216 769 l 1
 368 769 l 1
 652 0 l 1
 500 0 l 1
EndSplineSet
EndChar

StartChar: B
Encoding: 66 66 33
Width: 512
VWidth: 0
Flags: HW
HStem: 4 129<152.375 240.409> 346 105<152.375 240.409> 664 116<152.375 240.409>
VStem: 0 152<133.026 345.974 451.026 663.974 779.664 780> 283 151<176.465 303.767 492.806 610.788>
LayerCount: 2
Fore
SplineSet
152 454 m 1
 160 452 168 451 176 451 c 0
 236 451 283 498 283 557 c 0
 283 617 236 664 176 664 c 0
 168 664 160 663 152 661 c 1
 152 454 l 1
152 136 m 1
 160 134 168 133 176 133 c 0
 236 133 283 180 283 239 c 0
 283 299 236 346 176 346 c 0
 168 346 160 345 152 343 c 1
 152 136 l 1
152 780 m 1
 152 779.6640625 l 1
 157.96484375 780 163.740234375 780 170 780 c 0
 313 780 428 665 428 522 c 0
 428 471.500976562 370 429 345 396 c 1
 374 361 434 314.768554688 434 260 c 0
 434 118 319 3 176 3 c 0
 168 3 160 3 152 4 c 2
 0 4 l 1
 0 780 l 1
 152 780 l 1
EndSplineSet
EndChar

StartChar: C
Encoding: 67 67 34
Width: 555
VWidth: 0
Flags: HW
HStem: -14 157<287.027 453.909> 612 161<287.027 453.909>
VStem: 0 153<281.299 476.2>
LayerCount: 2
Fore
SplineSet
382 612 m 0
 255 612 153 507 153 378 c 0
 153 248 255 143 382 143 c 0
 407.5546875 143 432.096679688 147.250976562 455 155.102539062 c 1
 455 -6.830078125 l 1
 431.37109375 -11.5361328125 406.965820312 -14 382 -14 c 0
 171 -14 0 162 0 380 c 0
 0 597 171 773 382 773 c 0
 406.965820312 773 431.37109375 770.536132812 455 765.83203125 c 1
 455 599.90625 l 1
 432.096679688 607.749023438 407.5546875 612 382 612 c 0
EndSplineSet
EndChar

StartChar: D
Encoding: 68 68 35
Width: 630
VWidth: 0
Flags: HW
HStem: -13.9789 157.014<152 237.489> 611.965 161.035<152 243.477>
VStem: 0 152<-14 -13.9789 143.035 611.965> 377 153<282.064 475.736>
LayerCount: 2
Fore
SplineSet
152 143.03515625 m 1
 277.134765625 145.211914062 377 249.368164062 377 378 c 0
 377 505.642578125 277.134765625 609.788085938 152 611.96484375 c 1
 152 143.03515625 l 1
0 768 m 1
 49.62109375 760.911132812 98.3828125 773 148 773 c 0
 359 773 530 597 530 380 c 0
 530 163.37890625 361.157226562 -11.771484375 152 -13.978515625 c 2
 0 -14 l 1
 0 768 l 1
EndSplineSet
EndChar

StartChar: E
Encoding: 69 69 36
Width: 668
VWidth: 0
Flags: HW
HStem: -3 152<152 567> 333 152<152 459> 626 152<152 567>
VStem: 0 568<-3 149 626 778> 0 152<149 333 485 626>
LayerCount: 2
Fore
SplineSet
459 485 m 1
 460 333 l 1
 152 333 l 1
 152 149 l 1
 567 149 l 1
 568 -3 l 1
 1 -3 l 1
 0.9931640625 -2 l 1
 0 -2 l 1
 0 774 l 1
 0.0263671875 774 l 1
 0 778 l 1
 567 778 l 1
 568 626 l 1
 152 626 l 1
 152 485 l 1
 459 485 l 1
EndSplineSet
EndChar

StartChar: F
Encoding: 70 70 37
Width: 668
VWidth: 0
Flags: HW
HStem: -2 21G<0 152> 333 152<152 459> 626 152<152 567>
VStem: 0 152<-2 333 485 626>
LayerCount: 2
Fore
SplineSet
459 485 m 1
 460 333 l 1
 152 333 l 1
 152 -2 l 1
 0 -2 l 1
 0 774 l 1
 0.0263671875 774 l 1
 0 778 l 1
 567 778 l 1
 568 626 l 1
 152 626 l 1
 152 485 l 1
 459 485 l 1
EndSplineSet
EndChar

StartChar: G
Encoding: 71 71 38
Width: 651
VWidth: 0
Flags: HW
HStem: -14 157<287.532 399> 612 161<287.027 453.909>
VStem: 0 153<281.299 476.2> 399 152<-14 -13.6178 143 313>
LayerCount: 2
Fore
SplineSet
382 612 m 0
 255 612 153 507 153 378 c 0
 153 248 255 143 382 143 c 0
 387.719726562 143 393.388671875 143.212890625 399 143.631835938 c 1
 399 313 l 1
 551 313 l 1
 551 -14 l 1
 399 -14 l 1
 399 -13.6181640625 l 1
 393.364257812 -13.8720703125 387.696289062 -14 382 -14 c 0
 171 -14 0 162 0 380 c 0
 0 597 171 773 382 773 c 0
 406.965820312 773 431.37109375 770.536132812 455 765.83203125 c 1
 455 599.90625 l 1
 432.096679688 607.749023438 407.5546875 612 382 612 c 0
EndSplineSet
EndChar

StartChar: H
Encoding: 72 72 39
Width: 652
VWidth: 0
Flags: HW
HStem: -2 21G<0 152 400 552> 333 152<152 400> 754 20G<0 152 400 552>
VStem: 0 152<-2 333 485 774> 400 152<-2 333 485 774>
LayerCount: 2
Fore
SplineSet
400 774 m 1
 552 774 l 1
 552 -2 l 1
 400 -2 l 1
 400 333 l 1
 152 333 l 1
 152 -2 l 1
 0 -2 l 1
 0 774 l 1
 152 774 l 1
 152 485 l 1
 400 485 l 1
 400 774 l 1
EndSplineSet
EndChar

StartChar: I
Encoding: 73 73 40
Width: 252
VWidth: 0
Flags: HW
HStem: -2 21G<0 152> 754 20G<0 152>
VStem: 0 152<-2 774>
LayerCount: 2
Fore
SplineSet
0 774 m 1
 152 774 l 1
 152 -2 l 1
 0 -2 l 1
 0 774 l 1
EndSplineSet
EndChar

StartChar: J
Encoding: 74 74 41
Width: 419
VWidth: 0
Flags: HW
HStem: -3 151<5.4451 135.159> 741 20G<152 319>
VStem: 152 164<168.881 761>
LayerCount: 2
Fore
SplineSet
0 6 m 1
 0 174 l 1
 19 158 44 148 71 148 c 0
 104 148 132 162 152 185 c 1
 152 761 l 1
 319 761 l 1
 316 184 l 1
 285 75 189 -3 71 -3 c 0
 46 -3 23 0 0 6 c 1
EndSplineSet
EndChar

StartChar: K
Encoding: 75 75 42
Width: 703
VWidth: 0
Flags: HW
HStem: -2 20G<0 152 461 636.026> 754 20G<0 152>
VStem: 0 152<-2 218.505 432.895 774>
LayerCount: 2
Fore
SplineSet
0 774 m 1
 152 774 l 1
 152 432.89453125 l 1
 397 770 l 1
 583 768 l 1
 322 387 l 1
 653 -3 l 1
 461 -2 l 1
 209.208007812 301.887695312 l 1
 152 218.504882812 l 1
 152 -2 l 1
 0 -2 l 1
 0 774 l 1
EndSplineSet
EndChar

StartChar: L
Encoding: 76 76 43
Width: 718
VWidth: 0
Flags: HW
HStem: -3 152<152 617> 754 20G<0 152>
VStem: 0 152<149 774>
LayerCount: 2
Fore
SplineSet
0 774 m 1
 152 774 l 1
 152 149 l 1
 617 149 l 1
 618 -3 l 1
 1 -3 l 1
 0.9931640625 -2 l 1
 0 -2 l 1
 0 774 l 1
EndSplineSet
EndChar

StartChar: M
Encoding: 77 77 44
Width: 1052
VWidth: 0
Flags: HW
HStem: -2 21G<0 152 800 952>
VStem: 0 152<-2 476.16> 800 152<-2 476.16>
LayerCount: 2
Fore
SplineSet
0 768 m 1
 152 768 l 1
 476 145.919921875 l 1
 800 768 l 1
 952 768 l 1
 952 -2 l 1
 800 -2 l 1
 800 476.16015625 l 1
 552 0 l 1
 400 0 l 1
 152 476.16015625 l 1
 152 -2 l 1
 0 -2 l 1
 0 768 l 1
EndSplineSet
EndChar

StartChar: N
Encoding: 78 78 45
Width: 852
VWidth: 0
Flags: HW
HStem: -2 21G<0 152 582.937 752> 754 20G<0 169.116 600 752>
VStem: 0 152<-2 523.101> 600 152<250.522 774>
LayerCount: 2
Fore
SplineSet
0 774 m 1
 152 774 l 1
 600 250.521484375 l 1
 600 774 l 1
 752 774 l 1
 752 -2 l 1
 600 -2 l 1
 152 523.1015625 l 1
 152 -2 l 1
 0 -2 l 1
 0 774 l 1
EndSplineSet
EndChar

StartChar: O
Encoding: 79 79 46
Width: 864
VWidth: 0
Flags: HW
HStem: -14 157<287.027 476.973> 612 161<287.027 476.973>
VStem: 0 153<278.712 478.774> 611 153<278.712 478.774>
LayerCount: 2
Fore
SplineSet
611 378 m 0
 611 507 509 612 382 612 c 0
 255 612 153 507 153 378 c 0
 153 248 255 143 382 143 c 0
 509 143 611 248 611 378 c 0
764 380 m 0
 764 162 593 -14 382 -14 c 0
 171 -14 0 162 0 380 c 0
 0 597 171 773 382 773 c 0
 593 773 764 597 764 380 c 0
EndSplineSet
EndChar

StartChar: P
Encoding: 80 80 47
Width: 534
VWidth: 0
Flags: HW
HStem: 265 151<152 240.529> 629 150<152.375 240.409>
VStem: 0 152<3 266 416.026 628.974> 283 151<458.471 586.934>
LayerCount: 2
Fore
SplineSet
152 626 m 1
 152 419 l 1
 160 417 168 416 176 416 c 0
 236 416 283 463 283 523 c 0
 283 582 236 629 176 629 c 0
 168 629 160 628 152 626 c 1
152 3 m 1
 0 3 l 1
 0 779 l 1
 152 779 l 2
 160 780 168 780 176 780 c 0
 319 780 434 665 434 523 c 0
 434 380 319 265 176 265 c 0
 168 265 160 265 152 266 c 1
 152 3 l 1
EndSplineSet
EndChar

StartChar: Q
Encoding: 81 81 48
Width: 864
VWidth: 0
Flags: HW
HStem: -14 157<287.027 463.045> 612 161<287.027 476.973>
VStem: 0 153<281.299 476.2> 611 153<280.102 476.2>
LayerCount: 2
Fore
SplineSet
764 380 m 0
 764 262.352539062 714.198242188 156.9375 635.18359375 84.81640625 c 1
 772 -52 l 1
 634 -191 l 1
 450.666015625 -7.666015625 l 1
 428.390625 -11.8271484375 405.442382812 -14 382 -14 c 0
 171 -14 0 162 0 380 c 0
 0 597 171 773 382 773 c 0
 593 773 764 597 764 380 c 0
611 378 m 0
 611 507 509 612 382 612 c 0
 255 612 153 507 153 378 c 0
 153 248 255 143 382 143 c 0
 509 143 611 248 611 378 c 0
EndSplineSet
EndChar

StartChar: R
Encoding: 82 82 49
Width: 512
VWidth: 0
Flags: HW
HStem: -3 21G<309.703 462> 629 150<152.375 240.409>
VStem: 0 152<3 266 416.026 628.974> 283 151<460.25 586.934>
LayerCount: 2
Fore
SplineSet
152 3 m 1
 0 3 l 1
 0 779 l 1
 152 779 l 2
 160 780 168 780 176 780 c 0
 319 780 434 665 434 523 c 0
 434 410.658203125 363.024414062 315.596679688 263.254882812 280 c 1
 462 -3 l 1
 322 -3 l 1
 156.913085938 265.502929688 l 2
 155.275390625 265.6328125 153.637695312 265.794921875 152 266 c 1
 152 3 l 1
152 626 m 1
 152 419 l 1
 160 417 168 416 176 416 c 0
 236 416 283 463 283 523 c 0
 283 582 236 629 176 629 c 0
 168 629 160 628 152 626 c 1
EndSplineSet
EndChar

StartChar: S
Encoding: 83 83 50
Width: 512
VWidth: 0
Flags: HW
LayerCount: 2
Fore
SplineSet
5 57 m 1
 80 182 l 1
 86 177 92 172 102 167 c 0
 153 137 217 154 247 202 c 0
 279 258 229 306 177 315 c 1
 51 383 -33 498 51 639 c 0
 121 755 278 794 403 727 c 0
 409 721 417 718 424 712 c 1
 349 587 l 1
 343 592 337 597 327 602 c 0
 276 630 212 614 182 565 c 0
 149 510 182 429 246 418 c 1
 363 355 462 270 377 130 c 0
 308 13 151 -26 26 42 c 0
 20 48 12 51 5 57 c 1
EndSplineSet
EndChar

StartChar: T
Encoding: 84 84 51
Width: 676
VWidth: 0
Flags: HW
HStem: -2 21G<215 367> 614 152<3 215 367 579>
VStem: 215 152<-2 614>
LayerCount: 2
Fore
SplineSet
3 614 m 1
 3 766 l 1
 579 766 l 1
 579 614 l 1
 367 614 l 1
 367 -2 l 1
 215 -2 l 1
 215 614 l 1
 3 614 l 1
EndSplineSet
EndChar

StartChar: U
Encoding: 85 85 52
Width: 669
VWidth: 0
Flags: HW
HStem: 741 20G<0 167 402 569>
VStem: 3 164<172.77 761> 402 164<172.95 761>
LayerCount: 2
Fore
SplineSet
566 184 m 1
 497.931640625 -55.4130859375 72.236328125 -59.4453125 3 184 c 1
 0 761 l 1
 167 761 l 1
 167 185 l 1
 205.237304688 141.02734375 364.430664062 139.916992188 402 185 c 1
 402 761 l 1
 569 761 l 1
 566 184 l 1
EndSplineSet
EndChar

StartChar: V
Encoding: 86 86 53
Width: 652
VWidth: 0
Flags: HW
LayerCount: 2
Fore
SplineSet
0 769 m 1
 152 769 l 1
 276 292.219726562 l 1
 400 769 l 1
 552 769 l 1
 352 0 l 1
 200 0 l 1
 0 769 l 1
EndSplineSet
EndChar

StartChar: W
Encoding: 87 87 54
Width: 1000
VWidth: 0
Flags: HW
LayerCount: 2
Fore
SplineSet
0 769 m 1
 152 769 l 1
 276 292.219726562 l 1
 400 769 l 1
 401 769 l 1
 552 769 l 1
 553 769 l 1
 677 292 l 1
 801 769 l 1
 953 769 l 1
 753 0 l 1
 601 0 l 1
 476.5 478.702148438 l 1
 352 0 l 1
 200 0 l 1
 0 769 l 1
EndSplineSet
EndChar

StartChar: X
Encoding: 88 88 55
Width: 724
VWidth: 0
Flags: HW
HStem: -1 20G<12.6104 179 437.368 624>
LayerCount: 2
Fore
SplineSet
0 770 m 1
 186 768 l 1
 315.55078125 540.842773438 l 1
 448 769 l 1
 623 768 l 1
 402.728515625 387.982421875 l 1
 624 0 l 1
 449 -2 l 1
 312.609375 232.506835938 l 1
 179 2 l 1
 1 -1 l 1
 224.5 384 l 1
 0 770 l 1
EndSplineSet
EndChar

StartChar: Y
Encoding: 89 89 56
Width: 512
VWidth: 0
Flags: HW
VStem: 143 152<1 450>
LayerCount: 2
Fore
SplineSet
143 451 m 1
 143.365234375 451 l 1
 -56 765 l 1
 96 765 l 1
 220 594 l 1
 344 765 l 1
 496 765 l 1
 296 450 l 1
 295 450 l 1
 295 1 l 1
 143 1 l 1
 143 451 l 1
EndSplineSet
EndChar

StartChar: Z
Encoding: 90 90 57
Width: 783
VWidth: 0
Flags: HW
HStem: 10 152<251 683> 610 152<0 430>
LayerCount: 2
Fore
SplineSet
0 10 m 1
 0 162 l 1
 430 610 l 1
 0 610 l 1
 0 762 l 1
 683 762 l 1
 683 610 l 1
 251 162 l 1
 683 162 l 1
 683 10 l 1
 0 10 l 1
EndSplineSet
EndChar

StartChar: bracketleft
Encoding: 91 91 58
Width: 362
VWidth: 0
Flags: HW
HStem: -80 85<94 261> 689 85<94 261>
VStem: 0 262<-80 5 689 774> 0 94<5 689>
LayerCount: 2
Fore
SplineSet
1 -80 m 1
 0 -80 l 1
 0 -79 l 1
 0 773 l 1
 0 774 l 1
 1 774 l 1
 262 774 l 1
 261 689 l 1
 94 689 l 1
 94 5 l 1
 261 5 l 1
 262 -80 l 1
 1 -80 l 1
EndSplineSet
EndChar

StartChar: backslash
Encoding: 92 92 59
Width: 691
VWidth: 0
Flags: HW
LayerCount: 2
Fore
SplineSet
106 818 m 1
 591 -22 l 1
 485 -83 l 1
 0 757 l 1
 106 818 l 1
EndSplineSet
EndChar

StartChar: bracketright
Encoding: 93 93 60
Width: 362
VWidth: 0
Flags: HW
HStem: -81 85<1 168> 689 85<1 168>
VStem: 0 262<-81 4 689 774> 168 94<4 689>
LayerCount: 2
Fore
SplineSet
261 -81 m 1
 0 -81 l 1
 1 4 l 1
 168 4 l 1
 168 689 l 1
 1 689 l 1
 0 774 l 1
 261 774 l 1
 262 774 l 1
 262 773 l 1
 262 -80 l 1
 262 -81 l 1
 261 -81 l 1
EndSplineSet
EndChar

StartChar: asciicircum
Encoding: 94 94 61
Width: 644
VWidth: 0
Flags: HW
LayerCount: 2
Fore
SplineSet
71 283 m 1
 214 617 l 1
 215 617 l 1
 366 617 l 1
 367 617 l 1
 473 283 l 1
 321 283 l 1
 279 497 l 1
 223 283 l 1
 71 283 l 1
EndSplineSet
EndChar

StartChar: underscore
Encoding: 95 95 62
Width: 544
VWidth: 0
Flags: HW
HStem: 44 152<-50 494>
LayerCount: 2
Fore
SplineSet
494 196 m 1
 494 44 l 1
 -50 44 l 1
 -50 196 l 1
 494 196 l 1
EndSplineSet
EndChar

StartChar: grave
Encoding: 96 96 63
Width: 252
VWidth: 0
Flags: HW
HStem: 516 289
VStem: -69 290
LayerCount: 2
Fore
SplineSet
113 516 m 1
 -69 698 l 1
 39 805 l 1
 221 623 l 1
 113 516 l 1
EndSplineSet
EndChar

StartChar: a
Encoding: 97 97 64
Width: 512
VWidth: 0
Flags: HW
HStem: 8 151<193.471 282> 372 143<193.351 281.625>
VStem: 0 151<201.471 329.671> 282 152<1 9 159.012 371.988>
LayerCount: 2
Fore
SplineSet
282 369 m 1
 274 371 266 372 258 372 c 0
 198 372 151 325 151 266 c 0
 151 206 198 159 258 159 c 0
 266 159 274 160 282 162 c 1
 282 369 l 1
282 1 m 1
 282 9 l 1
 274 8 266 8 258 8 c 0
 115 8 0 123 0 266 c 0
 0 408 115 515 258 515 c 0
 266 515 274 515 282 514 c 2
 434 514 l 1
 434 1 l 1
 282 1 l 1
EndSplineSet
EndChar

StartChar: b
Encoding: 98 98 65
Width: 512
VWidth: 0
Flags: HW
HStem: 4 150<152.375 240.649> 367 151<152 240.529>
VStem: 0 152<154.012 366.988 517 780> 283 151<196.066 324.529>
LayerCount: 2
Fore
SplineSet
152 157 m 1
 160 155 168 154 176 154 c 0
 236 154 283 201 283 260 c 0
 283 320 236 367 176 367 c 0
 168 367 160 366 152 364 c 1
 152 157 l 1
152 780 m 1
 152 517 l 1
 160 518 168 518 176 518 c 0
 319 518 434 403 434 260 c 0
 434 118 319 3 176 3 c 0
 168 3 160 3 152 4 c 2
 0 4 l 1
 0 780 l 1
 152 780 l 1
EndSplineSet
EndChar

StartChar: c
Encoding: 99 99 66
Width: 384
VWidth: 0
Flags: HW
HStem: 3 151<193.471 284> 367 151<193.471 284>
VStem: 0 151<196.066 324.529>
LayerCount: 2
Fore
SplineSet
284 4.2958984375 m 1
 275.446289062 3.4384765625 266.7734375 3 258 3 c 0
 115 3 0 118 0 260 c 0
 0 403 115 518 258 518 c 0
 266.7734375 518 275.446289062 517.560546875 284 516.704101562 c 1
 284 363.864257812 l 1
 275.673828125 365.915039062 266.963867188 367 258 367 c 0
 198 367 151 320 151 260 c 0
 151 201 198 154 258 154 c 0
 266.963867188 154 275.673828125 155.084960938 284 157.131835938 c 1
 284 4.2958984375 l 1
EndSplineSet
EndChar

StartChar: d
Encoding: 100 100 67
Width: 512
VWidth: 0
Flags: HW
HStem: 3 151<192.454 282> 367 151<193.471 282>
VStem: 0 151<196.066 324.529> 282 152<4 4.10351 154.011 366.989 516.896 780>
LayerCount: 2
Fore
SplineSet
282 156.66015625 m 1
 282 364.336914062 l 1
 274.282226562 366.081054688 266.249023438 367 258 367 c 0
 198 367 151 320 151 260 c 0
 151 201 198 154 258 154 c 0
 266.249023438 154 274.282226562 154.918945312 282 156.66015625 c 1
282 780 m 1
 434 780 l 1
 434 4 l 1
 282 4 l 1
 282 4.103515625 l 1
 274.095703125 3.373046875 266.08984375 3 258 3 c 0
 115 3 0 118 0 260 c 0
 0 403 115 518 258 518 c 0
 266.08984375 518 274.095703125 517.626953125 282 516.896484375 c 1
 282 780 l 1
EndSplineSet
EndChar

StartChar: e
Encoding: 101 101 68
Width: 617
VWidth: 0
Flags: HW
HStem: 3 151<193.073 506.239> 205.32 128.941<180.301 337.264> 367 151<192.682 322.767>
VStem: 0 517<208.188 330.811>
LayerCount: 2
Fore
SplineSet
160.680664062 296.67578125 m 1
 356.883789062 294.1015625 l 1
 332.395507812 320.966796875 297.046875 375.099609375 257.8046875 375.099609375 c 0
 219.188476562 375.099609375 184.879882812 322.025390625 160.680664062 296.67578125 c 1
516 260 m 0
 516 241.328125 517 223 517 208 c 1
 165.985351562 205.3203125 l 1
 184.489257812 174.45703125 218.416015625 154 258 154 c 0
 272.516601562 154 494 157 507 162 c 1
 507 6 l 1
 494 4 271.946289062 3 258 3 c 0
 115 3 0 118 0 260 c 0
 0 403 115 518 258 518 c 0
 400 518 516 403 516 260 c 0
EndSplineSet
EndChar

StartChar: f
Encoding: 102 102 69
Width: 512
VWidth: 0
Flags: HW
HStem: -3 21G<95 262> 359 152<0 96.882 262 359> 610 151<278.841 408.555>
VStem: 95 167<-3 359 511 589.119>
LayerCount: 2
Fore
SplineSet
414 752 m 1
 414 584 l 1
 395 600 370 610 343 610 c 0
 310 610 282 596 262 573 c 1
 262 511 l 1
 359 511 l 1
 359 359 l 1
 262 359 l 1
 262 -3 l 1
 95 -3 l 1
 96.8818359375 359 l 1
 0 359 l 1
 0 511 l 1
 97.6728515625 511 l 1
 98 574 l 1
 129 683 225 761 343 761 c 0
 368 761 391 758 414 752 c 1
EndSplineSet
EndChar

StartChar: g
Encoding: 103 103 70
Width: 620
VWidth: 0
Flags: HW
HStem: -205 151<79.297 349.488> 498 20G<257.408 258.151 261.478 333.333>
VStem: 0 151<197.15 323.449> 369 151<-33.1189 25.9655 195.937 324.857>
LayerCount: 2
Fore
SplineSet
258.90625 3.001953125 m 0
 258.603515625 3.001953125 258.301757812 3 258 3 c 0
 256.815429688 3 255.631835938 3.0078125 254.451171875 3.0234375 c 0
 253.723632812 3.0302734375 252.28515625 3.03515625 250.349609375 3.041015625 c 0
 239.5390625 3.0732421875 213.241210938 3.1513671875 209 4 c 0
 75 13 0 123.96484375 0 260 c 0
 0 396.991210938 105.5390625 508.286132812 240.12890625 517.397460938 c 0
 245.001953125 517.794921875 249.66015625 517.930664062 254.451171875 517.9765625 c 0
 255.631835938 517.9921875 256.815429688 518 258 518 c 0
 258.301757812 518 258.603515625 517.999023438 258.905273438 517.998046875 c 0
 259.92578125 518 260.956054688 518 262 518 c 0
 404.666015625 518 519.463867188 403.536132812 519.998046875 261 c 2
 519.999023438 260.868164062 l 2
 520 260.579101562 520 260.290039062 520 260 c 0
 520 257.823242188 519.97265625 255.65234375 519.918945312 253.48828125 c 2
 517 -18 l 1
 486 -127 393 -205 275 -205 c 0
 250 -205 93 -202 70 -196 c 1
 70 -28 l 1
 89 -44 248 -54 275 -54 c 0
 308 -54 349 -40 369 -17 c 1
 369 25.9658203125 l 1
 336.44140625 11.21484375 300.220703125 3 262 3 c 0
 260.956054688 3 259.92578125 3.001953125 258.90625 3.001953125 c 0
259.955078125 366.982421875 m 0
 251.641601562 366.842773438 243.393554688 365.848632812 236 364 c 1
 236 364.828125 l 1
 186.8984375 354.9453125 151 312.4375 151 260 c 0
 151 208.436523438 186.8984375 166.0390625 236 156.169921875 c 1
 236 157 l 1
 243.393554688 155.151367188 251.641601562 154.157226562 259.955078125 154.017578125 c 0
 268.23046875 154.163085938 276.280273438 155.234375 284 157.131835938 c 1
 284 156.169921875 l 1
 333.1015625 166.0390625 369 208.436523438 369 260 c 0
 369 312.4375 333.1015625 354.9453125 284 364.828125 c 1
 284 363.864257812 l 1
 276.280273438 365.765625 268.23046875 366.836914062 259.955078125 366.982421875 c 0
EndSplineSet
EndChar

StartChar: h
Encoding: 104 104 71
Width: 597
VWidth: 0
Flags: HW
HStem: 373 151<183.435 313.159>
VStem: 0 169<6 355.866 512 768> 330 167<6 352.119>
LayerCount: 2
Fore
SplineSet
0 768 m 1
 169 768 l 1
 169 512 l 1
 195 520 221 524 249 524 c 0
 367 524 463 446 494 337 c 1
 497 6 l 1
 330 6 l 1
 330 336 l 1
 310 359 282 373 249 373 c 0
 217 373 189 360 169 338 c 1
 169 6 l 1
 0 6 l 1
 0 768 l 1
EndSplineSet
EndChar

StartChar: i
Encoding: 105 105 72
Width: 252
VWidth: 0
Flags: HW
HStem: -2 21G<0 152> 492 20G<0 152> 630 142<0 152>
VStem: 0 152<-2 512 630 772>
LayerCount: 2
Fore
SplineSet
0 772 m 1
 152 772 l 1
 152 630 l 1
 0 630 l 1
 0 772 l 1
0 512 m 1
 152 512 l 1
 152 -2 l 1
 0 -2 l 1
 0 512 l 1
EndSplineSet
EndChar

StartChar: j
Encoding: 106 106 73
Width: 419
VWidth: 0
Flags: HW
HStem: -204 151<5.4451 135.159> 497 20G<152 319> 630 142<164 316>
VStem: 152 164<-32.1189 517> 164 152<630 772>
LayerCount: 2
Fore
SplineSet
164 772 m 1
 316 772 l 1
 316 630 l 1
 164 630 l 1
 164 772 l 1
0 -195 m 1
 0 -27 l 1
 19 -43 44 -53 71 -53 c 0
 104 -53 132 -39 152 -16 c 1
 152 517 l 1
 319 517 l 1
 316 -17 l 1
 285 -126 189 -204 71 -204 c 0
 46 -204 23 -201 0 -195 c 1
EndSplineSet
EndChar

StartChar: k
Encoding: 107 107 74
Width: 753
VWidth: 0
Flags: HW
HStem: -2 20G<11 152 413 580.185> 754 20G<11 152>
VStem: 11 141<-2 154 317 774>
LayerCount: 2
Fore
SplineSet
11 752 m 1
 152 752 l 1
 152 317 l 1
 397 514 l 1
 590 512 l 1
 329 284 l 1
 599 -3 l 1
 413 -2 l 1
 209 226 l 1
 152 154 l 1
 152 -2 l 1
 11 -2 l 1
 11 752 l 1
EndSplineSet
EndChar

StartChar: l
Encoding: 108 108 75
Width: 419
VWidth: 0
Flags: HW
HStem: -3 151<183.008 313.885> 741 20G<0 167>
VStem: 3 164<166.215 761>
LayerCount: 2
Fore
SplineSet
319 6 m 1
 296.333007812 0 272.666992188 -3 248 -3 c 0
 190 -3 138.666992188 14.3330078125 94 49 c 0
 49.3330078125 83.6669921875 19 128.666992188 3 184 c 1
 0 761 l 1
 167 761 l 1
 167 185 l 1
 188.333007812 160.333007812 215.333007812 148 248 148 c 0
 274.666992188 148 298.333007812 156.666992188 319 174 c 1
 319 6 l 1
EndSplineSet
EndChar

StartChar: m
Encoding: 109 109 76
Width: 924
VWidth: 0
Flags: HW
HStem: 373 151<182.824 314.747 509.824 640.715>
VStem: 0 169<6 356.608 512 522> 330 166<6 355.109> 657 167<6 352.119>
LayerCount: 2
Fore
SplineSet
0 522 m 1
 169 522 l 1
 169 512 l 1
 195 520 221 524 249 524 c 0
 310.004882812 524 365.129882812 503.15234375 408.432617188 467.951171875 c 1
 496 512 l 1
 522 520 548 524 576 524 c 0
 694 524 790 446 821 337 c 1
 824 6 l 1
 657 6 l 1
 657 336 l 1
 637 359 609 373 576 373 c 0
 544 373 516 360 496 338 c 1
 496 116.333007812 l 1
 497 6 l 1
 496 6 l 1
 330 6 l 1
 327 6 l 1
 330 323.25 l 1
 330 336 l 1
 310 359 282 373 249 373 c 0
 217 373 189 360 169 338 c 1
 169 6 l 1
 0 6 l 1
 0 522 l 1
EndSplineSet
EndChar

StartChar: n
Encoding: 110 110 77
Width: 597
VWidth: 0
Flags: HW
HStem: 373 151<182.824 313.715>
VStem: 0 169<6 356.608 512 522> 330 167<6 352.119>
LayerCount: 2
Fore
SplineSet
0 522 m 1
 169 522 l 1
 169 512 l 1
 195 520 221 524 249 524 c 0
 367 524 463 446 494 337 c 1
 497 6 l 1
 330 6 l 1
 330 336 l 1
 310 359 282 373 249 373 c 0
 217 373 189 360 169 338 c 1
 169 6 l 1
 0 6 l 1
 0 522 l 1
EndSplineSet
EndChar

StartChar: o
Encoding: 111 111 78
Width: 616
VWidth: 0
Flags: HW
HStem: 3 21G<257.408 258.151 261.478 333.5> 498 20G<257.408 258.151 261.478 333.5>
VStem: 0 151<197.14 323.449> 369 151<195.844 324.753>
LayerCount: 2
Fore
SplineSet
259.955078125 366.982421875 m 0
 251.641601562 366.842773438 243.393554688 365.848632812 236 364 c 1
 236 364.828125 l 1
 186.8984375 354.9453125 151 312.4375 151 260 c 0
 151 208.436523438 186.8984375 166.0390625 236 156.169921875 c 1
 236 157 l 1
 243.393554688 155.151367188 251.641601562 154.157226562 259.955078125 154.017578125 c 0
 268.23046875 154.163085938 276.280273438 155.234375 284 157.131835938 c 1
 284 156.169921875 l 1
 333.1015625 166.0390625 369 208.436523438 369 260 c 0
 369 312.4375 333.1015625 354.9453125 284 364.828125 c 1
 284 363.864257812 l 1
 276.280273438 365.765625 268.23046875 366.836914062 259.955078125 366.982421875 c 0
258.90625 3.001953125 m 0
 258.603515625 3.001953125 258.301757812 3 258 3 c 0
 256.815429688 3 255.631835938 3.0078125 254.451171875 3.0234375 c 0
 249.662109375 3.0693359375 245.004882812 3.205078125 240.133789062 3.6025390625 c 0
 105.541992188 12.708984375 0 123.96484375 0 260 c 0
 0 396.991210938 105.5390625 508.286132812 240.12890625 517.397460938 c 0
 245.001953125 517.794921875 249.66015625 517.930664062 254.451171875 517.9765625 c 0
 255.631835938 517.9921875 256.815429688 518 258 518 c 0
 258.301757812 518 258.603515625 517.999023438 258.905273438 517.998046875 c 0
 259.92578125 518 260.956054688 518 262 518 c 0
 405 518 520 403 520 260 c 0
 520 118 405 3 262 3 c 0
 260.956054688 3 259.92578125 3.001953125 258.90625 3.001953125 c 0
EndSplineSet
EndChar

StartChar: p
Encoding: 112 112 79
Width: 512
VWidth: 0
Flags: HW
HStem: -202 21G<0 152> -5 151<152 240.529> 359 150<152.375 240.409>
VStem: 0 152<-202 -4 146.026 358.974> 283 151<188.471 316.934>
LayerCount: 2
Fore
SplineSet
152 356 m 1
 152 149 l 1
 160 147 168 146 176 146 c 0
 236 146 283 193 283 253 c 0
 283 312 236 359 176 359 c 0
 168 359 160 358 152 356 c 1
152 -202 m 1
 0 -202 l 1
 0 509 l 1
 152 509 l 2
 160 510 168 510 176 510 c 0
 319 510 434 395 434 253 c 0
 434 110 319 -5 176 -5 c 0
 168 -5 160 -5 152 -4 c 1
 152 -202 l 1
EndSplineSet
EndChar

StartChar: q
Encoding: 113 113 80
Width: 512
VWidth: 0
Flags: HW
HStem: -202 21G<282 434> -5 151<193.471 282> 359 151<193.591 281.625>
VStem: 0 151<188.471 316.934> 282 152<-202 -4 146.026 358.974>
LayerCount: 2
Fore
SplineSet
282 356 m 1
 274 358 266 359 258 359 c 0
 198 359 151 312 151 253 c 0
 151 193 198 146 258 146 c 0
 266 146 274 147 282 149 c 1
 282 356 l 1
282 -202 m 1
 282 -4 l 1
 274 -5 266 -5 258 -5 c 0
 115 -5 0 110 0 253 c 0
 0 395 115 510 258 510 c 0
 266 510 274 510 282 509 c 2
 434 509 l 1
 434 -202 l 1
 282 -202 l 1
EndSplineSet
EndChar

StartChar: r
Encoding: 114 114 81
Width: 587
VWidth: 0
Flags: HW
HStem: 373 151<182.824 314.013>
VStem: 0 169<6 356.608 512 522>
LayerCount: 2
Fore
SplineSet
0 522 m 1
 169 522 l 1
 169 512 l 1
 195 520 221 524 249 524 c 0
 359.2734375 524 450 443 487 345 c 1
 322 345 l 1
 322 344.31640625 l 1
 302.80859375 362.330078125 277.809570312 373 249 373 c 0
 217 373 189 360 169 338 c 1
 169 6 l 1
 0 6 l 1
 0 522 l 1
EndSplineSet
EndChar

StartChar: s
Encoding: 115 115 82
Width: 508
VWidth: 0
Flags: HW
LayerCount: 2
Fore
SplineSet
18.615234375 47 m 1
 85.615234375 159 l 1
 91.615234375 153 98.615234375 150 107.615234375 147 c 0
 160.615234375 123 204.615234375 131 230.615234375 162 c 0
 259.615234375 196 208.615234375 202 154.615234375 211 c 1
 26.615234375 262 -44.384765625 345 30.615234375 434 c 0
 93.615234375 510 246.615234375 527 373.615234375 473 c 0
 380.615234375 470 388.615234375 468 395.615234375 462 c 1
 328.615234375 332 l 1
 322.615234375 336 315.615234375 341 306.615234375 344 c 0
 253.615234375 366 231.615234375 359 205.615234375 328 c 0
 175.615234375 293 172.615234375 286 236.615234375 275 c 1
 355.615234375 225 458.615234375 164 382.615234375 75 c 0
 320.615234375 -1 167.615234375 -21 40.615234375 34 c 0
 33.615234375 36 26.615234375 41 18.615234375 47 c 1
EndSplineSet
EndChar

StartChar: t
Encoding: 116 116 83
Width: 514
VWidth: 0
Flags: HW
HStem: -3 151<278.285 409.024> 364 152<0 96.274 262 359> 741 20G<95 262>
VStem: 96.274 165.726<168.881 364 516 761>
LayerCount: 2
Fore
SplineSet
414 6 m 1
 391 0 368 -3 343 -3 c 0
 225 -3 129 75 98 184 c 1
 97.064453125 364 l 1
 0 364 l 1
 0 516 l 1
 96.2734375 516 l 1
 95 761 l 1
 262 761 l 1
 262 516 l 1
 359 516 l 1
 359 364 l 1
 262 364 l 1
 262 185 l 1
 282 162 310 148 343 148 c 0
 370 148 395 158 414 174 c 1
 414 6 l 1
EndSplineSet
EndChar

StartChar: u
Encoding: 117 117 84
Width: 598
VWidth: 0
Flags: HW
HStem: 6 151<184.841 314.565> 504 20G<1 168 329 498>
VStem: 4 164<177.881 524> 329 169<8 18 174.134 524>
LayerCount: 2
Fore
SplineSet
498 2 m 1
 329 2 l 1
 329 12 l 1
 303 4 277 0 249 0 c 0
 131 0 35 78 4 187 c 1
 1 518 l 1
 168 518 l 1
 168 188 l 1
 188 165 216 151 249 151 c 0
 281 151 309 164 329 186 c 1
 329 518 l 1
 498 518 l 1
 498 2 l 1
EndSplineSet
EndChar

StartChar: v
Encoding: 118 118 85
Width: 652
VWidth: 0
Flags: HW
HStem: 491 20G<0 158.757 393.243 552>
LayerCount: 2
Fore
SplineSet
0 511 m 1
 152 511 l 1
 276 144 l 1
 400 511 l 1
 552 511 l 1
 352 0 l 1
 200 0 l 1
 0 511 l 1
EndSplineSet
EndChar

StartChar: w
Encoding: 119 119 86
Width: 1044
VWidth: 0
Flags: HW
HStem: 491 20G<0 154.757 389.243 554.54 785.243 944>
LayerCount: 2
Fore
SplineSet
396 511 m 1
 548 511 l 1
 668 144 l 1
 792 511 l 1
 944 511 l 1
 744 0 l 1
 596 0 l 1
 472 316.8203125 l 1
 348 0 l 1
 200 0 l 1
 0 511 l 1
 148 511 l 1
 272 144 l 1
 396 511 l 1
EndSplineSet
EndChar

StartChar: x
Encoding: 120 120 87
Width: 724
VWidth: 0
Flags: HW
HStem: -1 20G<18.4269 179 431.563 624> 493 20G<17.4369 186 430.573 623>
LayerCount: 2
Fore
SplineSet
0 513 m 1
 186 511 l 1
 315.491210938 359.926757812 l 1
 448 512 l 1
 623 511 l 1
 402.584960938 258.317382812 l 1
 624 0 l 1
 449 -2 l 1
 312.291015625 154.8046875 l 1
 179 2 l 1
 1 -1 l 1
 224.5 255.5 l 1
 0 513 l 1
EndSplineSet
EndChar

StartChar: y
Encoding: 121 121 88
Width: 652
VWidth: 0
Flags: HW
HStem: 491 20G<0 177.757 400 577.185>
LayerCount: 2
Fore
SplineSet
0 511 m 1
 171 511 l 1
 295 144 l 1
 400 511 l 1
 585 514 l 1
 306 -200 l 1
 158 -204 l 1
 227.328125 0 l 1
 227 0 l 1
 0 511 l 1
EndSplineSet
EndChar

StartChar: z
Encoding: 122 122 89
Width: 512
VWidth: 0
Flags: HW
HStem: 10 152<251 453> 366 152<0 243>
LayerCount: 2
Fore
SplineSet
0 10 m 1
 0 162 l 1
 243 366 l 1
 0 366 l 1
 0 518 l 1
 453 518 l 1
 453 366 l 1
 251 162 l 1
 453 162 l 1
 453 10 l 1
 0 10 l 1
EndSplineSet
EndChar

StartChar: braceleft
Encoding: 123 123 90
Width: 419
VWidth: 0
Flags: HW
HStem: -92 121<328.218 400.506> 684 121<328.745 400.506>
VStem: 239 84<34.1962 228 485 674.933>
LayerCount: 2
Fore
SplineSet
401 -85 m 1
 390 -90 377 -92 364 -92 c 0
 304 -92 255 -29 239 58 c 1
 238 228 l 1
 129 358 l 1
 238 485 l 1
 239 655 l 1
 255 742 304 805 364 805 c 0
 377 805 390 803 401 798 c 1
 401 663 l 1
 391 676 378 684 364 684 c 0
 347 684 333 672 323 654 c 1
 324 470 l 1
 242 369 l 1
 323 228 l 1
 323 58 l 1
 333 40 347 29 364 29 c 0
 378 29 391 37 401 50 c 1
 401 -85 l 1
EndSplineSet
EndChar

StartChar: bar
Encoding: 124 124 91
Width: 252
VWidth: 0
Flags: HW
VStem: 15 122<-99 871>
LayerCount: 2
Fore
SplineSet
15 871 m 1
 137 871 l 1
 137 -99 l 1
 15 -99 l 1
 15 871 l 1
EndSplineSet
EndChar

StartChar: braceright
Encoding: 125 125 92
Width: 419
VWidth: 0
Flags: HW
HStem: -92 121<129.494 201.782> 684 121<129.494 201.255>
VStem: 207 84<34.1962 228 485 674.933>
LayerCount: 2
Fore
SplineSet
129 -85 m 1
 129 50 l 1
 139 37 152 29 166 29 c 0
 183 29 197 40 207 58 c 1
 207 228 l 1
 288 369 l 1
 206 470 l 1
 207 654 l 1
 197 672 183 684 166 684 c 0
 152 684 139 676 129 663 c 1
 129 798 l 1
 140 803 153 805 166 805 c 0
 226 805 275 742 291 655 c 1
 292 485 l 1
 401 358 l 1
 292 228 l 1
 291 58 l 1
 275 -29 226 -92 166 -92 c 0
 153 -92 140 -90 129 -85 c 1
EndSplineSet
EndChar

StartChar: asciitilde
Encoding: 126 126 93
Width: 644
VWidth: 0
Flags: HW
HStem: 344 152.581<205.052 427.98> 400 152<51.251 183.491>
LayerCount: 2
Fore
SplineSet
499 577 m 1
 499 425 l 2
 498.596679688 423.500976562 442.831054688 344 371 344 c 0
 323 344 319 344 271 344 c 0
 207 344 182 400 118 400 c 0
 67 400 0 344 0 344 c 1
 0 496 l 1
 0 496 64 552 114 552 c 0
 180 552 208 497 274 497 c 0
 318 497 319 497 363 496.581054688 c 0
 432 497 499 577 499 577 c 1
EndSplineSet
EndChar

StartChar: .notdef
Encoding: 0 0 94
Width: 1000
Flags: HW
HStem: 0 66<243 635> 205.75 71<371 447> 321.75 117.5<371 427.005> 545.75 75.5<371 426.239> 732 62<243 635>
VStem: 193 50<66 732> 371 76<205.75 276.75 321.75 394.448> 437.5 75.5<449.629 534.632> 635 48<66 732>
LayerCount: 2
Fore
SplineSet
208 794 m 2
 668 794 l 2
 676 794 683 787 683 779 c 2
 683 15 l 2
 683 7 676 0 668 0 c 2
 208 0 l 2
 200 0 193 7 193 15 c 2
 193 779 l 2
 193 787 200 794 208 794 c 2
258 732 m 2
 250 732 243 725 243 717 c 2
 243 81 l 2
 243 73 250 66 258 66 c 2
 620 66 l 2
 628 66 635 73 635 81 c 2
 635 717 l 2
 635 725 628 732 620 732 c 2
 258 732 l 2
371 620.75 m 1
 375.5 621.25 379.5 621.25 384 621.25 c 0
 455.5 621.25 513 563.75 513 492.75 c 0
 513 444.165039062 486.450195312 402.044921875 447 380.037109375 c 1
 447 321.75 l 1
 371 321.75 l 1
 371 364.25 l 1
 371 426.75 l 1
 371 440.75 l 1
 375 439.75 379.5 439.25 384 439.25 c 0
 414 439.25 437.5 462.75 437.5 492.75 c 0
 437.5 522.25 414 545.75 384 545.75 c 0
 379.5 545.75 375 545.25 371 544.25 c 1
 371 620.75 l 1
371 205.75 m 1
 371 276.75 l 1
 447 276.75 l 1
 447 205.75 l 1
 371 205.75 l 1
EndSplineSet
EndChar

StartChar: u09a4
Encoding: 2468 2468 95
Width: 726
VWidth: 75
Flags: HW
HStem: 4.7002 133.6<255.264 418.805> 513.479 120.821<345.987 417.023> 671 132<-50 676>
VStem: 42.4004 111.399<240.829 328.876> 520.2 133.399<240.829 414.049>
LayerCount: 2
Fore
SplineSet
339.780273438 513.478515625 m 1
 339.780273438 513.478515625 345.987304688 634.29296875 345.987304688 634.29296875 c 2
 346.657226562 634.297851562 347.328125 634.299804688 348 634.299804688 c 0
 516.799804688 634.299804688 653.599609375 493.5 653.599609375 319.900390625 c 0
 653.599609375 145.5 516.799804688 4.7001953125 348 4.7001953125 c 0
 179.200195312 4.7001953125 42.400390625 145.5 42.400390625 319.900390625 c 0
 42.400390625 320.77734375 153.86328125 330.658203125 153.870117188 331.533203125 c 1
 153.823242188 329.794921875 153.799804688 328.049804688 153.799804688 326.299804688 c 0
 153.799804688 222.299804688 235.400390625 138.299804688 337 138.299804688 c 0
 438.599609375 138.299804688 520.200195312 222.299804688 520.200195312 326.299804688 c 0
 520.200195312 428.556640625 440.084960938 511.962890625 339.780273438 513.478515625 c 1
676 803 m 5
 676 671 l 5
 -50 671 l 5
 -50 803 l 5
 676 803 l 5
EndSplineSet
EndChar

StartChar: uni09AC
Encoding: 2476 2476 96
Width: 723
VWidth: 0
Flags: HW
HStem: 671 132<-50 474 620 673> 671 106<474 620>
VStem: 474 146<1 73.5 225.5 473.5 625.5 777> 474 57.5<73.5 225.5 473.5 473.5>
LayerCount: 2
Fore
SplineSet
673 803 m 1
 673 671 l 1
 620 671 l 1
 620 1 l 1
 474 1 l 1
 474 2.798828125 l 1
 20.5 273.5 l 1
 20.5 425.5 l 1
 474 602.995117188 l 1
 474 671 l 1
 -50 671 l 1
 -50 803 l 1
 673 803 l 1
474 154.814453125 m 1
 474 454.072265625 l 1
 164.5 349.5 l 1
 474 154.814453125 l 1
EndSplineSet
EndChar

StartChar: exclamdown
Encoding: 161 161 99
Width: 252
VWidth: 0
Flags: HW
HStem: -2 21G<0 152> 492 20G<0 152> 630 142<0 152>
VStem: 0 152<-2 512 630 772>
LayerCount: 2
Fore
SplineSet
152 772 m 1
 152 630 l 1
 0 630 l 1
 0 772 l 1
 152 772 l 1
152 512 m 1
 152 -2 l 1
 0 -2 l 1
 0 512 l 1
 152 512 l 1
EndSplineSet
EndChar

StartChar: sterling
Encoding: 163 163 103
Width: 772
VWidth: 0
Flags: HW
HStem: -3 169.5<-47.5 547.285> 359 152<0 96.882 262 359> 610 151<278.841 408.555>
VStem: 95 167<-3 359 511 589.119> 565.5 151<182.508 312.889>
LayerCount: 2
Fore
SplineSet
414 752 m 1
 414 584 l 1
 395 600 370 610 343 610 c 0
 310 610 282 596 262 573 c 1
 262 511 l 1
 359 511 l 1
 359 359 l 1
 262 359 l 1
 262 166.5 l 1
 528.5 166.5 l 1
 553.166992188 187.833007812 565.5 214.833007812 565.5 247.5 c 0
 565.5 274.166992188 556.833007812 297.833007812 539.5 318.5 c 1
 707.5 318.5 l 1
 713.5 295.833007812 716.5 272.166992188 716.5 247.5 c 0
 716.5 189.5 699.166992188 138.166992188 664.5 93.5 c 0
 629.833007812 48.8330078125 584.833007812 18.5 529.5 2.5 c 1
 262 1.109375 l 1
 262 -3 l 1
 95 -3 l 1
 95.0166015625 0.2412109375 l 1
 -47.5 -0.5 l 1
 -47.5 166.5 l 1
 95.880859375 166.5 l 1
 96.8818359375 359 l 1
 0 359 l 1
 0 511 l 1
 97.6728515625 511 l 1
 98 574 l 1
 129 683 225 761 343 761 c 0
 368 761 391 758 414 752 c 1
EndSplineSet
EndChar

StartChar: uni098F
Encoding: 2447 2447 104
Width: 697
VWidth: 0
Flags: HW
HStem: 610 151<260.445 390.159>
VStem: -47.5 151<182.508 312.889>
LayerCount: 2
Fore
SplineSet
-38.5 318.5 m 1
 129.5 318.5 l 1
 112.166992188 297.833007812 103.5 274.166992188 103.5 247.5 c 0
 103.5 214.833007812 115.833007812 187.833007812 140.5 166.5 c 1
 407 166.5 l 1
 407 573 l 1
 387 596 359 610 326 610 c 0
 299 610 274 600 255 584 c 1
 255 752 l 1
 278 758 301 761 326 761 c 0
 444 761 540 683 571 574 c 1
 574 -3 l 5
 426.245117188 -4.087890625 287.399414062 3.732421875 139.5 2.5 c 5
 84.1669921875 18.5 39.1669921875 48.8330078125 4.5 93.5 c 0
 -30.1669921875 138.166992188 -47.5 189.5 -47.5 247.5 c 0
 -47.5 272.166992188 -44.5 295.833007812 -38.5 318.5 c 1
EndSplineSet
EndChar

StartChar: uni0985
Encoding: 2437 2437 105
Width: 946
VWidth: 0
Flags: HW
HStem: -2 21G<701 741.187> 4.7002 125.6<264.372 431.628> 505.479 128.821<350.78 431.669> 671 132<-50 723 875 896> 671 105<723 875>
VStem: 42.4004 122.399<233.067 322.113> 531.2 122.399<273.807 406.338> 723 152<105 776>
LayerCount: 2
Fore
SplineSet
350.780273438 505.478515625 m 1
 350.780273438 505.478515625 345.987304688 634.29296875 345.987304688 634.29296875 c 1
 346.657226562 634.297851562 347.328125 634.299804688 348 634.299804688 c 0
 516.799804688 634.299804688 653.599609375 493.5 653.599609375 319.900390625 c 0
 653.599609375 307.25 652.879882812 294.776367188 651.48046875 282.51953125 c 1
 723 211 l 1
 723 671 l 1
 -50 671 l 1
 -50 803 l 1
 896 803 l 1
 896 671 l 1
 875 671 l 1
 875 0 l 1
 723.018554688 -0 l 1
 721 -2 l 1
 590.749023438 128.250976562 l 1
 534.901367188 53.0810546875 446.948242188 4.7001953125 348 4.7001953125 c 0
 179.200195312 4.7001953125 42.400390625 145.5 42.400390625 319.900390625 c 0
 42.400390625 320.77734375 164.86328125 322.658203125 164.870117188 323.533203125 c 1
 164.823242188 321.794921875 164.799804688 320.049804688 164.799804688 318.299804688 c 0
 164.799804688 214.299804688 246.400390625 130.299804688 348 130.299804688 c 0
 449.599609375 130.299804688 531.200195312 214.299804688 531.200195312 318.299804688 c 0
 531.200195312 420.556640625 451.084960938 503.962890625 350.780273438 505.478515625 c 1
EndSplineSet
EndChar

StartChar: uni09BE
Encoding: 2494 2494 106
Width: 436
VWidth: 0
Flags: HW
HStem: -2 21G<184 336> 671 132<223 384>
VStem: 184 200<671 803> 184 152<-2 487 803 847> 223 113<671 803>
LayerCount: 2
Fore
SplineSet
184 847 m 1
 336 847 l 1
 336 803 l 1
 384 803 l 1
 384 671 l 1
 336 671 l 1
 336 -2 l 1
 184 -2 l 1
 184 488.981445312 l 1
 182 487 l 1
 -123 785 l 1
 78 782 l 1
 184 688 l 1
 184 847 l 1
EndSplineSet
EndChar

StartChar: uni0986
Encoding: 2438 2438 107
Width: 1261
VWidth: 0
Flags: HW
HStem: -2 21G<701 741.187> 4.7002 125.6<264.372 431.628> 505.479 128.821<350.78 431.669> 671 129<-50 704 723 896 1050 1211> 671 105<723 875>
VStem: 42.4004 122.399<233.067 322.113> 531.2 122.399<273.807 406.338> 723 173<671 776> 1011 200<671 803> 1011 152<-2 487 803 850> 1050 113<671 803>
LayerCount: 2
Fore
SplineSet
1011 850 m 1
 1163 850 l 1
 1163 803 l 1
 1211 803 l 1
 1211 671 l 1
 1163 671 l 1
 1163 -2 l 1
 1011 -2 l 1
 1011 488.981445312 l 1
 1009 487 l 1
 875 624.514648438 l 1
 875 0 l 1
 723.018554688 -0 l 1
 721 -2 l 1
 590.749023438 128.250976562 l 1
 534.901367188 53.0810546875 446.948242188 4.7001953125 348 4.7001953125 c 0
 179.200195312 4.7001953125 42.400390625 145.5 42.400390625 319.900390625 c 0
 42.400390625 320.77734375 164.86328125 322.658203125 164.870117188 323.533203125 c 1
 164.823242188 321.794921875 164.799804688 320.049804688 164.799804688 318.299804688 c 0
 164.799804688 214.299804688 246.400390625 130.299804688 348 130.299804688 c 0
 449.599609375 130.299804688 531.200195312 214.299804688 531.200195312 318.299804688 c 0
 531.200195312 420.556640625 451.084960938 503.962890625 350.780273438 505.478515625 c 1
 350.780273438 505.478515625 345.987304688 634.29296875 345.987304688 634.29296875 c 1
 346.657226562 634.297851562 347.328125 634.299804688 348 634.299804688 c 0
 516.799804688 634.299804688 653.599609375 493.5 653.599609375 319.900390625 c 0
 653.599609375 307.25 652.879882812 294.776367188 651.48046875 282.51953125 c 1
 723 211 l 1
 723 671 l 1
 -50 671 l 1
 -50 800 l 1
 704 800 l 1
 896 800 l 1
 905 800 l 1
 1011 697 l 1
 1011 850 l 1
EndSplineSet
EndChar

StartChar: uni09B9
Encoding: 2489 2489 108
Width: 689
VWidth: 0
Flags: HW
HStem: -1 21G<357 543> 671 132<-50 639>
LayerCount: 2
Fore
SplineSet
639 803 m 1
 639 671 l 1
 -50 671 l 1
 -50 803 l 1
 639 803 l 1
186.141601562 472.20703125 m 1
 186.141601562 472.20703125 78.7998046875 578.45703125 78.0263671875 577.68359375 c 1
 180.65625 680.313476562 342.620117188 682.33203125 445.080078125 579.872070312 c 0
 546.706054688 478.24609375 544.452148438 316.5078125 442.18359375 213.525390625 c 0
 416.661132812 187.825195312 389.724609375 169.067382812 362.2578125 156.3515625 c 1
 543 -1 l 1
 384 -1 l 1
 175.735351562 153.26953125 l 1
 140.404296875 167.595703125 107.993164062 189.703125 80.9208984375 217.127929688 c 1
 183.453125 319.66015625 l 1
 183.686523438 319.422851562 183.921875 319.186523438 184.158203125 318.950195312 c 0
 226.666992188 276.440429688 290.711914062 277.127929688 336.141601562 321.051757812 c 0
 379.873046875 366.353515625 380.990234375 430.416015625 338.306640625 473.099609375 c 0
 295.163085938 516.244140625 231.517578125 515.487304688 186.141601562 472.20703125 c 1
EndSplineSet
EndChar

StartChar: uni0987
Encoding: 2439 2439 109
Width: 689
VWidth: 0
Flags: HW
HStem: -1 21G<357 543> 671 132<-50 257.581 493.755 639>
LayerCount: 2
Fore
SplineSet
639 803 m 1
 639 671 l 1
 -50 671 l 1
 -50 803 l 1
 283.489257812 803 l 1
 277.990234375 828.393554688 267.922851562 854.420898438 249.7890625 872.776367188 c 0
 218.380859375 903.592773438 217.673828125 904.299804688 186.560546875 935.412109375 c 0
 139.891601562 982.081054688 81.2021484375 962.989257812 34.5322265625 1009.65820312 c 0
 -0.822265625 1045.01367188 -6.4794921875 1129.8671875 -6.4794921875 1129.8671875 c 1
 81.9091796875 1218.25488281 l 1
 81.9091796875 1218.25488281 89.6875 1131.28125 125.749023438 1095.21875 c 0
 171.00390625 1049.96386719 228.280273438 1071.88378906 273.53515625 1026.62890625 c 0
 307.475585938 992.688476562 310.3046875 989.859375 344.245117188 955.918945312 c 0
 394.2734375 905.890625 374.794921875 808.1796875 377.479492188 808.1328125 c 1
 372.346679688 803 l 1
 639 803 l 1
186.141601562 472.20703125 m 1
 186.141601562 472.20703125 78.7998046875 578.45703125 78.0263671875 577.68359375 c 1
 180.65625 680.313476562 342.620117188 682.33203125 445.080078125 579.872070312 c 0
 546.706054688 478.24609375 544.452148438 316.5078125 442.18359375 213.525390625 c 0
 416.661132812 187.825195312 389.724609375 169.067382812 362.2578125 156.3515625 c 1
 543 -1 l 1
 384 -1 l 1
 175.735351562 153.26953125 l 1
 140.404296875 167.595703125 107.993164062 189.703125 80.9208984375 217.127929688 c 1
 183.453125 319.66015625 l 1
 183.686523438 319.422851562 183.921875 319.186523438 184.158203125 318.950195312 c 0
 226.666992188 276.440429688 290.711914062 277.127929688 336.141601562 321.051757812 c 0
 379.873046875 366.353515625 380.990234375 430.416015625 338.306640625 473.099609375 c 0
 295.163085938 516.244140625 231.517578125 515.487304688 186.141601562 472.20703125 c 1
EndSplineSet
EndChar

StartChar: uni09A1
Encoding: 2465 2465 110
Width: 616
VWidth: 0
Flags: HW
HStem: 3.00156 151.016<193.473 323.671> 366 151.998<259 391> 671 132<-50 259 391 566> 671 80<259 391>
VStem: 259 132<517.998 751>
LayerCount: 2
Fore
SplineSet
566 803 m 1
 566 671 l 1
 391 671 l 1
 391 483.791992188 l 1
 469.610351562 439.66015625 522.310546875 356.931640625 520 260 c 0
 516.541015625 114.885742188 402.287109375 2.7998046875 258.90625 3.001953125 c 0
 89.0390625 3.240234375 5.1650390625 131.7890625 6.0009765625 261 c 1
 151.00390625 261 l 1
 151.000976562 260.666992188 151 260.333984375 151 260 c 0
 151 199.8828125 196.772460938 155.08203125 259.955078125 154.017578125 c 0
 322.911132812 155.126953125 369 199.63671875 369 260 c 0
 369 316.657226562 329.734375 359.046875 273.932617188 366 c 1
 259 366 l 1
 259 517.624023438 l 2
 258.96875 517.87109375 258.9375 517.998046875 258.905273438 517.998046875 c 1
 258.9375 517.998046875 258.96875 517.998046875 259 517.998046875 c 1
 259 671 l 1
 -50 671 l 1
 -50 803 l 1
 566 803 l 1
EndSplineSet
EndChar

StartChar: uni0989
Encoding: 2441 2441 111
Width: 612
VWidth: 0
Flags: HW
HStem: 3.00195 151.016<188.473 318.671> 366 151.998<254 386> 671 132<-55 386 493.755 561>
LayerCount: 2
Fore
SplineSet
561 803 m 1
 561 671 l 1
 386 671 l 1
 386 483.791992188 l 1
 464.611328125 439.66015625 517.310546875 356.931640625 515 260 c 0
 511.541015625 114.885742188 397.287109375 2.7998046875 253.90625 3.001953125 c 0
 84.0390625 3.240234375 0.1650390625 131.7890625 1.0009765625 261 c 1
 146.00390625 261 l 1
 146.000976562 260.666992188 146 260.333984375 146 260 c 0
 146 199.8828125 191.772460938 155.08203125 254.955078125 154.017578125 c 0
 317.911132812 155.126953125 364 199.63671875 364 260 c 0
 364 316.657226562 324.735351562 359.046875 268.932617188 366 c 1
 254 366 l 1
 254 517.622070312 l 2
 253.96875 517.870117188 253.9375 517.998046875 253.905273438 517.998046875 c 1
 253.936523438 517.998046875 253.96875 517.998046875 254 517.998046875 c 1
 254 671 l 1
 -55 671 l 1
 -55 803 l 1
 244.169921875 803 l 1
 238.783203125 829.090820312 228.6640625 856.108398438 210 875 c 0
 178.591796875 905.81640625 177.884765625 906.5234375 146.771484375 937.635742188 c 0
 100.102539062 984.3046875 41.4130859375 965.212890625 -5.2568359375 1011.88183594 c 0
 -40.611328125 1047.23730469 -46.2685546875 1132.09082031 -46.2685546875 1132.09082031 c 1
 42.1201171875 1220.47851562 l 1
 42.1201171875 1220.47851562 49.8984375 1133.50488281 85.9599609375 1097.44238281 c 0
 131.21484375 1052.1875 188.491210938 1074.10742188 233.74609375 1028.85253906 c 0
 267.686523438 994.912109375 270.515625 992.083007812 304.456054688 958.142578125 c 0
 354.484375 908.114257812 335.005859375 810.403320312 337.690429688 810.356445312 c 1
 330.333984375 803 l 1
 561 803 l 1
EndSplineSet
EndChar

StartChar: uni09A2
Encoding: 2466 2466 112
Width: 642
VWidth: 0
Flags: HW
HStem: 671 132<-50 0 167 589> 671 90<0 167>
VStem: 3 164<172.77 761> 402 164<172.95 373>
LayerCount: 2
Fore
SplineSet
566 184 m 1
 497.931640625 -55.4130859375 72.236328125 -59.4453125 3 184 c 1
 0.4677734375 671 l 1
 -50 671 l 1
 -50 803 l 1
 589 803 l 1
 589 671 l 1
 167 671 l 1
 167 185 l 1
 205.237304688 141.02734375 364.430664062 139.916992188 402 185 c 1
 402 373 l 1
 569 373 l 1
 566 184 l 1
EndSplineSet
EndChar

StartChar: uni099F
Encoding: 2463 2463 113
Width: 642
VWidth: 0
Flags: HW
HStem: 671 132<-50 0 493.755 589> 671 90<0 167>
VStem: 3 164<172.77 761> 402 164<172.95 373>
LayerCount: 2
Fore
SplineSet
566 184 m 1
 497.931640625 -55.4130859375 72.236328125 -59.4453125 3 184 c 1
 0.4677734375 671 l 1
 -50 671 l 1
 -50 803 l 1
 201.8359375 803 l 1
 186.87109375 817.96484375 l 2
 141.616210938 863.219726562 163.536132812 920.49609375 118.28125 965.750976562 c 0
 82.21875 1001.8125 -4.7548828125 1009.59082031 -4.7548828125 1009.59082031 c 1
 83.6328125 1097.97949219 l 1
 83.6328125 1097.97949219 168.486328125 1092.32226562 203.841796875 1056.96777344 c 0
 250.510742188 1010.29785156 231.418945312 951.608398438 278.087890625 904.939453125 c 0
 309.200195312 873.826171875 309.907226562 873.119140625 340.723632812 841.7109375 c 0
 367.475585938 815.282226562 410.520507812 805.987304688 444.153320312 803 c 2
 589 803 l 1
 589 671 l 1
 167 671 l 1
 167 185 l 1
 205.237304688 141.02734375 364.430664062 139.916992188 402 185 c 1
 402 373 l 1
 569 373 l 1
 566 184 l 1
EndSplineSet
EndChar

StartChar: uni0995
Encoding: 2453 2453 114
Width: 1095
VWidth: 0
Flags: HW
HStem: 351.5 151<666.566 795.029> 671 132<-50 474 620 1038> 671 106<474 620>
VStem: 473.5 58<73.5 218.5 473.5 473.5> 474 146<1 73.5 218.5 244.5 625.5 777> 837.5 151<218.5 309.029>
LayerCount: 2
Fore
SplineSet
1048 803 m 1
 1048 671 l 1
 620 671 l 1
 620 477.599609375 l 1
 653.46875 493.573242188 690.936523438 502.5 730.5 502.5 c 0
 873.5 502.5 988.5 387.5 988.5 244.5 c 0
 988.5 235.7265625 988.060546875 227.053710938 987.204101562 218.5 c 1
 834.364257812 218.5 l 1
 836.415039062 226.826171875 837.5 235.536132812 837.5 244.5 c 0
 837.5 304.5 790.5 351.5 730.5 351.5 c 0
 671.5 351.5 624.5 304.5 624.5 244.5 c 0
 624.5 235.536132812 625.584960938 226.826171875 627.631835938 218.5 c 1
 620 218.5 l 1
 620 1 l 1
 477 1 l 1
 20.5 273.5 l 1
 20.5 425.5 l 1
 474 602.995117188 l 1
 474 671 l 1
 -50 671 l 1
 -50 803 l 1
 1048 803 l 1
474.961914062 155.461914062 m 1
 474.961914062 155.461914062 474.0078125 452 474 454.072265625 c 1
 164.5 349.5 l 1
 474.961914062 155.461914062 l 1
EndSplineSet
EndChar

StartChar: uni0993
Encoding: 2451 2451 115
Width: 616
VWidth: 0
Flags: HW
HStem: 3 151.017<197.114 326.368> 676 6<175.316 177.624>
VStem: 0 151<198.344 364.102> 369 151<195.94 324.826 500.937 633.001>
LayerCount: 2
Fore
SplineSet
237 682 m 0
 230.208007812 681.634765625 181.076171875 677.51953125 175 676 c 1
 177.624023438 676.109375 154.358398438 760.163085938 157 760 c 0
 168.190429688 759.309570312 229.141601562 800.811523438 281 808 c 0
 424.5234375 827.895507812 522.978515625 717.309570312 520 565 c 0
 518.88671875 508.077148438 501.513671875 455.473632812 470.147460938 412.892578125 c 1
 501.513671875 370.16796875 520 317.333984375 520 260 c 0
 520 118 405 3 262 3 c 0
 260.956054688 3 259.92578125 3.001953125 258.90625 3.001953125 c 0
 258.603515625 3.001953125 258.301757812 3 258 3 c 0
 256.815429688 3 255.631835938 3.0078125 254.451171875 3.0234375 c 0
 249.662109375 3.0693359375 245.004882812 3.205078125 240.133789062 3.6025390625 c 0
 105.541992188 12.708984375 0 123.96484375 0 260 c 0
 0 315.204101562 17.138671875 366.235351562 46.41015625 408.088867188 c 1
 58 412 l 1
 236.961914062 362.549804688 151 404.8828125 151 260 c 0
 151 199.87890625 196.760742188 155.08203125 259.955078125 154.017578125 c 0
 322.901367188 155.126953125 369 199.640625 369 260 c 0
 369 312.4375 333.1015625 354.9453125 284 364.828125 c 1
 284 363.864257812 l 1
 259.955078125 459.017578125 l 1
 268.23046875 459.163085938 276.280273438 460.234375 284 462.131835938 c 1
 284 461.169921875 l 1
 333.1015625 471.0390625 369 513.436523438 369 565 c 0
 369 643.3203125 315.104492188 686.1953125 237 682 c 0
EndSplineSet
EndChar

StartChar: uni09B0
Encoding: 2480 2480 116
Width: 723
VWidth: 0
Flags: HW
HStem: -2 142<111 263> 671 132<-50 474 620 673> 671 106<474 620>
VStem: 111 152<-2 140> 474 146<1 73.5 225.5 473.5 625.5 777> 474 57.5<73.5 225.5 473.5 473.5>
LayerCount: 2
Fore
SplineSet
673 803 m 1
 673 671 l 1
 620 671 l 1
 620 1 l 1
 473 1 l 1
 473 2.798828125 l 1
 20.5 273.5 l 1
 20.5 425.5 l 1
 474 602.995117188 l 1
 474 671 l 1
 -50 671 l 1
 -50 803 l 1
 673 803 l 1
44 -2 m 1
 44 140 l 1
 196 140 l 1
 196 -2 l 1
 44 -2 l 1
473 154.815429688 m 1
 473 454.072265625 l 1
 164.5 349.5 l 1
 473 154.815429688 l 1
EndSplineSet
EndChar

StartChar: mu
Encoding: 181 181 119
Width: 598
VWidth: 0
Flags: HW
HStem: 6 151<184.435 314.159> 504 20G<1 170 331 498>
VStem: 1 169<-189 18 174.134 524> 331 164<177.881 524>
LayerCount: 2
Fore
SplineSet
1 -189 m 1
 1 524 l 1
 170 524 l 1
 170 192 l 1
 190 170 218 157 250 157 c 0
 283 157 311 171 331 194 c 1
 331 524 l 1
 498 524 l 1
 495 193 l 1
 464 84 368 6 250 6 c 0
 222 6 196 10 170 18 c 1
 170 -189 l 1
 1 -189 l 1
EndSplineSet
EndChar

StartChar: guillemotleft
Encoding: 171 171 120
Width: 1282
VWidth: 0
Flags: HW
LayerCount: 2
Fore
SplineSet
544 663 m 1
 544 511 l 1
 137.895507812 337.71875 l 1
 544 158 l 1
 544 6 l 1
 0 250 l 1
 0 251 l 1
 0 402 l 1
 0 403 l 1
 544 663 l 1
1144 663 m 1
 1144 511 l 1
 737.895507812 337.71875 l 1
 1144 158 l 1
 1144 6 l 1
 600 250 l 1
 600 251 l 1
 600 402 l 1
 600 403 l 1
 1144 663 l 1
EndSplineSet
EndChar

StartChar: guillemotright
Encoding: 187 187 121
Width: 1282
VWidth: 0
Flags: HW
LayerCount: 2
Fore
SplineSet
600 663 m 1
 1144 403 l 1
 1144 402 l 1
 1144 251 l 1
 1144 250 l 1
 600 6 l 1
 600 158 l 1
 1006.10449219 337.71875 l 1
 600 511 l 1
 600 663 l 1
0 663 m 1
 544 403 l 1
 544 402 l 1
 544 251 l 1
 544 250 l 1
 0 6 l 1
 0 158 l 1
 406.104492188 337.71875 l 1
 0 511 l 1
 0 663 l 1
EndSplineSet
EndChar

StartChar: cent
Encoding: 162 162 122
Width: 384
VWidth: 0
Flags: HW
HStem: 3 151<237.13 284> 367 151<237.13 284>
VStem: 0 151<196.066 324.529> 188 47<-99 700>
LayerCount: 2
Fore
SplineSet
284 4.2958984375 m 1
 275.446289062 3.4384765625 266.7734375 3 258 3 c 0
 250.24609375 3 242.575195312 3.337890625 235 4 c 1
 235 -99 l 1
 188 -99 l 1
 188 12.517578125 l 1
 79.259765625 42.8349609375 0 142.11328125 0 260 c 0
 0 378.716796875 79.259765625 478.13671875 188 508.477539062 c 1
 188 700 l 1
 235 700 l 1
 235 517 l 1
 242.575195312 517.662109375 250.24609375 518 258 518 c 0
 266.7734375 518 275.446289062 517.560546875 284 516.704101562 c 1
 284 363.864257812 l 1
 275.673828125 365.915039062 266.963867188 367 258 367 c 0
 250.081054688 367 242.387695312 366.181640625 235 364.622070312 c 1
 235 156.375976562 l 1
 242.387695312 154.818359375 250.081054688 154 258 154 c 0
 266.963867188 154 275.673828125 155.084960938 284 157.131835938 c 1
 284 4.2958984375 l 1
188 341.549804688 m 1
 165.219726562 322.071289062 151 293.001953125 151 260 c 0
 151 227.547851562 165.219726562 198.7265625 188 179.359375 c 1
 188 341.549804688 l 1
EndSplineSet
EndChar

StartChar: yen
Encoding: 165 165 123
Width: 612
VWidth: 0
Flags: HW
HStem: 196 62<-14 530> 334 62<-14 530>
VStem: 179 152<1 450>
LayerCount: 2
Fore
SplineSet
179 451 m 1
 179.365234375 451 l 1
 -20 765 l 1
 132 765 l 1
 256 594 l 1
 380 765 l 1
 532 765 l 1
 332 450 l 1
 331 450 l 1
 331 396 l 1
 530 396 l 1
 530 334 l 1
 331 334 l 1
 331 258 l 1
 530 258 l 1
 530 196 l 1
 331 196 l 1
 331 1 l 1
 179 1 l 1
 179 196 l 1
 -14 196 l 1
 -14 258 l 1
 179 258 l 1
 179 334 l 1
 -14 334 l 1
 -14 396 l 1
 179 396 l 1
 179 451 l 1
EndSplineSet
EndChar

StartChar: questiondown
Encoding: 191 191 124
Width: 384
VWidth: 0
Flags: HW
HStem: -2 151<193.471 284> 687 142<132 284>
VStem: 0 151<191.066 318.017> 132 152<467.009 597 687 829>
LayerCount: 2
Fore
SplineSet
284 -1 m 1
 275 -2 267 -2 258 -2 c 0
 115 -2 0 113 0 255 c 0
 0 352.168945312 53.0986328125 436.41015625 132 480.426757812 c 1
 132 597 l 1
 284 597 l 1
 284 512 l 1
 284 387 l 1
 284 359 l 1
 276 361 267 362 258 362 c 0
 198 362 151 315 151 255 c 0
 151 196 198 149 258 149 c 0
 267 149 276 150 284 152 c 1
 284 -1 l 1
284 829 m 1
 284 687 l 1
 132 687 l 1
 132 829 l 1
 284 829 l 1
EndSplineSet
EndChar

StartChar: plusminus
Encoding: 177 177 125
Width: 644
VWidth: 0
Flags: HW
HStem: -30 152<0 544> 344 152<0 544>
VStem: 196 152<149 692>
LayerCount: 2
Fore
SplineSet
196 692 m 1
 348 692 l 1
 348 496 l 1
 544 496 l 1
 544 344 l 1
 348 344 l 1
 348 149 l 1
 196 149 l 1
 196 344 l 1
 0 344 l 1
 0 496 l 1
 196 496 l 1
 196 692 l 1
544 122 m 1
 544 -30 l 1
 0 -30 l 1
 0 122 l 1
 544 122 l 1
EndSplineSet
EndChar

StartChar: gravecomb
Encoding: 768 768 127
Width: 0
VWidth: 0
GlyphClass: 4
Flags: HW
HStem: 516 289
VStem: -195 290
LayerCount: 2
Fore
SplineSet
-13 516 m 1
 -195 698 l 1
 -87 805 l 1
 95 623 l 1
 -13 516 l 1
EndSplineSet
EndChar

StartChar: acutecomb
Encoding: 769 769 128
Width: 0
VWidth: 0
GlyphClass: 4
Flags: HW
HStem: 516 289
VStem: -195 290
LayerCount: 2
Fore
SplineSet
-87 516 m 1
 -195 623 l 1
 -13 805 l 1
 95 698 l 1
 -87 516 l 1
EndSplineSet
EndChar

StartChar: uni0302
Encoding: 770 770 129
Width: 0
VWidth: 0
GlyphClass: 4
Flags: HW
HStem: 766.5 167<-79 -74.5 -25.5 -2.5>
VStem: -150.5 201
LayerCount: 2
Fore
SplineSet
-150.5 766.5 m 1
 -79 933.5 l 1
 -78.5 933.5 l 1
 -3 933.5 l 1
 -2.5 933.5 l 1
 50.5 766.5 l 1
 -25.5 766.5 l 1
 -46.5 873.5 l 1
 -74.5 766.5 l 1
 -150.5 766.5 l 1
EndSplineSet
EndChar

StartChar: tildecomb
Encoding: 771 771 130
Width: 0
VWidth: 0
GlyphClass: 4
Flags: HW
HStem: 802.25 76.291<-90.2727 54.864> 830.25 76<-166.384 -64.504>
VStem: -174.75 249.5<754.486 802.25>
LayerCount: 2
Fore
SplineSet
74.75 918.75 m 1
 74.75 842.75 l 2
 74.548828125 842 46.666015625 802.25 10.75 802.25 c 0
 -13.25 802.25 -15.25 802.25 -39.25 802.25 c 0
 -71.25 802.25 -83.75 830.25 -115.75 830.25 c 0
 -141.25 830.25 -174.75 802.25 -174.75 802.25 c 1
 -174.75 878.25 l 1
 -174.75 878.25 -142.75 906.25 -117.75 906.25 c 0
 -84.75 906.25 -70.75 878.75 -37.75 878.75 c 0
 -15.75 878.75 -15.25 878.75 6.75 878.541015625 c 0
 41.25 878.75 74.75 918.75 74.75 918.75 c 1
EndSplineSet
EndChar

StartChar: uni0306
Encoding: 774 774 131
Width: 0
VWidth: 0
GlyphClass: 4
Flags: HW
HStem: 807.75 52<-140.392 38.2935>
VStem: -247.25 14.5<965.212 1021.98> 133.75 12.5<969.659 1027.14>
LayerCount: 2
Fore
SplineSet
78.5 931.5 m 1
 78.5 927.5 78.5 922.5 78.5 918.5 c 0
 78.5 846.5 21.5 789.5 -49.5 789.5 c 0
 -121.5 789.5 -178.5 846.5 -178.5 918.5 c 0
 -178.5 922.5 -178.5 927.5 -178.5 931.5 c 1
 -101.5 931.5 l 1
 -102.5 927.5 -103.5 922.5 -103.5 918.5 c 0
 -103.5 888.5 -79.5 864.5 -49.5 864.5 c 0
 -19.5 864.5 3.5 888.5 3.5 918.5 c 0
 3.5 922.5 2.5 927.5 1.5 931.5 c 1
 78.5 931.5 l 1
EndSplineSet
EndChar

StartChar: uni0304
Encoding: 772 772 132
Width: 0
VWidth: 0
GlyphClass: 4
Flags: HW
HStem: 782 76<-186 86>
VStem: -186 272<782 858>
LayerCount: 2
Fore
SplineSet
86 858 m 1
 86 782 l 1
 -186 782 l 1
 -186 858 l 1
 86 858 l 1
EndSplineSet
EndChar

StartChar: dieresis
Encoding: 168 168 133
Width: 452
VWidth: 0
Flags: HW
HStem: -2 142<0 152 200 352>
VStem: 0 152<-2 140> 200 152<-2 140>
LayerCount: 2
Fore
SplineSet
0 -2 m 1
 0 140 l 1
 152 140 l 1
 152 -2 l 1
 0 -2 l 1
200 -2 m 1
 200 140 l 1
 352 140 l 1
 352 -2 l 1
 200 -2 l 1
EndSplineSet
EndChar

StartChar: uni0308
Encoding: 776 776 135
Width: 0
VWidth: 0
GlyphClass: 4
Flags: HW
HStem: 498 142<-226 -74 -26 126>
VStem: -226 152<498 640> -26 152<498 640>
LayerCount: 2
Fore
SplineSet
-226 498 m 1
 -226 640 l 1
 -74 640 l 1
 -74 498 l 1
 -226 498 l 1
-26 498 m 1
 -26 640 l 1
 126 640 l 1
 126 498 l 1
 -26 498 l 1
EndSplineSet
EndChar

StartChar: uni0307
Encoding: 775 775 136
Width: 0
VWidth: 0
GlyphClass: 4
Flags: HW
HStem: 498 142<-126 26>
VStem: -126 152<498 640>
LayerCount: 2
Fore
SplineSet
-126 498 m 1
 -126 640 l 1
 26 640 l 1
 26 498 l 1
 -126 498 l 1
EndSplineSet
EndChar

StartChar: hookabovecomb
Encoding: 777 777 137
Width: 0
VWidth: 0
GlyphClass: 4
Flags: HW
HStem: 432 77<-121 -63.343> 614 75<-121 -66.3337>
VStem: -54 75<518.071 602.495>
LayerCount: 2
Fore
SplineSet
-121 432 m 1
 -121 509 l 1
 -117 508 -112 507 -108 507 c 0
 -78 507 -54 530 -54 560 c 0
 -54 590 -78 614 -108 614 c 0
 -112 614 -117 613 -121 612 c 1
 -121 689 l 1
 -117 689 -112 689 -108 689 c 0
 -36 689 21 632 21 560 c 0
 21 489 -36 432 -108 432 c 0
 -112 432 -117 432 -121 432 c 1
EndSplineSet
EndChar

StartChar: uni030A
Encoding: 778 778 138
Width: 0
VWidth: 0
GlyphClass: 4
Flags: HW
HStem: 432 75<-61.8125 -38.1875> 614 75<-61.8125 -38.1875>
VStem: -180 76<517.334 603.111> 4 76<517.933 602.698>
LayerCount: 2
Fore
SplineSet
-50 614 m 0
 -54 614 -58 613 -62 612 c 1
 -62 613 l 1
 -87 608 -104 586 -104 560 c 0
 -104 534 -87 513 -62 508 c 1
 -62 509 l 1
 -58 508 -54 507 -50 507 c 0
 -46 507 -42 508 -38 509 c 1
 -38 508 l 1
 -13 513 4 534 4 560 c 0
 4 586 -13 608 -38 613 c 1
 -38 612 l 1
 -42 613 -46 614 -50 614 c 0
-51 432 m 0
 -52 432 -52 432 -53 432 c 0
 -55 432 -58 432 -60 432 c 0
 -127 437 -180 492 -180 560 c 0
 -180 628 -127 684 -60 689 c 0
 -58 689 -55 689 -53 689 c 0
 -52 689 -52 689 -51 689 c 0
 -50 689 -50 689 -49 689 c 0
 23 689 80 632 80 560 c 0
 80 489 23 432 -49 432 c 0
 -50 432 -50 432 -51 432 c 0
EndSplineSet
EndChar

StartChar: uni030B
Encoding: 779 779 139
Width: 0
VWidth: 0
GlyphClass: 4
Flags: HW
HStem: 514 289
LayerCount: 2
Fore
SplineSet
-230 516 m 1
 -338 623 l 1
 -156 805 l 1
 -48 698 l 1
 -230 516 l 1
56 514 m 1
 -52 621 l 1
 130 803 l 1
 238 696 l 1
 56 514 l 1
EndSplineSet
EndChar

StartChar: uni030C
Encoding: 780 780 140
Width: 0
VWidth: 0
GlyphClass: 4
Flags: HW
HStem: 766 168<-79 -74 -26 -2>
VStem: -150 200
LayerCount: 2
Fore
SplineSet
-150 934 m 1
 -74 934 l 1
 -46 826 l 1
 -26 934 l 1
 50 934 l 1
 -2 766 l 1
 -3 766 l 1
 -78 766 l 1
 -79 766 l 1
 -150 934 l 1
EndSplineSet
EndChar

StartChar: uni030F
Encoding: 783 783 141
Width: 0
VWidth: 0
GlyphClass: 4
Flags: HW
HStem: 514 289
LayerCount: 2
Fore
SplineSet
130 516 m 1
 -52 698 l 1
 56 805 l 1
 238 623 l 1
 130 516 l 1
-156 514 m 1
 -338 696 l 1
 -230 803 l 1
 -48 621 l 1
 -156 514 l 1
EndSplineSet
EndChar

StartChar: dotbelowcomb
Encoding: 803 803 142
Width: 0
VWidth: 0
GlyphClass: 4
Flags: HW
HStem: -2 142<-126 26>
VStem: -126 152<-2 140>
LayerCount: 2
Fore
SplineSet
-126 -2 m 1
 -126 140 l 1
 26 140 l 1
 26 -2 l 1
 -126 -2 l 1
EndSplineSet
EndChar

StartChar: uni0328
Encoding: 808 808 143
Width: 0
VWidth: 0
GlyphClass: 4
Flags: HW
HStem: -68 75<-33.6663 21> 114 75<-33.6663 21>
VStem: -121 75<18.0713 102.495>
LayerCount: 2
Fore
SplineSet
21 -68 m 1
 17 -68 12 -68 8 -68 c 0
 -64 -68 -121 -11 -121 60 c 0
 -121 132 -64 189 8 189 c 0
 12 189 17 189 21 189 c 1
 21 112 l 1
 17 113 12 114 8 114 c 0
 -22 114 -46 90 -46 60 c 0
 -46 30 -22 7 8 7 c 0
 12 7 17 8 21 9 c 1
 21 -68 l 1
EndSplineSet
EndChar

StartChar: uni0327
Encoding: 807 807 144
Width: 0
VWidth: 0
GlyphClass: 4
Flags: HW
HStem: -68 77<-121 -63.343> 114 75<-121 -66.3337>
VStem: -54 75<18.0713 102.495>
LayerCount: 2
Fore
SplineSet
-121 -68 m 1
 -121 9 l 1
 -117 8 -112 7 -108 7 c 0
 -78 7 -54 30 -54 60 c 0
 -54 90 -78 114 -108 114 c 0
 -112 114 -117 113 -121 112 c 1
 -121 189 l 1
 -117 189 -112 189 -108 189 c 0
 -36 189 21 132 21 60 c 0
 21 -11 -36 -68 -108 -68 c 0
 -112 -68 -117 -68 -121 -68 c 1
EndSplineSet
EndChar

StartChar: dotlessi
Encoding: 305 305 145
Width: 252
VWidth: 0
Flags: HW
HStem: -2 21G<0 152> 492 20G<0 152>
VStem: 0 152<-2 512>
LayerCount: 2
Fore
SplineSet
0 512 m 1
 152 512 l 1
 152 -2 l 1
 0 -2 l 1
 0 512 l 1
EndSplineSet
EndChar

StartChar: uni0313
Encoding: 787 787 292
Width: 0
VWidth: 400
GlyphClass: 4
Flags: HW
HStem: 266 274<-83.2324 -30.8182>
VStem: -126 152<398 540>
LayerCount: 2
Fore
SplineSet
-126 398 m 1
 -126 540 l 1
 26 540 l 1
 26 398 l 1
 -34 266 l 1
 -92 270 l 1
 -83.232421875 398 l 1
 -126 398 l 1
EndSplineSet
EndChar

StartChar: uni0312
Encoding: 786 786 293
Width: 0
VWidth: 400
GlyphClass: 4
Flags: HW
HStem: 266 274<-69.1818 -16.7676>
VStem: -126 152<266 408>
LayerCount: 2
Fore
SplineSet
26 408 m 1
 26 266 l 1
 -126 266 l 1
 -126 408 l 1
 -66 540 l 1
 -8 536 l 1
 -16.767578125 408 l 1
 26 408 l 1
EndSplineSet
EndChar

StartChar: uni0326
Encoding: 806 806 297
Width: 0
VWidth: 100
GlyphClass: 4
Flags: HW
HStem: -34 274<-83.2324 -30.8182>
VStem: -126 152<98 240>
LayerCount: 2
Fore
SplineSet
-126 98 m 1
 -126 240 l 1
 26 240 l 1
 26 98 l 1
 -34 -34 l 1
 -92 -30 l 1
 -83.232421875 98 l 1
 -126 98 l 1
EndSplineSet
EndChar

StartChar: multiply
Encoding: 215 215 308
Width: 724
VWidth: 200
Flags: HW
HStem: 199 20G<18.4269 179 431.563 624> 693 20G<17.4369 186 430.573 623>
LayerCount: 2
Fore
SplineSet
0 713 m 1
 186 711 l 1
 315.491210938 559.926757812 l 1
 448 712 l 1
 623 711 l 1
 402.584960938 458.317382812 l 1
 624 200 l 1
 449 198 l 1
 312.291015625 354.8046875 l 1
 179 202 l 1
 1 199 l 1
 224.5 455.5 l 1
 0 713 l 1
EndSplineSet
EndChar

StartChar: periodcentered
Encoding: 183 183 309
Width: 252
VWidth: 400
Flags: HW
HStem: 398 142<0 152>
VStem: 0 152<398 540>
LayerCount: 2
Fore
SplineSet
0 398 m 1
 0 540 l 1
 152 540 l 1
 152 398 l 1
 0 398 l 1
EndSplineSet
EndChar

StartChar: registered
Encoding: 174 174 310
Width: 864
VWidth: 0
Flags: HW
LayerCount: 2
Fore
SplineSet
616.760742188 378.5546875 m 0
 616.760742188 510.799804688 512.1953125 618.44140625 382 618.44140625 c 0
 251.8046875 618.44140625 147.239257812 510.799804688 147.239257812 378.5546875 c 0
 147.239257812 245.284179688 251.8046875 137.642578125 382 137.642578125 c 0
 512.1953125 137.642578125 616.760742188 245.284179688 616.760742188 378.5546875 c 0
660.477539062 379.865234375 m 0
 660.477539062 220.942382812 535.819335938 92.638671875 382 92.638671875 c 0
 228.180664062 92.638671875 103.522460938 220.942382812 103.522460938 379.865234375 c 0
 103.522460938 538.057617188 228.180664062 666.361328125 382 666.361328125 c 0
 535.819335938 666.361328125 660.477539062 538.057617188 660.477539062 379.865234375 c 0
345.185546875 245.545898438 m 1
 289.78125 245.545898438 l 1
 289.78125 528.3984375 l 1
 345.185546875 528.3984375 l 2
 348.1015625 528.762695312 351.017578125 528.762695312 353.932617188 528.762695312 c 0
 406.057617188 528.762695312 447.974609375 486.845703125 447.974609375 435.0859375 c 0
 447.974609375 394.137695312 422.103515625 359.48828125 385.73828125 346.512695312 c 1
 458.1796875 243.359375 l 1
 407.150390625 243.359375 l 1
 346.977539062 341.228515625 l 2
 346.37890625 341.275390625 345.783203125 341.334960938 345.185546875 341.409179688 c 1
 345.185546875 245.545898438 l 1
345.185546875 472.629882812 m 2
 345.185546875 397.178710938 l 2
 348.1015625 396.44921875 351.017578125 396.083984375 353.932617188 396.083984375 c 0
 375.802734375 396.083984375 392.935546875 413.216796875 392.935546875 435.0859375 c 0
 392.935546875 456.591796875 375.802734375 473.72265625 353.932617188 473.72265625 c 0
 351.017578125 473.72265625 348.1015625 473.358398438 345.185546875 472.629882812 c 2
EndSplineSet
EndChar

StartChar: copyright
Encoding: 169 169 311
Width: 864
VWidth: 0
Flags: HW
LayerCount: 2
Fore
SplineSet
675.451171875 378.318359375 m 0
 675.451171875 543.625 544.744140625 678.176757812 382 678.176757812 c 0
 219.255859375 678.176757812 88.548828125 543.625 88.548828125 378.318359375 c 0
 88.548828125 211.73046875 219.255859375 77.177734375 382 77.177734375 c 0
 544.744140625 77.177734375 675.451171875 211.73046875 675.451171875 378.318359375 c 0
730.096679688 379.95703125 m 0
 730.096679688 181.302734375 574.274414062 20.923828125 382 20.923828125 c 0
 189.725585938 20.923828125 33.9033203125 181.302734375 33.9033203125 379.95703125 c 0
 33.9033203125 577.697265625 189.725585938 738.076171875 382 738.076171875 c 0
 574.274414062 738.076171875 730.096679688 577.697265625 730.096679688 379.95703125 c 0
443.25 195.623046875 m 1
 437.904296875 195.086914062 432.483398438 194.8125 427 194.8125 c 0
 337.625 194.8125 265.75 266.6875 265.75 355.4375 c 0
 265.75 444.8125 337.625 516.6875 427 516.6875 c 0
 432.483398438 516.6875 437.904296875 516.413085938 443.25 515.876953125 c 1
 443.25 420.353515625 l 1
 438.045898438 421.634765625 432.6015625 422.3125 427 422.3125 c 0
 389.5 422.3125 360.125 392.9375 360.125 355.4375 c 0
 360.125 318.5625 389.5 289.1875 427 289.1875 c 0
 432.6015625 289.1875 438.045898438 289.865234375 443.25 291.145507812 c 1
 443.25 195.623046875 l 1
EndSplineSet
EndChar

StartChar: brokenbar
Encoding: 166 166 312
Width: 252
VWidth: 0
Flags: HW
HStem: -2 21G<0 152> 492 20G<0 152> 630 142<0 152>
VStem: 0 152<-2 512 630 772>
LayerCount: 2
Fore
SplineSet
152 833 m 1
 152 459 l 1
 0 459 l 1
 0 833 l 1
 152 833 l 1
152 370 m 1
 152 -30 l 1
 0 -30 l 1
 0 370 l 1
 152 370 l 1
EndSplineSet
EndChar

StartChar: section
Encoding: 167 167 313
Width: 512
VWidth: 0
Flags: HW
LayerCount: 2
Fore
SplineSet
-75 108 m 1
 0 233 l 1
 6 228 12 223 22 218 c 0
 73 188 137 205 167 253 c 0
 199 309 149 357 97 366 c 1
 -29 434 -113 549 -29 690 c 0
 -2.7607421875 733.482421875 35.703125 766.145507812 80.123046875 786.461914062 c 1
 16.1708984375 852.720703125 -8.3544921875 939.369140625 51 1039 c 0
 121 1155 278 1194 403 1127 c 0
 409 1121 417 1118 424 1112 c 1
 349 987 l 1
 343 992 337 997 327 1002 c 0
 276 1030 212 1014 182 965 c 0
 149 910 182 829 246 818 c 1
 260.34765625 810.274414062 274.423828125 802.217773438 287.923828125 793.76953125 c 0
 299.82421875 789.388671875 311.545898438 784.139648438 323 778 c 0
 329 772 337 769 344 763 c 1
 339.928710938 756.21484375 l 1
 405.184570312 700.543945312 437.126953125 629.032226562 377 530 c 0
 345.942382812 477.336914062 297.055664062 440.4765625 241.283203125 422.063476562 c 1
 318.58984375 364.361328125 362.611328125 289.06640625 297 181 c 0
 228 64 71 25 -54 93 c 0
 -60 99 -68 102 -75 108 c 1
89.2490234375 574.6796875 m 0
 92.80859375 572.120117188 96.8798828125 569.559570312 102 567 c 0
 153 537 217 554 247 602 c 0
 256.247070312 618.18359375 258.647460938 633.698242188 256.12890625 647.796875 c 0
 253.456054688 649.53125 250.46875 651.265625 247 653 c 0
 196 681 132 665 102 616 c 0
 94.3369140625 603.227539062 90.232421875 589.053710938 89.2490234375 574.6796875 c 0
EndSplineSet
EndChar

StartChar: paragraph
Encoding: 182 182 314
Width: 776
VWidth: 0
Flags: HW
HStem: 265 151<193.471 282> 629 150<193.591 281.625>
VStem: 282 152<3 266 416.026 628.974> 0 151<458.471 586.934>
LayerCount: 2
Fore
SplineSet
282 3 m 1
 282 266 l 1
 274 265 266 265 258 265 c 0
 115 265 0 380 0 523 c 0
 0 665 115 780 258 780 c 0
 266 780 274 780 282 779 c 2
 434 779 l 1
 434 3 l 1
 282 3 l 1
500 774 m 1
 652 774 l 1
 652 -2 l 1
 500 -2 l 1
 500 774 l 1
EndSplineSet
EndChar

StartChar: Thorn
Encoding: 222 222 315
Width: 512
VWidth: 0
Flags: HW
HStem: -202 21G<0 152> -5 151<152 240.529> 359 150<152.375 240.409>
VStem: 0 152<-202 -4 146.026 358.974> 283 151<188.471 316.934>
LayerCount: 2
Fore
SplineSet
152 561 m 1
 152 354 l 1
 160 352 168 351 176 351 c 0
 236 351 283 398 283 458 c 0
 283 517 236 564 176 564 c 0
 168 564 160 563 152 561 c 1
152 3 m 1
 0 3 l 1
 0 903 l 1
 147 903 l 1
 152 714 l 1
 160 715 168 715 176 715 c 0
 319 715 434 600 434 458 c 0
 434 315 319 200 176 200 c 0
 168 200 160 200 152 201 c 1
 152 3 l 1
EndSplineSet
EndChar

StartChar: germandbls
Encoding: 223 223 316
Width: 771
VWidth: 0
Flags: HW
LayerCount: 2
Fore
SplineSet
188.615234375 47 m 1
 255.615234375 159 l 1
 261.615234375 153 268.615234375 150 277.615234375 147 c 0
 330.615234375 123 374.615234375 131 400.615234375 162 c 0
 429.615234375 196 378.615234375 202 324.615234375 211 c 1
 196.615234375 262 125.615234375 345 200.615234375 434 c 0
 261.99609375 508.046875 306.811523438 598.086914062 431.775390625 549.022460938 c 0
 432.515625 549.0078125 433.256835938 549 434 549 c 0
 494 549 541 596 541 656 c 0
 541 720.255859375 165.541992188 732.190429688 123 683 c 1
 123 2 l 1
 -44 2 l 1
 -41 684 l 1
 -25 739.333007812 5.3330078125 784.333007812 50 819 c 0
 189.345703125 927.1484375 692 856.984375 692 656 c 0
 692 283.000976562 490.864257812 537.412109375 375.615234375 400 c 0
 345.615234375 365 342.615234375 286 406.615234375 275 c 1
 525.615234375 225 628.615234375 164 552.615234375 75 c 0
 490.615234375 -1 337.615234375 -21 210.615234375 34 c 0
 203.615234375 36 196.615234375 41 188.615234375 47 c 1
EndSplineSet
EndChar

StartChar: thorn
Encoding: 254 254 317
Width: 512
VWidth: 0
Flags: HW
HStem: -202 21G<0 152> -5 151<152 240.529> 359 150<152.375 240.409>
VStem: 0 152<-202 -4 146.026 358.974> 283 151<188.471 316.934>
LayerCount: 2
Fore
SplineSet
152 359 m 1
 152 152 l 1
 160 150 168 149 176 149 c 0
 236 149 283 196 283 256 c 0
 283 315 236 362 176 362 c 0
 168 362 160 361 152 359 c 1
152 -199 m 1
 0 -199 l 1
 0 701 l 1
 147 701 l 1
 152 512 l 1
 160 513 168 513 176 513 c 0
 319 513 434 398 434 256 c 0
 434 113 319 -2 176 -2 c 0
 168 -2 160 -2 152 -1 c 1
 152 -199 l 1
EndSplineSet
EndChar

StartChar: AE
Encoding: 198 198 318
Width: 1024
VWidth: 0
Flags: HW
HStem: -3 152<508 923> 333 152<508 815> 626 152<508 923>
VStem: 356 568<-3 149 626 778> 356 152<149 333 485 626>
LayerCount: 2
Fore
SplineSet
815 485 m 1
 816 333 l 1
 508 333 l 1
 508 149 l 1
 923 149 l 1
 924 -3 l 1
 357 -3 l 1
 356.993164062 -2 l 1
 356 -2 l 1
 356 227 l 1
 211.038085938 227 l 1
 152 0 l 1
 0 0 l 1
 200 778 l 1
 923 778 l 1
 924 626 l 1
 508 626 l 1
 508 485 l 1
 815 485 l 1
356.827148438 367 m 1
 291.200195312 535.223632812 l 1
 247.448242188 367 l 1
 356.827148438 367 l 1
EndSplineSet
EndChar

StartChar: Eth
Encoding: 208 208 319
Width: 690
VWidth: 0
Flags: HW
HStem: -13.9789 157.014<212 297.489> 611.965 161.035<212 303.477>
VStem: 60 152<-14 -13.9789 143.035 611.965> 437 153<282.064 475.736>
LayerCount: 2
Fore
SplineSet
60 768 m 1
 109.62109375 760.911132812 158.3828125 773 208 773 c 0
 419 773 590 597 590 380 c 0
 590 163.37890625 421.157226562 -11.771484375 212 -13.978515625 c 2
 60 -14 l 1
 60 344 l 1
 0 344 l 1
 0 496 l 1
 60 496 l 1
 60 768 l 1
212 143.03515625 m 1
 337.134765625 145.211914062 437 249.368164062 437 378 c 0
 437 505.642578125 337.134765625 609.788085938 212 611.96484375 c 1
 212 496 l 1
 271 496 l 1
 271 344 l 1
 212 344 l 1
 212 143.03515625 l 1
EndSplineSet
EndChar

StartChar: Oslash
Encoding: 216 216 320
Width: 864
VWidth: 0
Flags: HW
HStem: -14 157<287.027 476.973> 612 161<287.027 476.973>
VStem: 0 153<278.712 478.774> 611 153<278.712 478.774>
LayerCount: 2
Fore
SplineSet
548.806640625 538.438476562 m 1
 324.731445312 150.348632812 l 1
 343.01953125 145.55078125 362.206054688 143 382 143 c 0
 509 143 611 248 611 378 c 0
 611 440.03125 587.415039062 496.51171875 548.806640625 538.438476562 c 1
444.91796875 603.094726562 m 1
 424.9453125 608.89453125 403.842773438 612 382 612 c 0
 255 612 153 507 153 378 c 0
 153 313.299804688 178.265625 254.791992188 219.302734375 212.33984375 c 1
 444.91796875 603.094726562 l 1
764 380 m 0
 764 162 593 -14 382 -14 c 0
 333.677734375 -14 287.452148438 -4.7685546875 244.899414062 12.0830078125 c 1
 190 -83 l 1
 84 -22 l 1
 140.001953125 74.9931640625 l 1
 54.53125 147.181640625 0 256.893554688 0 380 c 0
 0 597 171 773 382 773 c 0
 433.051757812 773 481.76171875 762.697265625 526.275390625 744.002929688 c 1
 569 818 l 1
 675 757 l 1
 629.946289062 678.96875 l 1
 711.991210938 606.87890625 764 499.674804688 764 380 c 0
EndSplineSet
EndChar

StartChar: ae
Encoding: 230 230 321
Width: 905
VWidth: 0
Flags: HW
HStem: 3 151<481.073 794.239> 205.32 128.941<468.301 625.264> 367 151<480.682 610.767>
VStem: 288 517<208.188 330.811>
LayerCount: 2
Fore
SplineSet
804 260 m 0
 804 241.328125 805 223 805 208 c 1
 457.985351562 205.3203125 l 1
 476.489257812 174.45703125 506.416015625 154 546 154 c 0
 560.516601562 154 782 157 795 162 c 1
 795 6 l 1
 782 4 559.946289062 3 546 3 c 0
 513.931640625 3 483.271484375 8.783203125 455 19.357421875 c 1
 282 1 l 1
 282 9 l 1
 274 8 266 8 258 8 c 0
 115 8 0 123 0 266 c 0
 0 408 115 515 258 515 c 0
 266 515 274 515 282 514 c 2
 455 514 l 1
 546 518 l 1
 688 518 804 403 804 260 c 0
282 369 m 1
 274 371 266 372 258 372 c 0
 198 372 151 325 151 266 c 0
 151 206 198 159 258 159 c 0
 266 159 274 160 282 162 c 1
 282 369 l 1
452.680664062 296.67578125 m 1
 644.883789062 294.1015625 l 1
 620.395507812 320.966796875 585.046875 375.099609375 545.8046875 375.099609375 c 0
 507.188476562 375.099609375 476.879882812 322.025390625 452.680664062 296.67578125 c 1
EndSplineSet
EndChar

StartChar: eth
Encoding: 240 240 322
Width: 612
VWidth: 0
Flags: HW
HStem: 3 151<192.454 282> 367 151<193.471 282>
VStem: 0 151<196.066 324.529> 282 152<4 4.10351 154.011 366.989 516.896 780>
LayerCount: 2
Fore
SplineSet
85 780 m 1
 237 780 l 1
 241.977539062 775.721679688 246.989257812 771.3984375 252.025390625 767.025390625 c 1
 290 805 l 1
 377 729 l 1
 336.727539062 688.727539062 l 1
 480.248046875 544.008789062 595.58203125 342.99609375 434 4 c 1
 282 4 l 1
 282 4.103515625 l 1
 274.095703125 3.373046875 266.08984375 3 258 3 c 0
 115 3 0 118 0 260 c 0
 0 403 115 518 258 518 c 0
 266.08984375 518 274.095703125 517.626953125 282 516.896484375 c 1
 231.860351562 583.860351562 l 1
 195 547 l 1
 108 623 l 1
 162.069335938 677.069335938 l 1
 85 780 l 1
259.955078125 366.982421875 m 0
 251.641601562 366.842773438 243.393554688 365.848632812 236 364 c 1
 236 364.828125 l 1
 186.8984375 354.9453125 151 312.4375 151 260 c 0
 151 208.436523438 186.8984375 166.0390625 236 156.169921875 c 1
 236 157 l 1
 243.393554688 155.151367188 251.641601562 154.157226562 259.955078125 154.017578125 c 0
 268.23046875 154.163085938 276.280273438 155.234375 284 157.131835938 c 1
 284 156.169921875 l 1
 333.1015625 166.0390625 369 208.436523438 369 260 c 0
 369 312.4375 333.1015625 354.9453125 284 364.828125 c 1
 284 363.864257812 l 1
 276.280273438 365.765625 268.23046875 366.836914062 259.955078125 366.982421875 c 0
EndSplineSet
EndChar

StartChar: divide
Encoding: 247 247 323
Width: 644
VWidth: 0
Flags: HW
HStem: -2 142<0 152> 398 142<0 152>
VStem: 0 152<-2 140 398 540>
LayerCount: 2
Fore
SplineSet
200 151 m 1
 200 293 l 1
 352 293 l 1
 352 151 l 1
 200 151 l 1
200 551 m 1
 200 693 l 1
 352 693 l 1
 352 551 l 1
 200 551 l 1
544 496 m 1
 544 344 l 1
 0 344 l 1
 0 496 l 1
 544 496 l 1
EndSplineSet
EndChar

StartChar: oslash
Encoding: 248 248 324
Width: 616
VWidth: 0
Flags: HW
HStem: 3 21G<257.408 258.151 261.478 333.5> 498 20G<257.408 258.151 261.478 333.5>
VStem: 0 151<197.14 323.449> 369 151<195.844 324.753>
LayerCount: 2
Fore
SplineSet
273.872070312 155.151367188 m 1
 277.303710938 155.653320312 280.682617188 156.31640625 284 157.131835938 c 1
 284 156.169921875 l 1
 333.1015625 166.0390625 369 208.436523438 369 260 c 0
 369 275.224609375 365.973632812 289.612304688 360.477539062 302.607421875 c 1
 273.872070312 155.151367188 l 1
256.393554688 366.870117188 m 1
 249.299804688 366.541015625 242.3359375 365.583984375 236 364 c 1
 236 364.828125 l 1
 186.8984375 354.9453125 151 312.4375 151 260 c 0
 151 241.526367188 155.607421875 224.229492188 163.780273438 209.182617188 c 1
 256.393554688 366.870117188 l 1
0 260 m 0
 0 400.959960938 111.197265625 518 258 518 c 0
 258.301757812 518 258.603515625 517.999023438 258.905273438 517.998046875 c 0
 259.92578125 518 260.956054688 518 262 518 c 0
 288.643554688 518 314.315429688 514.0078125 338.452148438 506.5859375 c 1
 408 625 l 1
 514 564 l 1
 443.41796875 443.82421875 l 1
 490.752929688 397.109375 520 332.115234375 520 260 c 0
 520 118 405 3 262 3 c 0
 260.956054688 3 259.92578125 3.001953125 258.90625 3.001953125 c 0
 258.603515625 3.001953125 258.301757812 3 258 3 c 0
 232.426757812 3 211.399414062 6.169921875 189.807617188 12.0205078125 c 1
 134 -83 l 1
 28 -22 l 1
 82.7353515625 71.1943359375 l 1
 31.7939453125 118.135742188 0 185.3359375 0 260 c 0
EndSplineSet
EndChar

StartChar: dcaron
Encoding: 271 271 326
Width: 710
VWidth: 0
Flags: HW
HStem: 3 151<192.454 282> 367 151<193.471 282>
VStem: 0 151<196.066 324.529> 282 152<4 4.10351 154.011 366.989 516.896 780>
LayerCount: 2
Fore
SplineSet
282 156.66015625 m 1
 282 364.336914062 l 1
 274.282226562 366.081054688 266.249023438 367 258 367 c 0
 198 367 151 320 151 260 c 0
 151 201 198 154 258 154 c 0
 266.249023438 154 274.282226562 154.918945312 282 156.66015625 c 1
282 780 m 1
 434 780 l 1
 434 4 l 1
 282 4 l 1
 282 4.103515625 l 1
 274.095703125 3.373046875 266.08984375 3 258 3 c 0
 115 3 0 118 0 260 c 0
 0 403 115 518 258 518 c 0
 266.08984375 518 274.095703125 517.626953125 282 516.896484375 c 1
 282 780 l 1
466 532 m 1
 466 789 l 1
 618 789 l 1
 573 532 l 1
 466 532 l 1
EndSplineSet
EndChar

StartChar: dcroat
Encoding: 273 273 327
Width: 585
VWidth: 0
Flags: HW
HStem: 3 151<192.454 282> 367 151<193.471 282>
VStem: 0 151<196.066 324.529> 282 152<4 4.10351 154.011 366.989 516.896 780>
LayerCount: 2
Fore
SplineSet
282 156.66015625 m 1
 282 364.336914062 l 1
 274.282226562 366.081054688 266.249023438 367 258 367 c 0
 198 367 151 320 151 260 c 0
 151 201 198 154 258 154 c 0
 266.249023438 154 274.282226562 154.918945312 282 156.66015625 c 1
282 780 m 1
 434 780 l 1
 434 739 l 1
 485 739 l 1
 485 587 l 1
 434 587 l 1
 434 4 l 1
 282 4 l 1
 282 4.103515625 l 1
 274.095703125 3.373046875 266.08984375 3 258 3 c 0
 115 3 0 118 0 260 c 0
 0 403 115 518 258 518 c 0
 266.08984375 518 274.095703125 517.626953125 282 516.896484375 c 1
 282 587 l 1
 214 587 l 1
 214 739 l 1
 282 739 l 1
 282 780 l 1
EndSplineSet
EndChar

StartChar: Hbar
Encoding: 294 294 328
Width: 652
VWidth: 0
Flags: HW
HStem: -2 21G<0 152 400 552> 333 152<152 400> 754 20G<0 152 400 552>
VStem: 0 152<-2 333 485 774> 400 152<-2 333 485 774>
LayerCount: 2
Fore
SplineSet
152 561 m 1
 152 485 l 1
 400 485 l 1
 400 561 l 1
 152 561 l 1
400 774 m 1
 552 774 l 1
 552 713 l 1
 597 713 l 1
 597 561 l 1
 552 561 l 1
 552 -2 l 1
 400 -2 l 1
 400 333 l 1
 152 333 l 1
 152 -2 l 1
 0 -2 l 1
 0 561 l 1
 -50 561 l 1
 -50 713 l 1
 0 713 l 1
 0 774 l 1
 152 774 l 1
 152 713 l 1
 400 713 l 1
 400 774 l 1
EndSplineSet
EndChar

StartChar: hbar
Encoding: 295 295 329
Width: 658
VWidth: 0
Flags: HW
HStem: 644 152<11 555>
LayerCount: 2
Fore
SplineSet
288 731 m 1
 288 579 l 1
 230 579 l 1
 230 512 l 1
 256 520 282 524 310 524 c 0
 428 524 524 446 555 337 c 1
 558 6 l 1
 391 6 l 1
 391 336 l 1
 371 359 343 373 310 373 c 0
 278 373 250 360 230 338 c 1
 230 6 l 1
 61 6 l 1
 61 579 l 1
 0 579 l 1
 0 731 l 1
 61 731 l 1
 61 768 l 1
 230 768 l 1
 230 731 l 1
 288 731 l 1
EndSplineSet
EndChar

StartChar: lcaron
Encoding: 318 318 332
Width: 419
VWidth: 0
Flags: HW
HStem: -3 151<183.008 313.885> 741 20G<0 167>
VStem: 3 164<166.215 761>
LayerCount: 2
Fore
SplineSet
319 6 m 1
 296.333007812 0 272.666992188 -3 248 -3 c 0
 190 -3 138.666992188 14.3330078125 94 49 c 0
 49.3330078125 83.6669921875 19 128.666992188 3 184 c 1
 0 761 l 1
 167 761 l 1
 167 185 l 1
 188.333007812 160.333007812 215.333007812 148 248 148 c 0
 274.666992188 148 298.333007812 156.666992188 319 174 c 1
 319 6 l 1
210 504 m 1
 210 761 l 1
 362 761 l 1
 317 504 l 1
 210 504 l 1
EndSplineSet
EndChar

StartChar: Lslash
Encoding: 321 321 333
Width: 718
VWidth: 0
Flags: HW
HStem: -3 152<152 617> 754 20G<0 152>
VStem: 0 152<149 774>
LayerCount: 2
Fore
SplineSet
0 774 m 1
 152 774 l 1
 152 149 l 1
 617 149 l 1
 618 -3 l 1
 1 -3 l 1
 0.9931640625 -2 l 1
 0 -2 l 1
 0 774 l 1
EndSplineSet
EndChar

StartChar: Lcaron
Encoding: 317 317 334
Width: 718
VWidth: 0
Flags: HW
HStem: -3 152<152 617> 754 20G<0 152>
VStem: 0 152<149 774>
LayerCount: 2
Fore
SplineSet
0 774 m 1
 152 774 l 1
 152 149 l 1
 617 149 l 1
 618 -3 l 1
 1 -3 l 1
 0.9931640625 -2 l 1
 0 -2 l 1
 0 774 l 1
202 520 m 1
 202 777 l 1
 354 777 l 1
 309 520 l 1
 202 520 l 1
EndSplineSet
EndChar

StartChar: lslash
Encoding: 322 322 335
Width: 419
VWidth: 0
Flags: HW
HStem: -3 151<183.008 313.885> 741 20G<0 167>
VStem: 3 164<166.215 761>
LayerCount: 2
Fore
SplineSet
319 6 m 1
 296.333007812 0 272.666992188 -3 248 -3 c 0
 190 -3 138.666992188 14.3330078125 94 49 c 0
 49.3330078125 83.6669921875 19 128.666992188 3 184 c 1
 0 761 l 1
 167 761 l 1
 167 185 l 1
 188.333007812 160.333007812 215.333007812 148 248 148 c 0
 274.666992188 148 298.333007812 156.666992188 319 174 c 1
 319 6 l 1
EndSplineSet
EndChar

StartChar: OE
Encoding: 338 338 336
Width: 1068
VWidth: 0
Flags: HW
HStem: -3 152<552 967> 333 152<552 859> 626 152<552 967>
VStem: 400 568<-3 149 626 778> 400 152<149 333 485 626>
LayerCount: 2
Fore
SplineSet
382 612 m 0
 255 612 153 507 153 378 c 0
 153 248 255 143 382 143 c 0
 388.059570312 143 394.0625 143.239257812 400 143.708007812 c 1
 400 611.291992188 l 1
 394.0625 611.760742188 388.059570312 612 382 612 c 0
859 485 m 1
 860 333 l 1
 552 333 l 1
 552 149 l 1
 967 149 l 1
 968 -3 l 1
 455 -3 l 1
 455 -6.830078125 l 1
 431.37109375 -11.5361328125 406.965820312 -14 382 -14 c 0
 171 -14 0 162 0 380 c 0
 0 597 171 773 382 773 c 0
 388.034179688 773 394.03515625 772.856445312 400 772.571289062 c 1
 400 774 l 1
 400 778 l 1
 967 778 l 1
 968 626 l 1
 552 626 l 1
 552 485 l 1
 859 485 l 1
EndSplineSet
EndChar

StartChar: oe
Encoding: 339 339 337
Width: 1000
VWidth: 0
Flags: HW
LayerCount: 2
Fore
SplineSet
258.90625 3.001953125 m 0
 258.603515625 3.001953125 258.301757812 3 258 3 c 0
 256.815429688 3 255.631835938 3.0078125 254.451171875 3.0234375 c 0
 249.662109375 3.0693359375 245.004882812 3.205078125 240.133789062 3.6025390625 c 0
 105.541992188 12.708984375 0 123.96484375 0 260 c 0
 0 396.991210938 105.5390625 508.286132812 240.12890625 517.397460938 c 0
 245.001953125 517.794921875 249.66015625 517.930664062 254.451171875 517.9765625 c 0
 255.631835938 517.9921875 256.815429688 518 258 518 c 0
 258.301757812 518 258.603515625 517.999023438 258.905273438 517.998046875 c 0
 259.92578125 518 260.956054688 518 262 518 c 0
 336.818359375 518 403.971679688 486.51953125 451 436.018554688 c 1
 498.028320312 486.51953125 565.181640625 518 640 518 c 0
 782 518 898 403 898 260 c 0
 898 241.328125 899 223 899 208 c 1
 547.985351562 205.3203125 l 1
 566.489257812 174.45703125 600.416015625 154 640 154 c 0
 654.516601562 154 876 157 889 162 c 1
 889 6 l 1
 876 4 653.946289062 3 640 3 c 0
 565.181640625 3 498.028320312 34.48046875 451 84.837890625 c 1
 403.971679688 34.48046875 336.818359375 3 262 3 c 0
 260.956054688 3 259.92578125 3.001953125 258.90625 3.001953125 c 0
542.680664062 296.67578125 m 1
 738.883789062 294.1015625 l 1
 714.395507812 320.966796875 679.046875 375.099609375 639.8046875 375.099609375 c 0
 601.188476562 375.099609375 566.879882812 322.025390625 542.680664062 296.67578125 c 1
259.955078125 366.982421875 m 0
 251.641601562 366.842773438 243.393554688 365.848632812 236 364 c 1
 236 364.828125 l 1
 186.8984375 354.9453125 151 312.4375 151 260 c 0
 151 208.436523438 186.8984375 166.0390625 236 156.169921875 c 1
 236 157 l 1
 243.393554688 155.151367188 251.641601562 154.157226562 259.955078125 154.017578125 c 0
 268.23046875 154.163085938 276.280273438 155.234375 284 157.131835938 c 1
 284 156.169921875 l 1
 333.1015625 166.0390625 369 208.436523438 369 260 c 0
 369 312.4375 333.1015625 354.9453125 284 364.828125 c 1
 284 363.864257812 l 1
 276.280273438 365.765625 268.23046875 366.836914062 259.955078125 366.982421875 c 0
EndSplineSet
EndChar

StartChar: tcaron
Encoding: 357 357 338
Width: 630
VWidth: 0
Flags: HW
HStem: -3 151<278.285 409.024> 364 152<0 96.274 262 359> 741 20G<95 262>
VStem: 96.274 165.726<168.881 364 516 761>
LayerCount: 2
Fore
SplineSet
414 6 m 1
 391 0 368 -3 343 -3 c 0
 225 -3 129 75 98 184 c 1
 97.064453125 364 l 1
 0 364 l 1
 0 516 l 1
 96.2734375 516 l 1
 95 761 l 1
 262 761 l 1
 262 516 l 1
 359 516 l 1
 359 364 l 1
 262 364 l 1
 262 185 l 1
 282 162 310 148 343 148 c 0
 370 148 395 158 414 174 c 1
 414 6 l 1
391 504 m 1
 391 761 l 1
 543 761 l 1
 498 504 l 1
 391 504 l 1
EndSplineSet
EndChar

StartChar: uni0237
Encoding: 567 567 343
Width: 419
VWidth: 0
Flags: HW
HStem: -204 151<5.4451 135.159> 497 20G<152 319> 630 142<164 316>
VStem: 152 164<-32.1189 517> 164 152<630 772>
LayerCount: 2
Fore
SplineSet
0 -195 m 1
 0 -27 l 1
 19 -43 44 -53 71 -53 c 0
 104 -53 132 -39 152 -16 c 1
 152 517 l 1
 319 517 l 1
 316 -17 l 1
 285 -126 189 -204 71 -204 c 0
 46 -204 23 -201 0 -195 c 1
EndSplineSet
EndChar

StartChar: uni1E9E
Encoding: 7838 7838 359
Width: 771
VWidth: 0
Flags: HW
LayerCount: 2
Fore
SplineSet
188.615234375 47 m 1
 255.615234375 159 l 1
 261.615234375 153 268.615234375 150 277.615234375 147 c 0
 330.615234375 123 374.615234375 131 400.615234375 162 c 0
 429.615234375 196 378.615234375 202 324.615234375 211 c 1
 196.615234375 262 125.615234375 440 200.615234375 529 c 0
 261.99609375 603.046875 306.811523438 693.086914062 431.775390625 644.022460938 c 0
 432.515625 644.0078125 433.256835938 644 434 644 c 0
 494 644 541 596 541 656 c 0
 541 720.255859375 165.541992188 732.190429688 123 683 c 1
 123 2 l 1
 -44 2 l 1
 -41 684 l 1
 -25 739.333007812 5.3330078125 784.333007812 50 819 c 0
 189.345703125 927.1484375 692 856.984375 692 656 c 0
 692 283.000976562 490.864257812 632.412109375 375.615234375 495 c 0
 345.615234375 460 342.615234375 381 406.615234375 370 c 1
 525.615234375 320 628.615234375 164 552.615234375 75 c 0
 490.615234375 -1 337.615234375 -21 210.615234375 34 c 0
 203.615234375 36 196.615234375 41 188.615234375 47 c 1
EndSplineSet
EndChar

StartChar: uni0982
Encoding: 2434 2434 365
Width: 445
VWidth: 0
Flags: HW
HStem: 82 75<448.188 471.812> 264 75<448.188 471.812> 483 75<143.188 166.812> 665 75<143.188 166.812>
VStem: 25 76<568.334 654.111> 209 76<568.933 653.698> 330 76<167.334 253.111> 514 76<167.933 252.698>
LayerCount: 2
Fore
SplineSet
108 427 m 5
 341 69 l 5
 235 8 l 5
 2 366 l 5
 108 427 l 5
155 665 m 0
 151 665 147 664 143 663 c 1
 143 664 l 1
 118 659 101 637 101 611 c 0
 101 585 118 564 143 559 c 1
 143 560 l 1
 147 559 151 558 155 558 c 0
 159 558 163 559 167 560 c 1
 167 559 l 1
 192 564 209 585 209 611 c 0
 209 637 192 659 167 664 c 1
 167 663 l 1
 163 664 159 665 155 665 c 0
154 483 m 0
 153 483 153 483 152 483 c 0
 150 483 147 483 145 483 c 0
 78 488 25 543 25 611 c 0
 25 679 78 735 145 740 c 0
 147 740 150 740 152 740 c 0
 153 740 153 740 154 740 c 0
 155 740 155 740 156 740 c 0
 228 740 285 683 285 611 c 0
 285 540 228 483 156 483 c 0
 155 483 155 483 154 483 c 0
EndSplineSet
EndChar

StartChar: uni0983
Encoding: 2435 2435 366
Width: 445
VWidth: 0
Flags: HW
LayerCount: 2
Fore
SplineSet
155 665 m 4
 151 665 147 664 143 663 c 5
 143 664 l 5
 118 659 101 637 101 611 c 4
 101 585 118 564 143 559 c 5
 143 560 l 5
 147 559 151 558 155 558 c 4
 159 558 163 559 167 560 c 5
 167 559 l 5
 192 564 209 585 209 611 c 4
 209 637 192 659 167 664 c 5
 167 663 l 5
 163 664 159 665 155 665 c 4
154 483 m 4
 153 483 153 483 152 483 c 4
 150 483 147 483 145 483 c 4
 78 488 25 543 25 611 c 4
 25 679 78 735 145 740 c 4
 147 740 150 740 152 740 c 4
 153 740 153 740 154 740 c 4
 155 740 155 740 156 740 c 4
 228 740 285 683 285 611 c 4
 285 540 228 483 156 483 c 4
 155 483 155 483 154 483 c 4
155 265 m 0
 151 265 147 264 143 263 c 1
 143 264 l 1
 118 259 101 237 101 211 c 0
 101 185 118 164 143 159 c 1
 143 160 l 1
 147 159 151 158 155 158 c 0
 159 158 163 159 167 160 c 1
 167 159 l 1
 192 164 209 185 209 211 c 0
 209 237 192 259 167 264 c 1
 167 263 l 1
 163 264 159 265 155 265 c 0
154 83 m 0
 153 83 153 83 152 83 c 0
 150 83 147 83 145 83 c 0
 78 88 25 143 25 211 c 0
 25 279 78 335 145 340 c 4
 147 340 150 340 152 340 c 4
 153 340 153 340 154 340 c 4
 155 340 155 340 156 340 c 4
 228 340 285 283 285 211 c 0
 285 140 228 83 156 83 c 0
 155 83 155 83 154 83 c 0
EndSplineSet
EndChar

StartChar: uni098A
Encoding: 2442 2442 367
Width: 612
VWidth: 0
Flags: HW
HStem: 3.00195 151.016<188.473 318.671> 366 151.998<254 386> 671 132<-55 386 493.755 561>
LayerCount: 2
Fore
SplineSet
561 803 m 1
 561 671 l 1
 386 671 l 1
 386 483.791992188 l 1
 464.611328125 439.66015625 517.310546875 356.931640625 515 260 c 0
 511.541015625 114.885742188 397.287109375 2.7998046875 253.90625 3.001953125 c 0
 84.0390625 3.240234375 0.1650390625 131.7890625 1.0009765625 261 c 1
 146.00390625 261 l 1
 146.000976562 260.666992188 146 260.333984375 146 260 c 0
 146 199.8828125 191.772460938 155.08203125 254.955078125 154.017578125 c 0
 317.911132812 155.126953125 364 199.63671875 364 260 c 0
 364 316.657226562 324.735351562 359.046875 268.932617188 366 c 1
 254 366 l 1
 254 517.622070312 l 2
 253.96875 517.870117188 253.9375 517.998046875 253.905273438 517.998046875 c 1
 253.936523438 517.998046875 253.96875 517.998046875 254 517.998046875 c 1
 254 671 l 1
 -55 671 l 1
 -55 803 l 1
 244.169921875 803 l 1
 238.783203125 829.090820312 228.6640625 856.108398438 210 875 c 0
 178.591796875 905.81640625 177.884765625 906.5234375 146.771484375 937.635742188 c 0
 100.102539062 984.3046875 41.4130859375 965.212890625 -5.2568359375 1011.88183594 c 0
 -40.611328125 1047.23730469 -46.2685546875 1132.09082031 -46.2685546875 1132.09082031 c 1
 42.1201171875 1220.47851562 l 1
 42.1201171875 1220.47851562 49.8984375 1133.50488281 85.9599609375 1097.44238281 c 0
 131.21484375 1052.1875 188.491210938 1074.10742188 233.74609375 1028.85253906 c 0
 267.686523438 994.912109375 270.515625 992.083007812 304.456054688 958.142578125 c 0
 354.484375 908.114257812 335.005859375 810.403320312 337.690429688 810.356445312 c 1
 330.333984375 803 l 1
 561 803 l 1
EndSplineSet
EndChar

StartChar: uni0990
Encoding: 2448 2448 368
Width: 956
VWidth: 0
Flags: HW
HStem: 610 151<260.445 390.159>
VStem: -47.5 151<182.508 312.889>
LayerCount: 2
Fore
SplineSet
255 752 m 1
 278 758 301 761 326 761 c 0
 444 761 540 683 571 574 c 1
 571.704101562 438.546875 l 1
 601.97265625 427.771484375 649.5234375 413.37109375 686 414 c 0
 708 414 720 432 725 453 c 0
 750.106445312 562.842773438 688.099609375 683.875976562 612.560546875 759.412109375 c 0
 565.891601562 806.081054688 507.202148438 786.989257812 460.532226562 833.658203125 c 0
 425.177734375 869.013671875 419.520507812 953.8671875 419.520507812 953.8671875 c 1
 507.909179688 1042.25488281 l 1
 507.909179688 1042.25488281 515.6875 955.28125 551.749023438 919.21875 c 0
 597.00390625 873.963867188 654.280273438 895.883789062 699.53515625 850.62890625 c 0
 733.475585938 816.688476562 736.3046875 813.859375 770.245117188 779.918945312 c 0
 820.1328125 730.03125 933.61328125 407.951171875 797 342 c 0
 752 321 723 312 674 312 c 0
 642.086914062 312 600.744140625 322.477539062 572.262695312 331.048828125 c 1
 574 -3 l 5
 426.245117188 -4.087890625 287.399414062 3.732421875 139.5 2.5 c 5
 84.1669921875 18.5 39.1669921875 48.8330078125 4.5 93.5 c 0
 -30.1669921875 138.166992188 -47.5 189.5 -47.5 247.5 c 0
 -47.5 272.166992188 -44.5 295.833007812 -38.5 318.5 c 1
 129.5 318.5 l 1
 112.166992188 297.833007812 103.5 274.166992188 103.5 247.5 c 0
 103.5 214.833007812 115.833007812 187.833007812 140.5 166.5 c 1
 407 166.5 l 1
 407 573 l 1
 387 596 359 610 326 610 c 0
 299 610 274 600 255 584 c 1
 255 752 l 1
EndSplineSet
EndChar

StartChar: uni0994
Encoding: 2452 2452 369
Width: 616
VWidth: 0
Flags: HW
HStem: 3.00195 151.016<188.473 318.671> 366 151.998<254 386> 671 132<-55 386 493.755 561>
LayerCount: 2
Fore
SplineSet
237 682 m 0
 230.208007812 681.634765625 181.076171875 677.51953125 175 676 c 1
 177.624023438 676.109375 154.358398438 760.163085938 157 760 c 0
 168.190429688 759.309570312 229.141601562 800.811523438 281 808 c 0
 424.5234375 827.895507812 522.978515625 717.309570312 520 565 c 0
 519.127929688 520.397460938 508.272460938 478.447265625 488.524414062 441.892578125 c 1
 517.556640625 431.0625 571.578125 413.302734375 612 414 c 0
 634 414 646 432 651 453 c 0
 676.106445312 562.842773438 614.099609375 683.875976562 538.560546875 759.412109375 c 0
 491.891601562 806.081054688 433.202148438 786.989257812 386.532226562 833.658203125 c 0
 351.177734375 869.013671875 345.520507812 953.8671875 345.520507812 953.8671875 c 1
 433.909179688 1042.25488281 l 1
 433.909179688 1042.25488281 441.6875 955.28125 477.749023438 919.21875 c 0
 523.00390625 873.963867188 580.280273438 895.883789062 625.53515625 850.62890625 c 0
 659.475585938 816.688476562 662.3046875 813.859375 696.245117188 779.918945312 c 0
 746.1328125 730.03125 859.61328125 407.951171875 723 342 c 0
 678 321 649 312 600 312 c 0
 572.655273438 312 538.38671875 319.692382812 511.21875 327.287109375 c 1
 516.947265625 305.852539062 520 283.297851562 520 260 c 0
 520 118 405 3 262 3 c 0
 260.956054688 3 259.92578125 3.001953125 258.90625 3.001953125 c 0
 258.603515625 3.001953125 258.301757812 3 258 3 c 0
 256.815429688 3 255.631835938 3.0078125 254.451171875 3.0234375 c 0
 249.662109375 3.0693359375 245.004882812 3.205078125 240.133789062 3.6025390625 c 0
 105.541992188 12.708984375 0 123.96484375 0 260 c 0
 0 315.204101562 17.138671875 366.235351562 46.41015625 408.088867188 c 1
 42.798828125 407.602539062 58 412 58 412 c 1
 236.961914062 362.549804688 151 404.8828125 151 260 c 0
 151 199.87890625 196.760742188 155.08203125 259.955078125 154.017578125 c 0
 322.901367188 155.126953125 369 199.640625 369 260 c 0
 369 312.4375 333.1015625 354.9453125 284 364.828125 c 1
 284 363.864257812 l 1
 259.955078125 459.017578125 l 1
 268.23046875 459.163085938 276.280273438 460.234375 284 462.131835938 c 1
 284 461.169921875 l 1
 333.1015625 471.0390625 369 513.436523438 369 565 c 0
 369 643.3203125 315.104492188 686.1953125 237 682 c 0
EndSplineSet
EndChar

StartChar: uni099E
Encoding: 2462 2462 370
Width: 821
VWidth: 0
Flags: HW
HStem: 610 151<260.445 390.159>
VStem: -47.5 151<182.508 312.889>
LayerCount: 2
Fore
SplineSet
-38.5 318.5 m 1
 129.5 318.5 l 1
 112.166992188 297.833007812 103.5 274.166992188 103.5 247.5 c 0
 103.5 214.833007812 115.833007812 187.833007812 140.5 166.5 c 1
 407 166.5 l 1
 407 573 l 1
 387 596 359 610 326 610 c 0
 299 610 274 600 255 584 c 1
 255 752 l 1
 278 758 301 761 326 761 c 0
 437.87890625 761 529.981445312 690.881835938 565.657226562 590.705078125 c 1
 578 596.860351562 594.509765625 604.671875 609.5 606.75 c 0
 681.26171875 616.698242188 730.489257812 561.404296875 729 485.25 c 0
 728.443359375 456.7890625 719.756835938 430.486328125 704.07421875 409.196289062 c 1
 719.756835938 387.833984375 729 361.416992188 729 332.75 c 0
 729 261.75 671.5 204.25 600 204.25 c 0
 599.478515625 204.25 598.962890625 204.250976562 598.453125 204.250976562 c 0
 598.301757812 204.250976562 598.151367188 204.25 598 204.25 c 0
 597.407226562 204.25 596.81640625 204.25390625 596.225585938 204.26171875 c 0
 593.831054688 204.28515625 591.502929688 204.352539062 589.067382812 204.55078125 c 0
 583.578125 204.921875 578.185546875 205.633789062 572.91015625 206.6640625 c 1
 574 -3 l 1
 407 -3 l 1
 407 0.3017578125 l 1
 139.5 2.5 l 1
 84.1669921875 18.5 39.1669921875 48.8330078125 4.5 93.5 c 0
 -30.1669921875 138.166992188 -47.5 189.5 -47.5 247.5 c 0
 -47.5 272.166992188 -44.5 295.833007812 -38.5 318.5 c 1
572.497070312 286.150390625 m 1
 580.201171875 282.196289062 589.168945312 279.923828125 598.977539062 279.758789062 c 0
 630.450195312 280.313476562 653.5 302.5703125 653.5 332.75 c 0
 653.5 358.96875 635.55078125 380.22265625 611 385.1640625 c 1
 611 384.682617188 l 1
 598.977539062 432.258789062 l 1
 603.115234375 432.33203125 607.140625 432.8671875 611 433.81640625 c 1
 611 433.334960938 l 1
 635.55078125 438.26953125 653.5 459.46875 653.5 485.25 c 0
 653.5 524.41015625 626.551757812 545.84765625 587.5 543.75 c 0
 585.744140625 543.655273438 578.334960938 543.060546875 571.1640625 542.40234375 c 1
 572.497070312 286.150390625 l 1
EndSplineSet
EndChar

StartChar: uni099D
Encoding: 2461 2461 371
Width: 944
VWidth: 0
Flags: HW
HStem: 671 132<-50 474 620 673> 671 106<474 620>
VStem: 474 146<1 73.5 225.5 473.5 625.5 777> 474 57.5<73.5 225.5 473.5 473.5>
LayerCount: 2
Fore
SplineSet
620 671 m 1
 620 284.02734375 l 1
 623 287 l 1
 699 211 l 1
 699 671 l 1
 620 671 l 1
894 803 m 1
 894 671 l 1
 851 671 l 1
 851 0 l 1
 699.018554688 -0 l 1
 697 -2 l 1
 620 75 l 1
 620 1 l 1
 475.5 1 l 1
 475.5 0.5 l 1
 20.5 273.5 l 1
 20.5 425.5 l 1
 474 602.995117188 l 1
 474 671 l 1
 -50 671 l 1
 -50 803 l 1
 894 803 l 1
474 153.450195312 m 1
 474 454.072265625 l 1
 164.5 349.5 l 1
 474 153.450195312 l 1
EndSplineSet
EndChar

StartChar: uni099C
Encoding: 2460 2460 372
Width: 616
VWidth: 0
Flags: HW
HStem: 3.00156 151.016<193.473 323.671> 366 151.998<259 391> 671 132<-50 259 391 566> 671 80<259 391>
VStem: 259 132<517.998 751>
LayerCount: 2
Fore
SplineSet
566 803 m 1
 566 671 l 1
 391 671 l 1
 391 483.791992188 l 1
 469.610351562 439.66015625 522.310546875 356.931640625 520 260 c 0
 516.541015625 114.885742188 402.287109375 2.7998046875 258.90625 3.001953125 c 0
 89.0390625 3.240234375 5.1650390625 131.7890625 6.0009765625 261 c 1
 151.00390625 261 l 1
 151.000976562 260.666992188 151 260.333984375 151 260 c 0
 151 199.8828125 196.772460938 155.08203125 259.955078125 154.017578125 c 0
 322.911132812 155.126953125 369 199.63671875 369 260 c 0
 369 316.657226562 329.734375 359.046875 273.932617188 366 c 1
 259 366 l 1
 259 517.624023438 l 2
 258.96875 517.87109375 258.9375 517.998046875 258.905273438 517.998046875 c 1
 258.9375 517.998046875 258.96875 517.998046875 259 517.998046875 c 1
 259 671 l 1
 -50 671 l 1
 -50 803 l 1
 566 803 l 1
EndSplineSet
EndChar

StartChar: uni09A3
Encoding: 2467 2467 373
Width: 613
VWidth: 0
Flags: HW
LayerCount: 2
Fore
SplineSet
361.5 850 m 1
 513.5 850 l 1
 513.5 803 l 1
 561.5 803 l 1
 561.5 671 l 1
 513.5 671 l 1
 513.5 522.630859375 l 2
 514.491210938 513.39453125 515 504.008789062 515 494.5 c 0
 515 485.7265625 514.560546875 477.053710938 513.704101562 468.5 c 1
 513.5 468.5 l 1
 513.5 -2 l 1
 361.5 -2 l 1
 361.5 468.5 l 1
 360.864257812 468.5 l 1
 361.087890625 469.407226562 361.299804688 470.318359375 361.5 471.235351562 c 2
 361.5 518.0703125 l 1
 351.03515625 566.364257812 308.876953125 601.5 257 601.5 c 0
 198 601.5 151 554.5 151 494.5 c 0
 151 485.536132812 152.084960938 476.826171875 154.131835938 468.5 c 1
 1.2958984375 468.5 l 1
 0.4384765625 477.053710938 0 485.7265625 0 494.5 c 0
 0 637.5 115 752.5 257 752.5 c 0
 294.245117188 752.5 329.590820312 744.698242188 361.5 730.633789062 c 1
 361.5 850 l 1
EndSplineSet
EndChar

StartChar: uni0964
Encoding: 2404 2404 374
Width: 252
VWidth: 0
Flags: HW
HStem: -2 21G<0 152> 492 20G<0 152> 630 142<0 152>
VStem: 0 152<-2 512 630 772>
LayerCount: 2
Fore
SplineSet
152 370 m 1
 152 -30 l 1
 0 -30 l 1
 0 370 l 1
 152 370 l 1
EndSplineSet
EndChar

StartChar: uni0981
Encoding: 2433 2433 376
Width: 0
Flags: HW
LayerCount: 2
Fore
SplineSet
-111 658 m 1
 -111 772 l 1
 11 772 l 1
 11 658 l 1
 -111 658 l 1
143 619 m 1
 143 613 143 606 143 600 c 0
 143 492 57 406 -49 406 c 0
 -157 406 -243 492 -243 600 c 0
 -243 606 -243 613 -243 619 c 1
 -127 619 l 1
 -129 613 -130 606 -130 600 c 0
 -130 555 -94 519 -49 519 c 0
 -4 519 30 555 30 600 c 0
 30 606 29 613 27 619 c 1
 143 619 l 1
EndSplineSet
EndChar

StartChar: uni09AD
Encoding: 2477 2477 377
Width: 726
VWidth: 75
Flags: HW
HStem: 4.7002 133.6<255.264 418.805> 513.479 120.821<345.987 417.023> 671 132<-50 676>
VStem: 42.4004 111.399<240.829 328.876> 520.2 133.399<240.829 414.049>
LayerCount: 2
Fore
SplineSet
676 803 m 1
 676 671 l 1
 -50 671 l 1
 -50 803 l 1
 676 803 l 1
345.098632812 617 m 1
 345.987304688 634.29296875 l 2
 346.657226562 634.297851562 347.328125 634.299804688 348 634.299804688 c 0
 383.107421875 634.299804688 416.830078125 628.208984375 448.2265625 617 c 1
 459 617 l 1
 459 612.916992188 l 1
 572.907226562 567.208984375 653.599609375 453.228515625 653.599609375 319.900390625 c 0
 653.599609375 145.5 516.799804688 4.7001953125 348 4.7001953125 c 0
 179.200195312 4.7001953125 42.400390625 145.5 42.400390625 319.900390625 c 0
 42.400390625 320.77734375 153.86328125 330.658203125 153.870117188 331.533203125 c 1
 153.823242188 329.794921875 153.799804688 328.049804688 153.799804688 326.299804688 c 0
 153.799804688 222.299804688 235.400390625 138.299804688 337 138.299804688 c 0
 438.599609375 138.299804688 520.200195312 222.299804688 520.200195312 326.299804688 c 0
 520.200195312 396.395507812 482.5546875 457.6328125 426.567382812 489.708007812 c 1
 392.103515625 437.833007812 333.486328125 404 267 404 c 0
 159 404 73 490 73 598 c 0
 73 604 73 611 73 617 c 1
 189 617 l 1
 187 611 186 604 186 598 c 0
 186 553 222 517 267 517 c 0
 304.05859375 517 333.65625 541.4140625 342.94921875 575.1640625 c 1
 344.754882812 610.306640625 l 2
 344.296875 612.604492188 343.711914062 614.865234375 343 617 c 1
 345.098632812 617 l 1
EndSplineSet
EndChar

StartChar: uni09A7
Encoding: 2471 2471 378
Width: 752
Flags: HW
LayerCount: 2
Fore
SplineSet
652.5 803 m 1
 652.5 671 l 1
 599.5 671 l 1
 599.5 1 l 1
 453.5 1 l 1
 453.5 2.798828125 l 1
 0 273.5 l 1
 0 425.5 l 1
 138.990234375 479.899414062 l 1
 109.646484375 513.573242188 92 557.484375 92 605.5 c 0
 92 713.5 178 799.5 286 799.5 c 0
 292 799.5 299 799.5 305 799.5 c 1
 305 683.5 l 1
 299 685.5 292 686.5 286 686.5 c 0
 241 686.5 205 650.5 205 605.5 c 0
 205 567.858398438 230.189453125 537.913085938 264.765625 529.126953125 c 1
 453.5 602.995117188 l 1
 453.5 777 l 1
 454.5 777 l 1
 454.5 803 l 1
 652.5 803 l 1
453.5 154.814453125 m 1
 453.5 454.072265625 l 1
 144 349.5 l 1
 453.5 154.814453125 l 1
EndSplineSet
EndChar

StartChar: uni09A8
Encoding: 2472 2472 379
Width: 661
VWidth: 0
Flags: HW
LayerCount: 2
Fore
SplineSet
611 803 m 1
 611 671 l 1
 566 671 l 1
 566 122.997070312 l 2
 569.60546875 105.749023438 571.5 87.8544921875 571.5 69.5 c 0
 571.5 60.7265625 571.060546875 52.0537109375 570.204101562 43.5 c 1
 566 43.5 l 1
 566 -2 l 1
 414 -2 l 1
 414 106.954101562 l 1
 399.125 147.953125 360.260742188 176.5 313.5 176.5 c 0
 254.5 176.5 207.5 129.5 207.5 69.5 c 0
 207.5 60.5361328125 208.584960938 51.826171875 210.631835938 43.5 c 1
 57.7958984375 43.5 l 1
 56.9384765625 52.0537109375 56.5 60.7265625 56.5 69.5 c 0
 56.5 212.5 171.5 327.5 313.5 327.5 c 0
 349.1953125 327.5 383.146484375 320.333984375 414 307.356445312 c 1
 414 671 l 1
 -50 671 l 1
 -50 803 l 1
 414 803 l 1
 566 803 l 1
 611 803 l 1
EndSplineSet
EndChar

StartChar: uni09B6
Encoding: 2486 2486 380
Width: 642
Flags: HW
LayerCount: 2
Fore
SplineSet
-50 705.5 m 1
 -44 705.5 -37 705.5 -31 705.5 c 0
 68.685546875 705.5 149.627929688 632.232421875 161.5 537.596679688 c 1
 173.372070312 632.232421875 254.314453125 705.5 354 705.5 c 0
 360 705.5 367 705.5 373 705.5 c 1
 373 700.87109375 l 1
 392.5 684.265625 l 1
 392.5 847 l 1
 544.5 847 l 1
 544.5 803 l 1
 592.5 803 l 1
 592.5 671 l 1
 544.5 671 l 1
 544.5 -2 l 1
 392.5 -2 l 1
 392.5 574.649414062 l 1
 373 594.294921875 l 1
 373 589.5 l 1
 367 591.5 360 592.5 354 592.5 c 0
 309 592.5 273 558.5 273 513.5 c 0
 273 468.5 309 432.5 354 432.5 c 0
 360 432.5 367 433.5 373 435.5 c 1
 373 319.5 l 1
 367 319.5 360 319.5 354 319.5 c 0
 254.314453125 319.5 173.372070312 392.767578125 161.5 488.9765625 c 1
 149.627929688 392.767578125 68.685546875 319.5 -31 319.5 c 0
 -37 319.5 -44 319.5 -50 319.5 c 1
 -50 435.5 l 1
 -44 433.5 -37 432.5 -31 432.5 c 0
 14 432.5 50 468.5 50 513.5 c 0
 50 558.5 14 592.5 -31 592.5 c 0
 -37 592.5 -44 591.5 -50 589.5 c 1
 -50 705.5 l 1
EndSplineSet
EndChar

StartChar: uni0988
Encoding: 2440 2440 381
Width: 1077
VWidth: 0
Flags: HW
HStem: -1 21G<357 543> 671 132<-50 257.581 493.755 639>
LayerCount: 2
Fore
SplineSet
186.141601562 472.20703125 m 1
 186.141601562 472.20703125 78.7998046875 578.45703125 78.0263671875 577.68359375 c 1
 180.65625 680.313476562 342.620117188 682.33203125 445.080078125 579.872070312 c 0
 476.888671875 548.063476562 498.51953125 510.3671875 510.09375 470.42578125 c 1
 588.814453125 534.576171875 l 1
 598.905273438 550.615234375 610.97265625 565.818359375 625.026367188 579.872070312 c 0
 652.493164062 607.338867188 684.235351562 627.296875 717.96484375 639.822265625 c 1
 728 648 l 1
 726.53515625 642.831054688 l 1
 816.62890625 672.658203125 919.28125 650.482421875 992.080078125 577.68359375 c 1
 991.306640625 578.45703125 883.96484375 472.20703125 883.96484375 472.20703125 c 1
 838.588867188 515.487304688 774.943359375 516.244140625 731.799804688 473.099609375 c 0
 689.116210938 430.416015625 690.233398438 366.353515625 733.96484375 321.051757812 c 0
 779.39453125 277.127929688 843.439453125 276.440429688 885.948242188 318.950195312 c 0
 886.184570312 319.186523438 886.419921875 319.422851562 886.653320312 319.66015625 c 1
 989.185546875 217.127929688 l 1
 898.411132812 125.170898438 747.618164062 92.9951171875 627.922851562 213.525390625 c 0
 591.263671875 250.440429688 567.456054688 294.904296875 556.677734375 341.443359375 c 1
 484 265 l 1
 482.737304688 265.57421875 l 1
 471.665039062 247.095703125 458.141601562 229.594726562 442.18359375 213.525390625 c 0
 322.48828125 92.9951171875 171.6953125 125.170898438 80.9208984375 217.127929688 c 1
 183.453125 319.66015625 l 1
 183.686523438 319.422851562 183.921875 319.186523438 184.158203125 318.950195312 c 0
 226.666992188 276.440429688 290.711914062 277.127929688 336.141601562 321.051757812 c 0
 338.659179688 323.66015625 341.036132812 326.331054688 343.271484375 329.055664062 c 1
 339 331 l 1
 352.678710938 342.146484375 l 1
 379.252929688 384.749023438 374.708007812 436.698242188 338.306640625 473.099609375 c 0
 295.163085938 516.244140625 231.517578125 515.487304688 186.141601562 472.20703125 c 1
1027 803 m 1
 1027 671 l 1
 -50 671 l 1
 -50 803 l 1
 488.489257812 803 l 1
 482.990234375 828.393554688 472.922851562 854.420898438 454.7890625 872.776367188 c 0
 423.380859375 903.592773438 422.673828125 904.299804688 391.560546875 935.412109375 c 0
 344.891601562 982.081054688 286.202148438 962.989257812 239.532226562 1009.65820312 c 0
 204.177734375 1045.01367188 198.520507812 1129.8671875 198.520507812 1129.8671875 c 1
 286.909179688 1218.25488281 l 1
 286.909179688 1218.25488281 294.6875 1131.28125 330.749023438 1095.21875 c 0
 376.00390625 1049.96386719 433.280273438 1071.88378906 478.53515625 1026.62890625 c 0
 512.475585938 992.688476562 515.3046875 989.859375 549.245117188 955.918945312 c 0
 599.2734375 905.890625 579.794921875 808.1796875 582.479492188 808.1328125 c 1
 577.346679688 803 l 1
 1027 803 l 1
EndSplineSet
EndChar

StartChar: uni0996
Encoding: 2454 2454 382
Width: 752
Flags: HW
LayerCount: 2
Fore
SplineSet
674.5 803 m 1
 674.5 671 l 1
 599.5 671 l 1
 599.5 1 l 1
 453.5 1 l 1
 453.5 777 l 1
 476.5 777 l 1
 476.5 803 l 1
 674.5 803 l 1
269.5 714 m 1
 401.5 714 l 1
 285.5 444 l 1
 284.689453125 445.12109375 l 1
 144 273.5 l 1
 453 159.5 l 1
 453 2.5 l 1
 0 179.5 l 1
 0 331.5 l 1
 246.440429688 561.51171875 l 1
 256.703125 629.375976562 l 1
 230.443359375 553.631835938 159.208007812 500 75.5 500 c 0
 -32.5 500 -118.5 586 -118.5 694 c 0
 -118.5 700 -118.5 707 -118.5 713 c 1
 -2.5 713 l 1
 -4.5 707 -5.5 700 -5.5 694 c 0
 -5.5 649 30.5 613 75.5 613 c 0
 120.5 613 154.5 649 154.5 694 c 0
 154.5 700 153.5 707 151.5 713 c 1
 267.5 713 l 1
 267.5 700.774414062 l 1
 269.5 714 l 1
EndSplineSet
EndChar

StartChar: uni098B
Encoding: 2443 2443 383
Width: 1344
Flags: HW
LayerCount: 2
Fore
SplineSet
872 777 m 1
 1018 777 l 1
 1018 285.5 l 1
 1092.5 211 l 1
 1092.5 776 l 1
 1094.5 776 l 1
 1094.5 795 l 1
 1294.5 795 l 1
 1294.5 663 l 1
 1244.5 663 l 1
 1244.5 0 l 1
 1092.51855469 -0 l 1
 1090.5 -2 l 1
 1018 70.5 l 1
 1018 1 l 1
 872 1 l 1
 871 1 l 1
 871 1.3935546875 l 1
 418.5 179.5 l 1
 418.5 331.5 l 1
 664.940429688 561.51171875 l 1
 675.203125 629.375976562 l 1
 648.943359375 553.631835938 577.708007812 500 494 500 c 0
 432.708984375 500 378.502929688 527.698242188 343.081054688 571.395507812 c 1
 307.87109375 527.698242188 254.15625 500 194 500 c 0
 86 500 0 586 0 694 c 0
 0 700 0 707 0 713 c 1
 116 713 l 1
 114 707 113 700 113 694 c 0
 113 649 149 613 194 613 c 0
 239 613 273 649 273 694 c 0
 273 700 272 707 270 713 c 1
 300 713 l 1
 386 713 l 1
 416 713 l 1
 414 707 413 700 413 694 c 0
 413 649 449 613 494 613 c 0
 539 613 573 649 573 694 c 0
 573 700 572 707 570 713 c 1
 686 713 l 1
 686 700.774414062 l 1
 688 714 l 1
 872 714 l 1
 872 777 l 1
871 159.684570312 m 1
 871 709.262695312 l 1
 704 444 l 1
 703.189453125 445.12109375 l 1
 562.5 273.5 l 1
 871 159.684570312 l 1
EndSplineSet
EndChar

StartChar: uni09B2
Encoding: 2482 2482 384
Width: 943
VWidth: 0
Flags: HW
LayerCount: 2
Fore
SplineSet
893 803 m 1
 893 671 l 1
 845 671 l 1
 845 46.6669921875 l 2
 845.2265625 45.609375 845.309570312 44.5537109375 845.204101562 43.5 c 2
 845 43.5 l 1
 845 -2 l 1
 693 -2 l 1
 693 43.5 l 1
 692.364257812 43.5 l 1
 692.587890625 44.4072265625 692.799804688 45.318359375 693 46.2353515625 c 2
 693 93.0703125 l 1
 682.53515625 141.364257812 640.376953125 176.5 588.5 176.5 c 0
 537.051757812 176.5 494.728515625 140.76171875 484.736328125 91.8291015625 c 0
 485.572265625 83.3369140625 486 74.720703125 486 66 c 0
 486 59.0615234375 485.725585938 52.1865234375 485.186523438 45.3837890625 c 0
 485.329101562 44.75390625 485.477539062 44.1259765625 485.631835938 43.5 c 1
 485.030273438 43.5 l 2
 484.9296875 42.3310546875 484.8203125 41.1640625 484.704101562 40 c 2
 331.864257812 40 l 1
 332.184570312 41.2998046875 332.48046875 42.6083984375 332.75390625 43.9267578125 c 0
 331.923828125 52.341796875 331.5 60.8720703125 331.5 69.5 c 0
 331.5 76.625 331.755859375 83.6796875 332.258789062 90.654296875 c 0
 321.40234375 138.389648438 279.487304688 173 228 173 c 0
 169 173 122 126 122 66 c 0
 122 57.0361328125 123.084960938 48.326171875 125.131835938 40 c 1
 -27.7041015625 40 l 1
 -28.5615234375 48.5537109375 -29 57.2265625 -29 66 c 0
 -29 209 86 324 228 324 c 0
 296.041015625 324 357.7421875 297.96484375 403.733398438 255.265625 c 1
 447.030273438 300.038085938 507.108398438 327.5 576.5 327.5 c 0
 618.48046875 327.5 658.046875 317.588867188 693 299.96875 c 1
 693 671 l 1
 -50 671 l 1
 -50 803 l 1
 693 803 l 1
 845 803 l 1
 893 803 l 1
EndSplineSet
EndChar

StartChar: uni09AF
Encoding: 2479 2479 385
Width: 841
VWidth: 0
Flags: HW
HStem: 10 152<185.1 530.7> 610 152<-15.7 328.3>
LayerCount: 2
Fore
SplineSet
26.755859375 180.198242188 m 1
 58.228515625 327.01953125 l 1
 329.267578125 487.461914062 l 1
 68.0986328125 671 l 1
 -50 671 l 1
 -50 803 l 1
 594 803 l 1
 746 803 l 1
 791 803 l 1
 791 671 l 1
 746 671 l 1
 746 -2 l 1
 594 -2 l 1
 594 0.1826171875 l 1
 26.755859375 180.198242188 l 1
594 156.658203125 m 1
 594 671 l 1
 307.166015625 671 l 1
 490.244140625 568.801757812 l 1
 458.771484375 421.98046875 l 1
 252.186523438 262.055664062 l 1
 594 156.658203125 l 1
EndSplineSet
EndChar

StartChar: uni09AB
Encoding: 2475 2475 386
Width: 1167
VWidth: 0
Flags: HW
HStem: 10 152<185.1 530.7> 610 152<-15.7 328.3>
LayerCount: 2
Fore
SplineSet
26.755859375 180.198242188 m 1
 58.228515625 327.01953125 l 1
 329.267578125 487.461914062 l 1
 68.0986328125 671 l 1
 -50 671 l 1
 -50 803 l 1
 1117 803 l 1
 1117 671 l 1
 307.166015625 671 l 1
 490.244140625 568.801757812 l 1
 458.771484375 421.98046875 l 1
 252.186523438 262.055664062 l 1
 594 156.658203125 l 1
 594 323 l 1
 594.51171875 323 l 1
 595.842773438 464.837890625 710.328125 578.5 851.5 578.5 c 0
 994.5 578.5 1109.5 463.5 1109.5 320.5 c 0
 1109.5 311.7265625 1109.06054688 303.053710938 1108.20410156 294.5 c 1
 955.364257812 294.5 l 1
 957.415039062 302.826171875 958.5 311.536132812 958.5 320.5 c 0
 958.5 380.5 911.5 427.5 851.5 427.5 c 0
 793.322265625 427.5 746.811523438 381.80078125 745.52734375 323 c 1
 746 323 l 1
 746 310.0078125 l 2
 746.506835938 304.716796875 747.393554688 299.538085938 748.631835938 294.5 c 1
 746 294.5 l 1
 746 -2 l 1
 594 -2 l 1
 594 0.1826171875 l 1
 26.755859375 180.198242188 l 1
EndSplineSet
EndChar

StartChar: uni0997
Encoding: 2455 2455 387
Width: 690
VWidth: 0
Flags: HW
LayerCount: 2
Fore
SplineSet
18.615234375 383 m 1
 85.615234375 495 l 1
 91.615234375 489 98.615234375 486 107.615234375 483 c 0
 160.615234375 459 204.615234375 467 230.615234375 498 c 0
 259.615234375 532 208.615234375 538 154.615234375 547 c 1
 26.615234375 598 -44.384765625 681 30.615234375 770 c 0
 93.615234375 846 246.615234375 863 373.615234375 809 c 0
 377.018554688 807.541992188 406.892578125 793.083984375 437.5 777.921875 c 1
 437.5 850 l 1
 589.5 850 l 1
 589.5 803 l 1
 637.5 803 l 1
 637.5 671 l 1
 589.5 671 l 1
 589.5 -2 l 1
 437.5 -2 l 1
 437.5 613.240234375 l 1
 420.359375 622.84765625 315.095703125 677.172851562 306.615234375 680 c 0
 253.615234375 702 231.615234375 695 205.615234375 664 c 0
 175.615234375 629 172.615234375 622 236.615234375 611 c 1
 355.615234375 561 458.615234375 500 382.615234375 411 c 0
 320.615234375 335 167.615234375 315 40.615234375 370 c 0
 33.615234375 372 26.615234375 377 18.615234375 383 c 1
EndSplineSet
EndChar

StartChar: uni098C
Encoding: 2444 2444 388
Width: 779
VWidth: 0
Flags: HW
HStem: 616 157<1.091 167.973> -14 161<1.091 167.973>
VStem: 302 153<282.8 477.701>
LayerCount: 2
Fore
SplineSet
48.1552734375 103.778320312 m 1
 47.2978515625 112.33203125 46.859375 121.004882812 46.859375 129.778320312 c 0
 46.859375 272.778320312 161.859375 387.779296875 303.859375 387.779296875 c 0
 398.783203125 387.779296875 481.369140625 337.10546875 526.170898438 261.20703125 c 1
 544.932617188 337.665039062 523.635742188 422.482421875 463.10546875 483.012695312 c 0
 371.181640625 574.936523438 224.810546875 577.05859375 135.0078125 487.255859375 c 0
 116.9375 469.185546875 102.58984375 448.826171875 91.9462890625 427.079101562 c 1
 -22.556640625 541.583007812 l 1
 -9.1767578125 561.619140625 6.337890625 580.618164062 23.9921875 598.271484375 c 0
 173.19140625 747.470703125 418.557617188 743.935546875 572.70703125 589.786132812 c 0
 726.1484375 436.34375 729.684570312 190.977539062 580.485351562 41.7783203125 c 0
 562.831054688 24.125 543.83203125 8.6103515625 523.797851562 -4.771484375 c 1
 415.248046875 103.778320312 l 1
 407.724609375 103.778320312 l 1
 408.227539062 105.819335938 408.671875 107.883789062 409.056640625 109.969726562 c 2
 406.470703125 112.555664062 l 1
 407.567382812 113.092773438 408.66015625 113.639648438 409.75 114.1953125 c 0
 410.481445312 119.283203125 410.860351562 124.486328125 410.859375 129.778320312 c 0
 410.860351562 189.778320312 363.859375 236.779296875 303.859375 236.778320312 c 0
 244.859375 236.779296875 197.859375 189.778320312 197.860351562 129.778320312 c 0
 197.859375 120.814453125 198.9453125 112.104492188 200.991210938 103.778320312 c 1
 48.1552734375 103.778320312 l 1
EndSplineSet
EndChar

StartChar: uni09EF
Encoding: 2543 2543 389
Width: 779
VWidth: 0
Flags: HW
HStem: 616 157<1.091 167.973> -14 161<1.091 167.973>
VStem: 302 153<282.8 477.701>
LayerCount: 2
Fore
SplineSet
48.1552734375 103.778320312 m 1
 47.2978515625 112.33203125 46.859375 121.004882812 46.859375 129.778320312 c 0
 46.859375 272.778320312 161.859375 387.779296875 303.859375 387.779296875 c 0
 398.783203125 387.779296875 481.369140625 337.10546875 526.170898438 261.20703125 c 1
 544.932617188 337.665039062 523.635742188 422.482421875 463.10546875 483.012695312 c 0
 371.181640625 574.936523438 224.810546875 577.05859375 135.0078125 487.255859375 c 0
 116.9375 469.185546875 102.58984375 448.826171875 91.9462890625 427.079101562 c 1
 -22.556640625 541.583007812 l 1
 -9.1767578125 561.619140625 6.337890625 580.618164062 23.9921875 598.271484375 c 0
 173.19140625 747.470703125 418.557617188 743.935546875 572.70703125 589.786132812 c 0
 726.1484375 436.34375 729.684570312 190.977539062 580.485351562 41.7783203125 c 0
 562.831054688 24.125 543.83203125 8.6103515625 523.797851562 -4.771484375 c 1
 415.248046875 103.778320312 l 1
 407.724609375 103.778320312 l 1
 408.227539062 105.819335938 408.671875 107.883789062 409.056640625 109.969726562 c 2
 406.470703125 112.555664062 l 1
 407.567382812 113.092773438 408.66015625 113.639648438 409.75 114.1953125 c 0
 410.481445312 119.283203125 410.860351562 124.486328125 410.859375 129.778320312 c 0
 410.860351562 189.778320312 363.859375 236.779296875 303.859375 236.778320312 c 0
 244.859375 236.779296875 197.859375 189.778320312 197.860351562 129.778320312 c 0
 197.859375 120.814453125 198.9453125 112.104492188 200.991210938 103.778320312 c 1
 48.1552734375 103.778320312 l 1
EndSplineSet
EndChar

StartChar: uni09EC
Encoding: 2540 2540 390
Width: 616
VWidth: 0
Flags: HW
HStem: 3.00156 151.016<193.473 323.671> 366 151.998<259 391> 671 132<-50 259 391 566> 671 80<259 391>
VStem: 259 132<517.998 751>
LayerCount: 2
Fore
SplineSet
259 751 m 1
 391 751 l 1
 391 483.791992188 l 1
 469.610351562 439.66015625 522.310546875 356.931640625 520 260 c 0
 516.541015625 114.885742188 402.287109375 2.7998046875 258.90625 3.001953125 c 0
 89.0390625 3.240234375 5.1650390625 131.7890625 6.0009765625 261 c 1
 151.00390625 261 l 1
 151.000976562 260.666992188 151 260.333984375 151 260 c 0
 151 199.8828125 196.772460938 155.08203125 259.955078125 154.017578125 c 0
 322.911132812 155.126953125 369 199.63671875 369 260 c 0
 369 316.657226562 329.734375 359.046875 273.932617188 366 c 1
 259 366 l 1
 259 517.624023438 l 2
 258.96875 517.87109375 258.9375 517.998046875 258.905273438 517.998046875 c 1
 258.9375 517.998046875 258.96875 517.998046875 259 517.998046875 c 1
 259 751 l 1
EndSplineSet
EndChar

StartChar: uni09ED
Encoding: 2541 2541 391
Width: 534
VWidth: 0
Flags: HW
HStem: 265 151<193.471 282> 629 150<193.591 281.625>
VStem: 282 152<3 266 416.026 628.974> 0 151<458.471 586.934>
LayerCount: 2
Fore
SplineSet
282 626 m 1
 274 628 266 629 258 629 c 0
 198 629 151 582 151 523 c 0
 151 463 198 416 258 416 c 0
 266 416 274 417 282 419 c 1
 282 626 l 1
282 3 m 1
 282 266 l 1
 274 265 266 265 258 265 c 0
 115 265 0 380 0 523 c 0
 0 665 115 780 258 780 c 0
 266 780 353 787 395 752 c 0
 433 720 434 631 434 631 c 1
 434 3 l 1
 282 3 l 1
EndSplineSet
EndChar

StartChar: uni09EE
Encoding: 2542 2542 392
Width: 692
VWidth: 0
Flags: HW
HStem: 367.571 151<152 240.529> 4.57143 150<152.375 240.409>
VStem: 0 152<517.571 780.571 154.597 367.545> 283 151<196.637 325.1>
LayerCount: 2
Fore
SplineSet
152 780.571289062 m 1
 152 517.571289062 l 1
 160 518.571289062 168 518.571289062 176 518.571289062 c 0
 185.734375 518.571289062 195.338867188 518.038085938 204.787109375 517 c 2
 589 517 l 1
 589 365 l 1
 412.165039062 365 l 1
 426.209960938 333.109375 434 297.7890625 434 260.571289062 c 0
 434 118.571289062 319 3.5712890625 176 3.5712890625 c 0
 168 3.5712890625 81 -3.4287109375 39 31.5712890625 c 0
 1 63.5712890625 0 152.571289062 0 152.571289062 c 1
 0 780.571289062 l 1
 152 780.571289062 l 1
152 157.571289062 m 1
 160 155.571289062 168 154.571289062 176 154.571289062 c 0
 236 154.571289062 283 201.571289062 283 260.571289062 c 0
 283 312.331054688 248.0234375 354.416992188 199.896484375 365 c 1
 153.78125 365 l 2
 153.1875 364.862304688 152.59375 364.719726562 152 364.571289062 c 2
 152 157.571289062 l 1
EndSplineSet
EndChar

StartChar: uni09EB
Encoding: 2539 2539 393
Width: 779
VWidth: 0
Flags: HW
HStem: 616 157<499.596 666.478> -14 161<499.596 666.478>
VStem: 212.569 153<282.8 477.701>
LayerCount: 2
Fore
SplineSet
305.770507812 384.469726562 m 2
 305.11328125 385.197265625 l 1
 303.998046875 382.770507812 303.796875 381.798828125 305.770507812 384.469726562 c 2
686.516601562 479.231445312 m 1
 610.09765625 346.872070312 l 1
 603.911132812 352.805664062 596.911132812 358.102539062 589.147460938 362.583007812 c 0
 537.185546875 392.583984375 472.982421875 375.381835938 443.482421875 324.28515625 c 0
 413.481445312 272.32421875 430.685546875 208.119140625 482.647460938 178.12109375 c 0
 487.229492188 175.474609375 491.924804688 173.200195312 496.697265625 171.290039062 c 0
 497.723632812 171.956054688 498.743164062 172.627929688 499.756835938 173.309570312 c 1
 500.702148438 169.77734375 l 2
 502.702148438 169.067382812 504.712890625 168.418945312 506.731445312 167.834960938 c 1
 502.96875 161.319335938 l 1
 542.702148438 13.037109375 l 1
 521.09375 2.37890625 498.16015625 -6.3173828125 474.044921875 -12.78125 c 0
 270.234375 -67.3896484375 59.5087890625 58.3544921875 3.3447265625 267.9609375 c 0
 -53.0771484375 478.53125 66.5439453125 692.79296875 270.353515625 747.403320312 c 0
 294.46875 753.866210938 318.680664062 757.802734375 342.721679688 759.372070312 c 1
 384.633789062 602.95703125 l 1
 368.18359375 604.084960938 351.4296875 603.403320312 334.618164062 600.763671875 c 1
 440.943359375 478.297851562 l 1
 505.856445312 496.979492188 601.125976562 530.02734375 664.646484375 493.353515625 c 0
 672.24609375 488.966796875 679.537109375 484.25 686.516601562 479.231445312 c 1
304.965820312 385.359375 m 1
 189.19140625 513.487304688 l 1
 147.331054688 457.865234375 130.83984375 383.290039062 150.615234375 309.491210938 c 0
 172.76953125 226.805664062 235.575195312 165.953125 311.170898438 143.971679688 c 1
 270.352539062 216.275390625 265.6875 306.424804688 304.965820312 385.359375 c 1
EndSplineSet
EndChar

StartChar: uni09B7
Encoding: 2487 2487 394
Width: 841
VWidth: 0
Flags: HW
HStem: 10 152<185.1 530.7> 610 152<-15.7 328.3>
LayerCount: 2
Fore
SplineSet
594 671 m 1
 307.166015625 671 l 1
 594 528.982421875 l 1
 594 671 l 1
594 156.658203125 m 1
 594 381.504882812 l 1
 461.956054688 436.836914062 l 1
 252.186523438 262.055664062 l 1
 594 156.658203125 l 1
26.755859375 180.198242188 m 1
 58.228515625 327.01953125 l 1
 329.267578125 487.461914062 l 1
 68.0986328125 671 l 1
 -50 671 l 1
 -50 803 l 1
 791 803 l 1
 791 671 l 1
 746 671 l 1
 746 -2 l 1
 594 -2 l 1
 594 0.1826171875 l 1
 26.755859375 180.198242188 l 1
EndSplineSet
EndChar

StartChar: uni09A5
Encoding: 2469 2469 395
Width: 723
VWidth: 0
Flags: HW
HStem: 3 151<193.471 284> 367 151<193.471 284>
VStem: 0 151<196.066 324.529>
LayerCount: 2
Fore
SplineSet
124.400390625 766.462890625 m 1
 131.243164062 767.149414062 136.181640625 767.52734375 143.200195312 767.5 c 0
 257.951171875 767.052734375 410.767578125 698.090820312 417.599609375 578.900390625 c 0
 426.655273438 420.920898438 231.840820312 347.525390625 130 283 c 1
 474 166.745117188 l 1
 474 671 l 1
 474 777 l 1
 474 803 l 1
 673 803 l 1
 673 671 l 1
 620 671 l 1
 620 1 l 1
 474 1 l 1
 474 16.0556640625 l 1
 38 197 l 1
 38 349 l 1
 38 349 179 446 261 518 c 0
 282 536 298.799804688 578.900390625 298.799804688 578.900390625 c 1
 298.799804688 626.099609375 193.200195312 646.700195312 145.200195312 646.700195312 c 0
 138.029296875 646.700195312 131.060546875 645.83203125 124.400390625 644.194335938 c 1
 124.400390625 766.462890625 l 1
EndSplineSet
EndChar

StartChar: uni0980
Encoding: 2432 2432 396
Width: 534
VWidth: 0
Flags: HW
HStem: 265 151<193.471 282> 629 150<193.591 281.625>
VStem: 282 152<3 266 416.026 628.974> 0 151<458.471 586.934>
LayerCount: 2
Fore
SplineSet
210 343 m 1
 210 265 l 1
 67 265 0 380 0 523 c 0
 0 665 115 780 258 780 c 0
 266 780 353 787 395 752 c 0
 433 720 434 631 434 631 c 1
 434 3 l 1
 282 3 l 1
 282 266 l 1
 276.247070312 265.28125 288.752929688 388.056640625 283 388 c 1
 282 419 l 1
 282 626 l 1
 274 628 266 629 258 629 c 0
 198 629 151 582 151 523 c 0
 151 463 150 416 210 416 c 0
 211.09375 416 208.90625 342.962890625 210 343 c 1
EndSplineSet
EndChar

StartChar: uni09BC
Encoding: 2492 2492 397
Width: 0
VWidth: 0
GlyphClass: 4
Flags: HW
HStem: -2 142<-126 26>
VStem: -126 152<-2 140>
LayerCount: 2
Fore
SplineSet
-510 -138 m 1
 -510 4 l 1
 -358 4 l 1
 -358 -138 l 1
 -510 -138 l 1
EndSplineSet
EndChar

StartChar: uni09BD
Encoding: 2493 2493 398
Width: 689
VWidth: 0
Flags: HW
LayerCount: 2
Fore
SplineSet
199 482.999023438 m 1
 199 467 l 1
 189.196289062 475.032226562 l 2
 188.168945312 474.111328125 187.151367188 473.169921875 186.141601562 472.20703125 c 2
 186.141601562 472.20703125 172.28125 485.926757812 154.485351562 503.469726562 c 2
 -50 671 l 1
 -50 803 l 1
 157.661132812 632.868164062 l 1
 252.690429688 675.614257812 366.420898438 658.53125 445.080078125 579.872070312 c 0
 546.706054688 478.24609375 544.452148438 316.5078125 442.18359375 213.525390625 c 0
 416.661132812 187.825195312 389.724609375 169.067382812 362.2578125 156.3515625 c 1
 543 -1 l 1
 384 -1 l 1
 175.735351562 153.26953125 l 1
 140.404296875 167.595703125 107.993164062 189.703125 80.9208984375 217.127929688 c 1
 183.453125 319.66015625 l 1
 183.686523438 319.422851562 183.921875 319.186523438 184.158203125 318.950195312 c 0
 226.666992188 276.440429688 290.711914062 277.127929688 336.141601562 321.051757812 c 0
 379.873046875 366.353515625 380.990234375 430.416015625 338.306640625 473.099609375 c 0
 299.102539062 512.3046875 242.970703125 515.259765625 199 482.999023438 c 1
EndSplineSet
EndChar

StartChar: uni099A
Encoding: 2458 2458 399
Width: 530
VWidth: 0
Flags: HW
HStem: 367.571 151<152 240.529> 4.57143 150<152.375 240.409>
VStem: 0 152<517.571 780.571 154.597 367.545> 283 151<196.637 325.1>
LayerCount: 2
Fore
SplineSet
152 157.571289062 m 1
 160 155.571289062 168 154.571289062 176 154.571289062 c 0
 236 154.571289062 283 201.571289062 283 260.571289062 c 0
 283 320.571289062 236 367.571289062 176 367.571289062 c 0
 168 367.571289062 160 366.571289062 152 364.571289062 c 1
 152 157.571289062 l 1
480 803 m 1
 480 671 l 1
 152 671 l 1
 152 517.571289062 l 1
 160 518.571289062 168 518.571289062 176 518.571289062 c 0
 319 518.571289062 434 403.571289062 434 260.571289062 c 0
 434 118.571289062 319 3.5712890625 176 3.5712890625 c 0
 168 3.5712890625 81 -3.4287109375 39 31.5712890625 c 0
 1 63.5712890625 0 152.571289062 0 152.571289062 c 1
 0 671 l 1
 -50 671 l 1
 -50 803 l 1
 480 803 l 1
EndSplineSet
EndChar

StartChar: uni09CD
Encoding: 2509 2509 400
Width: 0
VWidth: 0
Flags: HW
LayerCount: 2
Fore
SplineSet
-154 -1 m 1
 -10 -186 l 5
 -116 -247 l 5
 -260 -62 l 1
 -154 -1 l 1
EndSplineSet
EndChar

StartChar: uni09B8
Encoding: 2488 2488 401
Width: 512
VWidth: 0
Flags: HW
LayerCount: 2
Fore
SplineSet
5 95 m 1
 80 220 l 1
 86 215 92 210 102 205 c 0
 153 175 217 192 247 240 c 0
 279 296 229 344 177 353 c 1
 52.7919921875 420.033203125 -30.6025390625 532.73828125 47.517578125 671 c 1
 -50 671 l 1
 -50 803 l 1
 726 803 l 1
 726 671 l 1
 705 671 l 1
 705 0 l 1
 553.018554688 -0 l 1
 551 -2 l 1
 378.500976562 170.499023438 l 1
 378.006835938 169.66796875 377.506835938 168.834960938 377 168 c 0
 308 51 151 12 26 80 c 0
 20 86 12 89 5 95 c 1
395.565429688 325.6171875 m 1
 396 328 l 1
 553 194.877929688 l 1
 553 671 l 1
 305.704101562 671 l 1
 299.729492188 666.977539062 294.71875 664.640625 292 666 c 0
 288.315429688 668.022460938 284.744140625 669.681640625 281.276367188 671 c 2
 241.71875 671 l 1
 218.456054688 660.96484375 200.250976562 633.418945312 182 603 c 0
 149 548 182 467 246 456 c 1
 310.7421875 421.138671875 369.97265625 379.541992188 395.565429688 325.6171875 c 1
EndSplineSet
EndChar

StartChar: uni09AE
Encoding: 2478 2478 402
Width: 778
VWidth: 0
Flags: HW
LayerCount: 2
Fore
SplineSet
257.43359375 446.358398438 m 1025
720 803 m 1
 720 671 l 1
 699 671 l 1
 699 0 l 1
 547.018554688 -0 l 1
 545 -2 l 1
 429.301757812 113.698242188 l 1
 382.826171875 46.79296875 305.244140625 3 217 3 c 0
 215.956054688 3 214.92578125 3.001953125 213.90625 3.001953125 c 0
 213.603515625 3.001953125 213.301757812 3 213 3 c 0
 211.815429688 3 210.631835938 3.0078125 209.451171875 3.0234375 c 0
 204.662109375 3.0693359375 200.004882812 3.205078125 195.133789062 3.6025390625 c 0
 60.5419921875 12.708984375 -45 123.96484375 -45 260 c 0
 -45 339.491210938 -9.4638671875 410.331054688 46.6640625 457.573242188 c 1
 5.15234375 517.244140625 -4.953125 589.8515625 41.4736328125 671 c 1
 -56 671 l 1
 -56 803 l 1
 720 803 l 1
214.955078125 366.982421875 m 0
 206.641601562 366.842773438 198.393554688 365.848632812 191 364 c 1
 191 364.828125 l 1
 141.8984375 354.9453125 106 312.4375 106 260 c 0
 106 208.436523438 141.8984375 166.0390625 191 156.169921875 c 1
 191 157 l 1
 198.393554688 155.151367188 206.641601562 154.157226562 214.955078125 154.017578125 c 0
 223.23046875 154.163085938 231.280273438 155.234375 239 157.131835938 c 1
 239 156.169921875 l 1
 288.1015625 166.0390625 324 208.436523438 324 260 c 0
 324 312.4375 288.1015625 354.9453125 239 364.828125 c 1
 239 363.864257812 l 1
 231.280273438 365.765625 223.23046875 366.836914062 214.955078125 366.982421875 c 0
547 194.877929688 m 1
 547 671 l 1
 299.704101562 671 l 1
 293.729492188 666.977539062 288.71875 664.640625 286 666 c 0
 282.315429688 668.022460938 278.744140625 669.681640625 275.276367188 671 c 2
 235.71875 671 l 1
 212.456054688 660.96484375 194.250976562 633.418945312 176 603 c 0
 159.8125 576.020507812 159.505859375 542.78515625 170.94921875 514.624023438 c 1
 178.890625 515.9140625 186.956054688 516.84375 195.12890625 517.397460938 c 0
 200.001953125 517.794921875 204.66015625 517.930664062 209.451171875 517.9765625 c 0
 210.631835938 517.9921875 211.815429688 518 213 518 c 0
 213.301757812 518 213.603515625 517.999023438 213.905273438 517.998046875 c 0
 214.92578125 518 215.956054688 518 217 518 c 0
 360 518 475 403 475 260 c 0
 475 258.6484375 474.989257812 257.299804688 474.96875 255.954101562 c 2
 547 194.877929688 l 1
EndSplineSet
EndChar

StartChar: uni0998
Encoding: 2456 2456 403
Width: 770
VWidth: 0
Flags: HW
LayerCount: 2
Fore
SplineSet
29.7421875 671.545898438 m 1
 -56 671 l 1
 -56 803 l 1
 720 803 l 1
 720 671 l 1
 699 671 l 1
 699 0 l 1
 309 19.3212890625 l 0
 137.732421875 19.3212890625 0 121.786132812 0 248.307617188 c 0
 0 311.702148438 28.4677734375 368.918945312 74.689453125 410.4140625 c 1
 28.4677734375 451.795898438 0 508.791015625 0 571.741210938 c 0
 0 607.5546875 10.669921875 641.396484375 29.7421875 671.545898438 c 1
547 671 m 1
 303 667.078125 l 1
 217.766601562 667.078125 151 625.200195312 151 571.741210938 c 0
 151 522.912109375 191.549804688 483.30859375 245.40234375 477.918945312 c 0
 249.576171875 478.095703125 253.775390625 478.186523438 258 478.186523438 c 0
 262.170898438 478.186523438 266.318359375 478.096679688 270.442382812 477.921875 c 0
 275.056640625 478.391601562 279.58203125 479.1171875 284 480.0859375 c 1
 284 477.030273438 l 1
 284 343.909179688 l 1
 284 340.850585938 l 1
 279.58203125 341.8203125 275.056640625 342.547851562 270.44140625 343.017578125 c 0
 266.318359375 342.841796875 262.170898438 342.75390625 258 342.75390625 c 0
 253.776367188 342.75390625 249.577148438 342.84375 245.404296875 343.020507812 c 0
 191.55078125 337.627929688 151 297.96484375 151 248.307617188 c 0
 151 195.740234375 220.40234375 153.861328125 309 153.861328125 c 5
 550 160 l 5
 547 671 l 1
EndSplineSet
EndChar

StartChar: uni0999
Encoding: 2457 2457 404
Width: 616
VWidth: 0
Flags: HW
HStem: 3.00156 151.016<193.473 323.671> 366 151.998<259 391> 671 132<-50 259 391 566> 671 80<259 391>
VStem: 259 132<517.998 751>
LayerCount: 2
Fore
SplineSet
-40 700 m 1
 80 796 l 1
 261.640625 690.890625 l 1
 267.836914062 752.955078125 318.28515625 802.319335938 381 807 c 0
 383 807 386 807 388 807 c 0
 389 807 389 807 390 807 c 0
 391 807 391 807 392 807 c 0
 464 807 521 750 521 678 c 0
 521 629.665039062 444.583007812 567.791992188 405 546 c 1
 353 448 l 1
 431.610351562 403.868164062 522.310546875 356.931640625 520 260 c 0
 516.541015625 114.885742188 402.287109375 2.7998046875 258.90625 3.001953125 c 0
 89.0390625 3.240234375 5.1650390625 131.7890625 6.0009765625 261 c 1
 151.00390625 261 l 1
 151.000976562 260.666992188 151 260.333984375 151 260 c 0
 151 199.8828125 196.772460938 155.08203125 259.955078125 154.017578125 c 0
 322.911132812 155.126953125 369 199.63671875 369 260 c 0
 369 316.657226562 329.734375 359.046875 273.932617188 366 c 1
 259 366 l 1
 268 517.624023438 l 2
 267.96875 517.87109375 267.9375 517.998046875 267.905273438 517.998046875 c 1
 267.9375 517.998046875 267.96875 517.998046875 268 517.998046875 c 2
 277 544 l 1
 271.180664062 566.630859375 l 1
 261.329101562 572.219726562 252.288085938 579.047851562 244.279296875 586.907226562 c 1
 -40 700 l 1
391 732 m 0
 387 732 383 731 379 730 c 1
 379 731 l 1
 354 726 337 704 337 678 c 0
 337 660.083984375 345.072265625 644.54296875 358.270507812 634.973632812 c 2
 367.364257812 629.711914062 l 2
 371 628.075195312 374.891601562 626.821289062 379 626 c 1
 379 627 l 1
 383 626 387 625 391 625 c 0
 395 625 399 626 403 627 c 1
 403 626 l 1
 428 631 445 652 445 678 c 0
 445 704 428 726 403 731 c 1
 403 730 l 1
 399 731 395 732 391 732 c 0
EndSplineSet
EndChar

StartChar: uni09AA
Encoding: 2474 2474 405
Width: 619
VWidth: 0
Flags: HW
HStem: -39.1672 157<517.596 684.478> 586.833 161<517.596 684.478>
VStem: 230.569 153<256.132 451.033>
LayerCount: 2
Fore
SplineSet
174.63671875 575.595703125 m 1
 192.1640625 627.83984375 234.065429688 665.619140625 284.059570312 679.534179688 c 1
 240.935546875 703.227539062 186.286132812 704.090820312 139.953125 677.340820312 c 0
 98.5986328125 653.46484375 72.9296875 613.219726562 66.84765625 570.13671875 c 1
 174.63671875 575.595703125 l 1
301.774414062 365.487304688 m 1
 296.47265625 366.354492188 291.165039062 367.4921875 285.869140625 368.911132812 c 0
 241.588867188 380.776367188 214.08984375 437.485351562 193.658203125 474.428710938 c 1
 92.5458984375 467.296875 l 1
 98.8095703125 458.700195312 105.913085938 450.994140625 113.681640625 444.22265625 c 1
 26.0322265625 393.618164062 l 1
 16.1005859375 404.936523438 7.140625 417.376953125 -0.6611328125 430.891601562 c 0
 -66.5986328125 545.09765625 -24.7734375 692.654296875 93.22265625 760.779296875 c 0
 184.034179688 813.209960938 293.524414062 802.651367188 369 742.37890625 c 1
 369 845 l 1
 521 845 l 1
 521 801 l 1
 569 801 l 1
 569 669 l 1
 521 669 l 1
 521 -4 l 1
 369 -4 l 1
 369 486.981445312 l 1
 367 485 l 1
 368.055664062 591.0859375 l 1
 361.157226562 587.103515625 l 1
 359.939453125 582.561523438 l 1
 358.790039062 583.1953125 357.614257812 583.796875 356.416992188 584.368164062 c 2
 354.438476562 583.224609375 l 1
 354.291992188 583.973632812 354.137695312 584.720703125 353.977539062 585.46875 c 0
 351.025390625 586.733398438 347.9453125 587.8046875 344.750976562 588.659179688 c 0
 308.528320312 598.366210938 272.55078125 577.594726562 262.844726562 541.37109375 c 0
 253.30078125 505.751953125 274.073242188 469.77734375 310.294921875 460.071289062 c 0
 315.706054688 458.620117188 321.140625 457.868164062 326.497070312 457.755859375 c 1
 301.774414062 365.487304688 l 1
175.38671875 575.633789062 m 2
 175.694335938 577.6875 175.354492188 577.16796875 174.775390625 575.603515625 c 1
 175.38671875 575.633789062 l 2
EndSplineSet
EndChar

StartChar: uni09E7
Encoding: 2535 2535 406
Width: 555
VWidth: 0
Flags: HW
HStem: 616 157<1.091 167.973> -14 161<1.091 167.973>
VStem: 302 153<282.8 477.701>
LayerCount: 2
Fore
SplineSet
73 147 m 0
 200 147 302 252 302 381 c 0
 302 511 200 616 73 616 c 0
 47.4453125 616 22.9033203125 611.749023438 0 603.897460938 c 1
 0 765.830078125 l 1
 23.62890625 770.536132812 48.0341796875 773 73 773 c 0
 284 773 455 597 455 379 c 0
 455 162 284 -14 73 -14 c 0
 48.0341796875 -14 23.62890625 -11.5361328125 0 -6.83203125 c 1
 0 159.09375 l 1
 22.9033203125 151.250976562 47.4453125 147 73 147 c 0
EndSplineSet
EndChar

StartChar: uni09E8
Encoding: 2536 2536 407
Width: 783
VWidth: 0
Flags: HW
HStem: 10 152<251 683> 610 152<0 430>
LayerCount: 2
Fore
SplineSet
-79.83984375 226.225585938 m 1
 -3.83984375 357.861328125 l 1
 377.34375 446.08984375 l 1
 4.5859375 662.456054688 l 1
 80.5869140625 794.092773438 l 1
 611.826171875 486.2265625 l 1
 535.826171875 354.58984375 l 1
 153.77734375 266.861328125 l 1
 498.455078125 67.861328125 l 1
 422.455078125 -63.775390625 l 1
 -79.83984375 226.225585938 l 1
EndSplineSet
EndChar

StartChar: uni09A6
Encoding: 2470 2470 408
Width: 725
VWidth: 0
Flags: HW
HStem: 10 152<251 683> 610 152<0 430>
LayerCount: 2
Fore
SplineSet
612.5 582.5 m 1
 612.5 2.5 l 1
 460.5 2.5 l 1
 460.5 400.5 l 1
 193.5 113.5 l 1
 41.5 113.5 l 1
 40.591796875 671 l 1
 -50 671 l 1
 -50 803 l 1
 676 803 l 1
 676 671 l 1
 192.630859375 671 l 1
 193.5 296.5 l 1
 460.5 582.5 l 1
 612.5 582.5 l 1
EndSplineSet
EndChar

StartChar: uni09E9
Encoding: 2537 2537 409
Width: 726
VWidth: 75
Flags: HW
HStem: 4.7002 133.6<255.264 418.805> 513.479 120.821<345.987 417.023> 671 132<-50 676>
VStem: 42.4004 111.399<240.829 328.876> 520.2 133.399<240.829 414.049>
LayerCount: 2
Fore
SplineSet
339.780273438 513.478515625 m 1
 339.780273438 513.478515625 345.987304688 634.29296875 345.987304688 634.29296875 c 2
 346.657226562 634.297851562 347.328125 634.299804688 348 634.299804688 c 0
 516.799804688 634.299804688 653.599609375 493.5 653.599609375 319.900390625 c 0
 653.599609375 145.5 516.799804688 4.7001953125 348 4.7001953125 c 0
 179.200195312 4.7001953125 42.400390625 145.5 42.400390625 319.900390625 c 0
 42.400390625 320.77734375 153.86328125 330.658203125 153.870117188 331.533203125 c 1
 153.823242188 329.794921875 153.799804688 328.049804688 153.799804688 326.299804688 c 0
 153.799804688 222.299804688 235.400390625 138.299804688 337 138.299804688 c 0
 438.599609375 138.299804688 520.200195312 222.299804688 520.200195312 326.299804688 c 0
 520.200195312 428.556640625 440.084960938 511.962890625 339.780273438 513.478515625 c 1
EndSplineSet
EndChar

StartChar: uni099B
Encoding: 2459 2459 410
Width: 726
VWidth: 75
Flags: HW
LayerCount: 2
Fore
SplineSet
676 803 m 1
 676 671 l 1
 165 671 l 1
 165 571.400390625 l 1
 171.400390625 572.200195312 177.799804688 572.200195312 184.200195312 572.200195312 c 0
 253.5859375 572.200195312 314.731445312 538.356445312 352.107421875 486.198242188 c 1
 363.2421875 487.475585938 374.616210938 488.13671875 386.1796875 488.13671875 c 0
 521.220703125 488.13671875 630.66015625 398.0234375 630.66015625 286.920898438 c 0
 630.66015625 203.858398438 570.052734375 138.09375 483.390625 109.879882812 c 1
 659.459960938 111.560546875 l 1
 659.459960938 33.736328125 l 1
 337.540039062 30.6640625 l 1
 339.459960938 181.500976562 l 1
 354.118164062 177.48046875 369.825195312 175.3046875 386.1796875 175.3046875 c 0
 467.459960938 175.3046875 532.740234375 219.3359375 532.740234375 285.896484375 c 0
 532.740234375 351.78125 467.783203125 405.4375 386.783203125 405.703125 c 1
 389.288085938 392.80078125 390.599609375 379.459960938 390.599609375 365.799804688 c 0
 390.599609375 252.200195312 298.599609375 160.200195312 184.200195312 160.200195312 c 0
 177.799804688 160.200195312 171.400390625 160.200195312 165 161 c 2
 43.400390625 161 l 1
 43.400390625 671 l 1
 -50 671 l 1
 -50 803 l 1
 676 803 l 1
165 283.400390625 m 1
 171.400390625 281.799804688 177.799804688 281 184.200195312 281 c 0
 232.200195312 281 269.799804688 318.599609375 269.799804688 365.799804688 c 0
 269.799804688 413.799804688 232.200195312 451.400390625 184.200195312 451.400390625 c 0
 177.799804688 451.400390625 171.400390625 450.599609375 165 449 c 1
 165 283.400390625 l 1
EndSplineSet
EndChar

StartChar: uni09A0
Encoding: 2464 2464 411
Width: 726
VWidth: 75
Flags: HW
LayerCount: 2
Fore
SplineSet
324 536 m 1030
676 803 m 1
 676 671 l 1
 564.923828125 671 l 1
 675.252929688 576.844726562 727.63671875 421.422851562 686.516601562 267.9609375 c 0
 630.352539062 58.3544921875 419.626953125 -67.3896484375 215.81640625 -12.78125 c 0
 191.701171875 -6.3173828125 168.767578125 2.37890625 147.159179688 13.037109375 c 1
 186.892578125 161.319335938 l 1
 183.129882812 167.834960938 l 1
 185.1484375 168.418945312 187.159179688 169.067382812 189.159179688 169.77734375 c 2
 190.104492188 173.309570312 l 1
 191.118164062 172.627929688 192.137695312 171.956054688 193.1640625 171.290039062 c 0
 197.936523438 173.200195312 202.630859375 175.475585938 207.213867188 178.12109375 c 0
 259.17578125 208.119140625 228.616210938 603.452148438 198.615234375 655.413085938 c 0
 195.375976562 661.0234375 191.71875 666.224609375 187.706054688 671 c 1
 -50 671 l 1
 -50 803 l 1
 201.8359375 803 l 1
 186.87109375 817.96484375 l 2
 141.616210938 863.219726562 163.536132812 920.49609375 118.28125 965.750976562 c 0
 82.21875 1001.8125 -4.7548828125 1009.59082031 -4.7548828125 1009.59082031 c 1
 83.6328125 1097.97949219 l 1
 83.6328125 1097.97949219 168.486328125 1092.32226562 203.841796875 1056.96777344 c 0
 250.510742188 1010.29785156 231.418945312 951.608398438 278.087890625 904.939453125 c 0
 309.200195312 873.826171875 309.907226562 873.119140625 340.723632812 841.7109375 c 0
 367.475585938 815.282226562 410.520507812 805.987304688 444.153320312 803 c 2
 676 803 l 1
336 616 m 1
 375.278320312 537.065429688 419.508789062 216.275390625 378.690429688 143.971679688 c 1
 454.286132812 165.953125 517.08984375 226.806640625 539.24609375 309.491210938 c 0
 559.021484375 383.290039062 443.860351562 596.377929688 402 652 c 1
 336 616 l 1
EndSplineSet
EndChar

StartChar: uni09EA
Encoding: 2538 2538 412
Width: 616
VWidth: 0
Flags: HW
HStem: 366.983 92.0348<236.347 283.638>
VStem: 0 151<197.14 324.826 500.772 628.449> 369 151<195.844 324.826 500.772 629.753>
LayerCount: 2
Fore
SplineSet
259.037109375 3.201171875 m 0
 258.771484375 3.201171875 258.505859375 3.2001953125 258.240234375 3.2001953125 c 0
 257.197265625 3.2001953125 256.15625 3.2060546875 255.116210938 3.220703125 c 0
 250.90234375 3.2607421875 246.8046875 3.380859375 242.518554688 3.7294921875 c 0
 124.077148438 11.744140625 31.2001953125 109.6484375 31.2001953125 229.359375 c 0
 31.2001953125 279.814453125 89.974609375 369.916992188 112.056640625 399.995117188 c 1
 89.974609375 429.971679688 76.9599609375 466.998046875 76.9599609375 507.078125 c 0
 76.9599609375 603.520507812 151.259765625 681.87109375 246.010742188 688.286132812 c 0
 249.44140625 688.565429688 252.720703125 688.661132812 256.092773438 688.694335938 c 0
 256.924804688 688.706054688 257.7578125 688.709960938 258.591796875 688.709960938 c 0
 258.8046875 688.709960938 259.017578125 688.709960938 259.228515625 688.708984375 c 0
 259.947265625 688.709960938 260.672851562 688.709960938 261.408203125 688.709960938 c 0
 362.080078125 688.709960938 443.040039062 607.75 443.040039062 507.078125 c 0
 443.040039062 466.998046875 430.025390625 429.971679688 407.943359375 399.995117188 c 1
 430.025390625 369.916992188 488.799804688 279.814453125 488.799804688 229.359375 c 0
 488.799804688 104.400390625 387.599609375 3.2001953125 261.759765625 3.2001953125 c 0
 260.840820312 3.2001953125 259.934570312 3.201171875 259.037109375 3.201171875 c 0
259.967773438 582.393554688 m 0
 254.115234375 582.295898438 248.309570312 581.596679688 243.103515625 580.293945312 c 1
 243.103515625 580.877929688 l 1
 208.536132812 573.920898438 183.263671875 543.994140625 183.263671875 507.078125 c 0
 183.263671875 470.778320312 208.536132812 440.930664062 243.103515625 433.982421875 c 1
 243.103515625 434.56640625 l 1
 248.309570312 433.264648438 254.115234375 432.565429688 259.967773438 432.467773438 c 0
 265.793945312 432.569335938 271.461914062 433.323242188 276.896484375 434.659179688 c 1
 276.896484375 433.982421875 l 1
 311.463867188 440.930664062 336.736328125 470.778320312 336.736328125 507.078125 c 0
 336.736328125 543.994140625 311.463867188 573.920898438 276.896484375 580.877929688 c 1
 276.896484375 580.198242188 l 1
 271.461914062 581.538085938 265.793945312 582.291992188 259.967773438 582.393554688 c 0
259.959960938 323.504882812 m 0
 252.64453125 323.381835938 245.38671875 322.505859375 238.879882812 320.879882812 c 1
 238.879882812 321.609375 l 1
 195.669921875 312.912109375 164.080078125 275.504882812 164.080078125 229.359375 c 0
 164.080078125 183.984375 195.669921875 146.673828125 238.879882812 137.990234375 c 1
 238.879882812 138.720703125 l 1
 245.38671875 137.09375 252.64453125 136.21875 259.959960938 136.094726562 c 0
 267.243164062 136.223632812 274.327148438 137.166015625 281.120117188 138.8359375 c 1
 281.120117188 137.990234375 l 1
 324.330078125 146.673828125 355.919921875 183.984375 355.919921875 229.359375 c 0
 355.919921875 275.504882812 324.330078125 312.912109375 281.120117188 321.609375 c 1
 281.120117188 320.760742188 l 1
 274.327148438 322.434570312 267.243164062 323.375976562 259.959960938 323.504882812 c 0
EndSplineSet
EndChar

StartChar: uni09E6
Encoding: 2534 2534 413
Width: 864
VWidth: 0
Flags: HW
HStem: 25.35 141.3<306.32 458.56> 588.75 144.9<306.32 458.56>
VStem: 76.5 122<282.263 475.349> 565.5 122<279.999 477.603>
LayerCount: 2
Fore
SplineSet
565.5 378.150390625 m 0
 565.5 494.25 484.5 588.75 382.5 588.75 c 0
 280.5 588.75 198.5 494.25 198.5 378.150390625 c 0
 198.5 261.150390625 280.5 166.650390625 382.5 166.650390625 c 0
 484.5 166.650390625 565.5 261.150390625 565.5 378.150390625 c 0
687.5 379.950195312 m 0
 687.5 183.75 551.5 25.349609375 382.5 25.349609375 c 0
 213.5 25.349609375 76.5 183.75 76.5 379.950195312 c 0
 76.5 575.25 213.5 733.650390625 382.5 733.650390625 c 0
 551.5 733.650390625 687.5 575.25 687.5 379.950195312 c 0
EndSplineSet
EndChar

StartChar: uni25CC
Encoding: 9676 9676 414
Width: 864
VWidth: 0
Flags: HW
HStem: -14 157<287.027 476.973> 612 161<287.027 476.973>
VStem: 0 153<278.712 478.774> 611 153<278.712 478.774>
LayerCount: 2
Fore
SplineSet
20 244 m 0
 20 293 59 332 108 332 c 0
 157 332 196 293 196 244 c 0
 196 195 157 156 108 156 c 0
 59 156 20 195 20 244 c 0
193 90 m 0
 193 139 232 178 281 178 c 0
 330 178 369 139 369 90 c 0
 369 41 330 2 281 2 c 0
 232 2 193 41 193 90 c 0
559 225 m 0
 559 274 598 313 647 313 c 0
 696 313 735 274 735 225 c 0
 735 176 696 137 647 137 c 0
 598 137 559 176 559 225 c 0
414 88 m 0
 414 137 453 176 502 176 c 0
 551 176 590 137 590 88 c 0
 590 39 551 0 502 0 c 0
 453 0 414 39 414 88 c 0
587 434 m 0
 587 483 626 522 675 522 c 0
 724 522 763 483 763 434 c 0
 763 385 724 346 675 346 c 0
 626 346 587 385 587 434 c 0
-2 462 m 0
 -2 511 37 550 86 550 c 0
 135 550 174 511 174 462 c 0
 174 413 135 374 86 374 c 0
 37 374 -2 413 -2 462 c 0
115 634 m 0
 115 683 154 722 203 722 c 0
 252 722 291 683 291 634 c 0
 291 585 252 546 203 546 c 0
 154 546 115 585 115 634 c 0
502 608 m 0
 502 657 541 696 590 696 c 0
 639 696 678 657 678 608 c 0
 678 559 639 520 590 520 c 0
 541 520 502 559 502 608 c 0
309 692 m 0
 309 741 348 780 397 780 c 0
 446 780 485 741 485 692 c 0
 485 643 446 604 397 604 c 0
 348 604 309 643 309 692 c 0
EndSplineSet
EndChar

StartChar: Euro
Encoding: 8364 8364 415
Width: 555
VWidth: 0
Flags: HW
HStem: -14 157<287.027 453.909> 612 161<287.027 453.909>
VStem: 0 153<281.299 476.2>
LayerCount: 2
Fore
SplineSet
-35 358 m 2
 373 358 l 2
 381 358 388 351 388 343 c 2
 388 287 l 2
 388 279 381 272 373 272 c 2
 -35 272 l 2
 -43 272 -50 279 -50 287 c 2
 -50 343 l 2
 -50 351 -43 358 -35 358 c 2
-35 533 m 6
 373 533 l 6
 381 533 388 526 388 518 c 6
 388 462 l 6
 388 454 381 447 373 447 c 6
 -35 447 l 6
 -43 447 -50 454 -50 462 c 6
 -50 518 l 6
 -50 526 -43 533 -35 533 c 6
382 612 m 0
 255 612 153 507 153 378 c 0
 153 248 255 143 382 143 c 0
 407.5546875 143 432.096679688 147.250976562 455 155.102539062 c 1
 455 -6.830078125 l 1
 431.37109375 -11.5361328125 406.965820312 -14 382 -14 c 0
 171 -14 0 162 0 380 c 0
 0 597 171 773 382 773 c 0
 406.965820312 773 431.37109375 770.536132812 455 765.83203125 c 1
 455 599.90625 l 1
 432.096679688 607.749023438 407.5546875 612 382 612 c 0
EndSplineSet
EndChar

StartChar: uni20B9
Encoding: 8377 8377 416
Width: 826
VWidth: 75
Flags: HW
LayerCount: 2
Fore
SplineSet
726 803 m 1
 726 671 l 1
 387.1171875 671 l 1
 489.01953125 643.420898438 565.443359375 555.403320312 575.80078125 448 c 1
 711 448 l 2
 719 448 726 441 726 433 c 2
 726 385 l 2
 726 377 719 370 711 370 c 2
 571.603515625 370 l 1
 555.0234375 289.890625 501.556640625 223.643554688 429.596679688 189.649414062 c 1
 666.348632812 -37.0107421875 l 1
 573.010742188 -130.348632812 l 1
 197.651367188 229.010742188 l 1
 290.989257812 322.348632812 l 1
 294.788085938 318.711914062 l 1
 302.5703125 316.935546875 310.67578125 316 319 316 c 0
 359.588867188 316 394.228515625 337.508789062 412.393554688 370 c 1
 147 370 l 2
 139 370 132 377 132 385 c 2
 132 433 l 2
 132 441 139 448 147 448 c 2
 423.091796875 448 l 1
 411.978515625 494.739257812 370.227539062 529 319 529 c 0
 310.036132812 529 301.326171875 527.915039062 293 525.868164062 c 1
 293 671 l 1
 0 671 l 1
 0 803 l 1
 726 803 l 1
EndSplineSet
EndChar

StartChar: uni09F0
Encoding: 2544 2544 417
Width: 723
VWidth: 0
Flags: HW
HStem: 671 132<-50 474 620 673> 671 106<474 620>
VStem: 474 146<1 73.5 225.5 473.5 625.5 777> 474 57.5<73.5 225.5 473.5 473.5>
LayerCount: 2
Fore
SplineSet
673 803 m 1
 673 671 l 1
 620 671 l 1
 620 1 l 1
 476 1 l 1
 476 0 l 1
 474.334960938 1 l 1
 474 1 l 1
 474 1.201171875 l 1
 20.5 273.5 l 1
 20.5 425.5 l 1
 474 602.995117188 l 1
 474 671 l 1
 -50 671 l 1
 -50 803 l 1
 673 803 l 1
474 155.254882812 m 1
 474 238.194335938 l 1
 292.198242188 392.645507812 l 1
 164.5 349.5 l 1
 474 155.254882812 l 1
474 348.447265625 m 1
 474 454.072265625 l 1
 387.383789062 424.806640625 l 1
 474 348.447265625 l 1
EndSplineSet
EndChar

StartChar: uni09F1
Encoding: 2545 2545 418
Width: 723
VWidth: 0
Flags: HW
HStem: 671 132<-50 474 620 673> 671 106<474 620>
VStem: 474 146<1 73.5 225.5 473.5 625.5 777> 474 57.5<73.5 225.5 473.5 473.5>
LayerCount: 2
Fore
SplineSet
673 803 m 1
 673 671 l 1
 620 671 l 1
 620 1 l 1
 474 1 l 1
 330.336914062 99.3369140625 170.356445312 181.356445312 20.5 273.5 c 1
 20.5 425.5 l 1
 474 602.995117188 l 1
 474 671 l 1
 -50 671 l 1
 -50 803 l 1
 673 803 l 1
-6 196 m 1
 426 -44 l 1
 364 -137 l 1
 -50 90 l 1
 -6 196 l 1
474 159.11328125 m 1
 474 454.072265625 l 1
 164.5 349.5 l 1
 474 159.11328125 l 1
EndSplineSet
EndChar

StartChar: uni09BF
Encoding: 2495 2495 419
Width: 275
VWidth: 0
Flags: HW
LayerCount: 2
Fore
SplineSet
222 803 m 1
 222 671 l 1
 177 671 l 1
 177 -2 l 1
 25 -2 l 1
 25 671 l 1
 -50 671 l 1
 -50 803 l 1
 25 803 l 1
 26.9267578125 803 l 1
 26.3125 810.25390625 26 817.590820312 26 825 c 0
 26 968 141 1083 283 1083 c 0
 426 1083 541 968 541 825 c 0
 541 816.2265625 540.560546875 807.553710938 539.704101562 799 c 1
 386.864257812 799 l 1
 388.915039062 807.326171875 390 816.036132812 390 825 c 0
 390 885 343 932 283 932 c 0
 224 932 177 885 177 825 c 0
 177 817.4609375 177.767578125 810.102539062 179.228515625 803 c 1
 222 803 l 1
EndSplineSet
EndChar

StartChar: uni09C0
Encoding: 2496 2496 420
Width: 246
VWidth: 0
Flags: HW
LayerCount: 2
Fore
SplineSet
196 803 m 1
 196 671 l 1
 151 671 l 1
 151 -2 l 1
 -1 -2 l 1
 -1 671 l 1
 -51 671 l 1
 -51 803 l 1
 -1 803 l 1
 -0.4873046875 803 l 1
 1.1435546875 811.529296875 2 824.033203125 2 832 c 0
 2 892 -45 939 -105 939 c 0
 -164 939 -211 892 -211 832 c 0
 -211 823.036132812 -209.915039062 814.326171875 -207.868164062 806 c 1
 -360.704101562 806 l 1
 -361.561523438 814.553710938 -362 823.2265625 -362 832 c 0
 -362 975 -247 1090 -105 1090 c 0
 38 1090 153 975 153 832 c 0
 153 824.182617188 152.651367188 811.682617188 151.969726562 803 c 1
 196 803 l 1
EndSplineSet
EndChar

StartChar: uni09C1
Encoding: 2497 2497 421
Width: 0
VWidth: 0
Flags: HW
LayerCount: 2
Fore
SplineSet
-205.935546875 -117.4140625 m 0
 -212.5859375 -117.525390625 -219.185546875 -118.321289062 -225.099609375 -119.799804688 c 1
 -225.099609375 -119.137695312 l 1
 -264.380859375 -127.043945312 -293.099609375 -161.049804688 -293.099609375 -203 c 0
 -293.099609375 -244.250976562 -264.380859375 -278.168945312 -225.099609375 -286.064453125 c 1
 -225.099609375 -285.400390625 l 1
 -219.185546875 -286.87890625 -212.5859375 -287.673828125 -205.935546875 -287.786132812 c 0
 -199.314453125 -287.669921875 -192.875 -286.8125 -186.69921875 -285.294921875 c 1
 -186.69921875 -286.064453125 l 1
 -147.41796875 -278.168945312 -118.69921875 -244.250976562 -118.69921875 -203 c 0
 -118.69921875 -161.049804688 -147.41796875 -127.043945312 -186.69921875 -119.137695312 c 1
 -186.69921875 -119.908203125 l 1
 -192.875 -118.387695312 -199.314453125 -117.530273438 -205.935546875 -117.4140625 c 0
-206.775390625 -408.598632812 m 0
 -207.017578125 -408.598632812 -207.2578125 -408.599609375 -207.5 -408.599609375 c 0
 -208.447265625 -408.599609375 -209.39453125 -408.59375 -210.33984375 -408.581054688 c 0
 -214.169921875 -408.543945312 -217.896484375 -408.436523438 -221.79296875 -408.118164062 c 0
 -329.466796875 -400.833007812 -413.900390625 -311.828125 -413.900390625 -203 c 0
 -413.900390625 -93.4072265625 -329.46875 -4.37109375 -221.796875 2.91796875 c 0
 -217.8984375 3.236328125 -214.171875 3.3447265625 -210.33984375 3.380859375 c 0
 -209.39453125 3.3935546875 -208.447265625 3.400390625 -207.5 3.400390625 c 0
 -207.2578125 3.400390625 -207.017578125 3.3994140625 -206.775390625 3.3984375 c 0
 -205.958984375 3.400390625 -205.134765625 3.400390625 -204.30078125 3.400390625 c 0
 -117.879882812 3.400390625 -44.2421875 -49.1005859375 -13.3916015625 -124.098632812 c 1
 313.900390625 4 l 1
 313.900390625 -117.599609375 l 1
 20.30078125 -216.799804688 l 1
 313.900390625 -316 l 1
 313.900390625 -437.599609375 l 1
 -24.939453125 -304.981445312 l 1
 -60.4130859375 -366.899414062 -127.280273438 -408.599609375 -204.30078125 -408.599609375 c 0
 -205.134765625 -408.599609375 -205.958984375 -408.598632812 -206.775390625 -408.598632812 c 0
EndSplineSet
EndChar

StartChar: uni09C2
Encoding: 2498 2498 422
Width: 0
VWidth: 0
Flags: HW
HStem: 3 151<389.817 480.346> 367 151<389.817 480.346>
VStem: 196.346 151<196.066 324.529>
LayerCount: 2
Fore
SplineSet
-27.322265625 15.6162109375 m 1
 353.4609375 -177.920898438 l 1
 292.163085938 -283.748046875 l 1
 51.2607421875 -161.307617188 l 1
 11.8583984375 -295.822265625 -126.907226562 -374.293945312 -262.094726562 -338.071289062 c 0
 -400.22265625 -301.059570312 -481.540039062 -160.213867188 -444.528320312 -22.0869140625 c 0
 -442.2578125 -13.6123046875 -439.588867188 -5.3486328125 -436.547851562 2.69140625 c 1
 -288.915039062 -36.8662109375 l 1
 -293.051757812 -44.3779296875 -296.353515625 -52.509765625 -298.673828125 -61.1689453125 c 0
 -314.203125 -119.124023438 -280.96875 -176.6875 -223.013671875 -192.215820312 c 0
 -166.0234375 -207.486328125 -108.4609375 -174.252929688 -92.931640625 -116.296875 c 0
 -90.611328125 -107.638671875 -89.4052734375 -98.9443359375 -89.2275390625 -90.3720703125 c 1
 -87.2783203125 -90.89453125 l 1
 -88.62109375 -90.2119140625 l 1
 -27.322265625 15.6162109375 l 1
EndSplineSet
EndChar

StartChar: uni09C3
Encoding: 2499 2499 423
Width: 0
VWidth: 0
Flags: HW
LayerCount: 2
Fore
SplineSet
154.400390625 4 m 257
 154.400390625 -117.599609375 l 257
 -139.19921875 -216.799804688 l 257
 154.400390625 -316 l 257
 154.400390625 -437.599609375 l 257
 -254.400390625 -277.599609375 l 257
 -254.400390625 -156 l 257
 154.400390625 4 l 257
EndSplineSet
EndChar

StartChar: uni09C4
Encoding: 2500 2500 424
Width: 0
VWidth: 0
Flags: HW
LayerCount: 2
Fore
SplineSet
154.400390625 4 m 1
 154.400390625 -117.599609375 l 1
 107.932617188 -133.299804688 l 1
 154.400390625 -149 l 1
 154.400390625 -270.599609375 l 1
 -55.400390625 -188.486328125 l 1
 -139.19921875 -216.799804688 l 1
 154.400390625 -316 l 1
 154.400390625 -437.599609375 l 1
 -254.400390625 -277.599609375 l 1
 -254.400390625 -156 l 1
 -196.401367188 -133.299804688 l 1
 -254.400390625 -110.599609375 l 1
 -254.400390625 11 l 1
 154.400390625 171 l 1
 154.400390625 49.400390625 l 1
 -139.19921875 -49.7998046875 l 1
 -55.400390625 -78.11328125 l 1
 154.400390625 4 l 1
EndSplineSet
EndChar

StartChar: uni09C7
Encoding: 2503 2503 425
Width: 624
VWidth: 75
Flags: HW
LayerCount: 2
Fore
SplineSet
571 803 m 5
 571 671 l 5
 404.5 671 l 5
 338.799804688 661 l 4
 224.5 661 132.700195312 472.5 132.700195312 356.400390625 c 4
 132.700195312 239.400390625 224.5 144.900390625 338.799804688 144.900390625 c 4
 361.798828125 144.900390625 383.88671875 148.725585938 404.5 155.791992188 c 5
 404.5 10.052734375 l 5
 383.234375 5.8173828125 361.26953125 3.599609375 338.799804688 3.599609375 c 4
 148.900390625 3.599609375 -5 162 -5 358.200195312 c 4
 -5 461.798828125 38.3056640625 581.463867188 107.317382812 671 c 5
 -50 671 l 5
 -50 803 l 5
 571 803 l 5
EndSplineSet
EndChar

StartChar: uni09C8
Encoding: 2504 2504 426
Width: 624
VWidth: 75
Flags: HW
LayerCount: 2
Fore
SplineSet
571 803 m 1
 571 671 l 1
 404.5 671 l 1
 338.799804688 661 l 1
 224.5 661 132.700195312 472.5 132.700195312 356.400390625 c 0
 132.700195312 239.400390625 224.5 144.900390625 338.799804688 144.900390625 c 0
 361.798828125 144.900390625 383.88671875 148.725585938 404.5 155.791992188 c 1
 404.5 10.052734375 l 1
 383.234375 5.8173828125 361.26953125 3.599609375 338.799804688 3.599609375 c 0
 148.900390625 3.599609375 -5 162 -5 358.200195312 c 0
 -5 461.798828125 38.3056640625 581.463867188 107.317382812 671 c 1
 -50 671 l 1
 -50 803 l 1
 283.489257812 803 l 1
 277.990234375 828.393554688 267.922851562 854.420898438 249.7890625 872.776367188 c 0
 218.380859375 903.592773438 217.673828125 904.299804688 186.560546875 935.412109375 c 0
 139.891601562 982.081054688 81.2021484375 962.989257812 34.5322265625 1009.65820312 c 0
 -0.822265625 1045.01367188 -6.4794921875 1129.8671875 -6.4794921875 1129.8671875 c 1
 81.9091796875 1218.25488281 l 1
 81.9091796875 1218.25488281 89.6875 1131.28125 125.749023438 1095.21875 c 0
 171.00390625 1049.96386719 228.280273438 1071.88378906 273.53515625 1026.62890625 c 0
 307.475585938 992.688476562 310.3046875 989.859375 344.245117188 955.918945312 c 0
 394.2734375 905.890625 374.794921875 808.1796875 377.479492188 808.1328125 c 1
 372.346679688 803 l 1
 571 803 l 1
EndSplineSet
EndChar

StartChar: uni09D7
Encoding: 2519 2519 427
Width: 254
VWidth: 0
Flags: HW
LayerCount: 2
Fore
SplineSet
205 803 m 1
 205 671 l 1
 160 671 l 1
 160 -2 l 1
 8 -2 l 1
 8 671 l 1
 -50 671 l 1
 -50 803 l 1
 8 803 l 1
 18.1728515625 803 l 1
 12.3720703125 817.458007812 4.4833984375 830.951171875 -6.2109375 841.776367188 c 0
 -37.619140625 872.592773438 -38.326171875 873.299804688 -69.439453125 904.412109375 c 0
 -116.108398438 951.081054688 -174.797851562 931.989257812 -221.467773438 978.658203125 c 0
 -256.822265625 1014.01367188 -262.479492188 1098.8671875 -262.479492188 1098.8671875 c 1
 -174.090820312 1187.25488281 l 1
 -174.090820312 1187.25488281 -166.3125 1100.28125 -130.250976562 1064.21875 c 0
 -84.99609375 1018.96386719 -27.7197265625 1040.88378906 17.53515625 995.62890625 c 0
 51.4755859375 961.688476562 54.3046875 958.859375 88.2451171875 924.918945312 c 0
 122.061523438 891.102539062 124.120117188 835.5 122.732421875 803 c 1
 160 803 l 1
 205 803 l 1
EndSplineSet
EndChar

StartChar: uni09E1
Encoding: 2529 2529 433
Width: 779
VWidth: 0
Flags: HW
HStem: 616 157<1.091 167.973> -14 161<1.091 167.973>
VStem: 302 153<282.8 477.701>
LayerCount: 2
Fore
SplineSet
258.26171875 -146.48828125 m 5
 257.918945312 -143.067382812 257.744140625 -139.59765625 257.744140625 -136.088867188 c 4
 257.744140625 -78.888671875 303.744140625 -32.888671875 360.543945312 -32.888671875 c 4
 398.513671875 -32.888671875 431.547851562 -53.1572265625 449.467773438 -83.517578125 c 5
 456.973632812 -52.9345703125 448.454101562 -19.0068359375 424.2421875 5.205078125 c 4
 387.47265625 41.974609375 328.923828125 42.8232421875 293.002929688 6.90234375 c 4
 285.775390625 -0.326171875 280.036132812 -8.4697265625 275.778320312 -17.16796875 c 5
 229.977539062 28.6328125 l 5
 235.329101562 36.6474609375 241.53515625 44.2470703125 248.596679688 51.30859375 c 4
 308.276367188 110.98828125 406.422851562 109.57421875 468.083007812 47.9140625 c 4
 529.458984375 -13.462890625 530.874023438 -111.609375 471.194335938 -171.2890625 c 4
 464.1328125 -178.349609375 456.533203125 -184.555664062 448.51953125 -189.908203125 c 5
 405.099609375 -146.48828125 l 5
 402.08984375 -146.48828125 l 5
 402.291015625 -145.671875 402.46875 -144.846679688 402.623046875 -144.01171875 c 6
 401.587890625 -142.977539062 l 5
 402.02734375 -142.762695312 402.463867188 -142.543945312 402.900390625 -142.322265625 c 4
 403.192382812 -140.286132812 403.34375 -138.205078125 403.34375 -136.088867188 c 4
 403.34375 -112.088867188 384.543945312 -93.2880859375 360.543945312 -93.2890625 c 4
 336.943359375 -93.2880859375 318.143554688 -112.088867188 318.14453125 -136.088867188 c 4
 318.143554688 -139.673828125 318.578125 -143.158203125 319.396484375 -146.48828125 c 5
 258.26171875 -146.48828125 l 5
48.1552734375 103.778320312 m 1
 47.2978515625 112.33203125 46.859375 121.004882812 46.859375 129.778320312 c 0
 46.859375 272.778320312 161.859375 387.779296875 303.859375 387.779296875 c 0
 398.783203125 387.779296875 481.369140625 337.10546875 526.170898438 261.20703125 c 1
 544.932617188 337.665039062 523.635742188 422.482421875 463.10546875 483.012695312 c 0
 371.181640625 574.936523438 224.810546875 577.05859375 135.0078125 487.255859375 c 0
 116.9375 469.185546875 102.58984375 448.826171875 91.9462890625 427.079101562 c 1
 -22.556640625 541.583007812 l 1
 -9.1767578125 561.619140625 6.337890625 580.618164062 23.9921875 598.271484375 c 0
 173.19140625 747.470703125 418.557617188 743.935546875 572.70703125 589.786132812 c 0
 726.1484375 436.34375 729.684570312 190.977539062 580.485351562 41.7783203125 c 0
 562.831054688 24.125 543.83203125 8.6103515625 523.797851562 -4.771484375 c 1
 415.248046875 103.778320312 l 1
 407.724609375 103.778320312 l 1
 408.227539062 105.819335938 408.671875 107.883789062 409.056640625 109.969726562 c 2
 406.470703125 112.555664062 l 1
 407.567382812 113.092773438 408.66015625 113.639648438 409.75 114.1953125 c 0
 410.481445312 119.283203125 410.860351562 124.486328125 410.859375 129.778320312 c 0
 410.860351562 189.778320312 363.859375 236.779296875 303.859375 236.778320312 c 0
 244.859375 236.779296875 197.859375 189.778320312 197.860351562 129.778320312 c 0
 197.859375 120.814453125 198.9453125 112.104492188 200.991210938 103.778320312 c 1
 48.1552734375 103.778320312 l 1
EndSplineSet
EndChar

StartChar: uni09E0
Encoding: 2528 2528 434
Width: 1344
Flags: HW
LayerCount: 2
Fore
SplineSet
872 777 m 1
 1018 777 l 1
 1018 285.5 l 1
 1092.5 211 l 1
 1094.5 795 l 1
 1294.5 795 l 1
 1294.5 663 l 1
 1244.5 663 l 1
 1244.5 0 l 1
 1242 -0 l 1
 1242 -89 l 1
 948.400390625 -188.200195312 l 1
 1242 -287.400390625 l 1
 1242 -409 l 1
 833.19921875 -249 l 1
 833.19921875 -127.400390625 l 1
 1158.70800781 -0 l 1
 1092.51855469 -0 l 1
 1090.5 -2 l 1
 1018 70.5 l 1
 1018 1 l 1
 871 1 l 1
 871 2.6953125 l 1
 418.5 179.5 l 1
 418.5 331.5 l 1
 664.940429688 561.51171875 l 1
 675.203125 629.375976562 l 1
 648.943359375 553.631835938 577.708007812 500 494 500 c 0
 432.708984375 500 378.502929688 527.698242188 343.081054688 571.395507812 c 1
 307.87109375 527.698242188 254.15625 500 194 500 c 0
 86 500 0 586 0 694 c 0
 0 700 0 707 0 713 c 1
 116 713 l 1
 114 707 113 700 113 694 c 0
 113 649 149 613 194 613 c 0
 239 613 273 649 273 694 c 0
 273 700 272 707 270 713 c 1
 300 713 l 1
 386 713 l 1
 416 713 l 1
 414 707 413 700 413 694 c 0
 413 649 449 613 494 613 c 0
 539 613 573 649 573 694 c 0
 573 700 572 770 570 776 c 1
 872 777 l 1
871 159.684570312 m 1
 871 709.262695312 l 1
 704 444 l 1
 703.189453125 445.12109375 l 1
 562.5 273.5 l 1
 871 159.684570312 l 1
EndSplineSet
EndChar

StartChar: uni09E2
Encoding: 2530 2530 435
Width: 0
VWidth: 0
Flags: HW
LayerCount: 2
Fore
SplineSet
-164.251953125 -146.48828125 m 5
 -164.594726562 -143.067382812 -164.76953125 -139.59765625 -164.76953125 -136.088867188 c 4
 -164.76953125 -78.888671875 -118.76953125 -32.888671875 -61.9697265625 -32.888671875 c 4
 -24 -32.888671875 9.0341796875 -53.1572265625 26.9541015625 -83.517578125 c 5
 34.4599609375 -52.9345703125 25.9404296875 -19.0068359375 1.728515625 5.205078125 c 4
 -35.041015625 41.974609375 -93.58984375 42.8232421875 -129.510742188 6.90234375 c 4
 -136.73828125 -0.326171875 -142.477539062 -8.4697265625 -146.735351562 -17.16796875 c 5
 -192.536132812 28.6328125 l 5
 -187.184570312 36.6474609375 -180.978515625 44.2470703125 -173.916992188 51.30859375 c 4
 -114.237304688 110.98828125 -16.0908203125 109.57421875 45.5693359375 47.9140625 c 4
 106.9453125 -13.462890625 108.360351562 -111.609375 48.6806640625 -171.2890625 c 4
 41.619140625 -178.349609375 34.01953125 -184.555664062 26.005859375 -189.908203125 c 5
 -17.4140625 -146.48828125 l 5
 -20.423828125 -146.48828125 l 5
 -20.22265625 -145.671875 -20.044921875 -144.846679688 -19.890625 -144.01171875 c 6
 -20.92578125 -142.977539062 l 5
 -20.486328125 -142.762695312 -20.0498046875 -142.543945312 -19.61328125 -142.322265625 c 4
 -19.3212890625 -140.286132812 -19.169921875 -138.205078125 -19.169921875 -136.088867188 c 4
 -19.169921875 -112.088867188 -37.9697265625 -93.2880859375 -61.9697265625 -93.2890625 c 4
 -85.5703125 -93.2880859375 -104.370117188 -112.088867188 -104.369140625 -136.088867188 c 4
 -104.370117188 -139.673828125 -103.935546875 -143.158203125 -103.1171875 -146.48828125 c 5
 -164.251953125 -146.48828125 l 5
EndSplineSet
EndChar

StartChar: uni09E3
Encoding: 2531 2531 436
Width: 0
VWidth: 0
Flags: HW
LayerCount: 2
Fore
SplineSet
-8.2578125 -294.580078125 m 5
 -8.6005859375 -291.159179688 -8.775390625 -287.689453125 -8.775390625 -284.180664062 c 4
 -8.775390625 -226.98046875 37.224609375 -180.98046875 94.0244140625 -180.98046875 c 4
 131.994140625 -180.98046875 165.028320312 -201.249023438 182.948242188 -231.609375 c 5
 190.454101562 -201.026367188 181.934570312 -167.098632812 157.72265625 -142.88671875 c 4
 120.953125 -106.1171875 62.404296875 -105.268554688 26.4833984375 -141.189453125 c 4
 19.255859375 -148.41796875 13.5166015625 -156.561523438 9.2587890625 -165.259765625 c 5
 -36.5419921875 -119.458984375 l 5
 -31.1904296875 -111.444335938 -24.984375 -103.844726562 -17.9228515625 -96.783203125 c 4
 41.7568359375 -37.103515625 139.903320312 -38.517578125 201.563476562 -100.177734375 c 4
 262.939453125 -161.5546875 264.354492188 -259.701171875 204.674804688 -319.380859375 c 4
 197.61328125 -326.44140625 190.013671875 -332.647460938 182 -338 c 5
 138.580078125 -294.580078125 l 5
 135.5703125 -294.580078125 l 5
 135.771484375 -293.763671875 135.94921875 -292.938476562 136.103515625 -292.103515625 c 6
 135.068359375 -291.069335938 l 5
 135.5078125 -290.854492188 135.944335938 -290.635742188 136.380859375 -290.4140625 c 4
 136.672851562 -288.377929688 136.82421875 -286.296875 136.82421875 -284.180664062 c 4
 136.82421875 -260.180664062 118.024414062 -241.379882812 94.0244140625 -241.380859375 c 4
 70.423828125 -241.379882812 51.6240234375 -260.180664062 51.625 -284.180664062 c 4
 51.6240234375 -287.765625 52.05859375 -291.25 52.876953125 -294.580078125 c 5
 -8.2578125 -294.580078125 l 5
-193.2578125 -158.580078125 m 1
 -193.600585938 -155.159179688 -193.775390625 -151.689453125 -193.775390625 -148.180664062 c 0
 -193.775390625 -90.98046875 -147.775390625 -44.98046875 -90.9755859375 -44.98046875 c 0
 -53.005859375 -44.98046875 -19.9716796875 -65.2490234375 -2.0517578125 -95.609375 c 1
 5.4541015625 -65.0263671875 -3.0654296875 -31.0986328125 -27.27734375 -6.88671875 c 0
 -64.046875 29.8828125 -122.595703125 30.7314453125 -158.516601562 -5.189453125 c 0
 -165.744140625 -12.41796875 -171.483398438 -20.5615234375 -175.741210938 -29.259765625 c 1
 -221.541992188 16.541015625 l 1
 -216.190429688 24.5556640625 -209.984375 32.1552734375 -202.922851562 39.216796875 c 0
 -143.243164062 98.896484375 -45.0966796875 97.482421875 16.5634765625 35.822265625 c 0
 77.939453125 -25.5546875 79.3544921875 -123.701171875 19.6748046875 -183.380859375 c 0
 12.61328125 -190.44140625 5.013671875 -196.647460938 -3 -202 c 1
 -46.419921875 -158.580078125 l 1
 -49.4296875 -158.580078125 l 1
 -49.228515625 -157.763671875 -49.05078125 -156.938476562 -48.896484375 -156.103515625 c 2
 -49.931640625 -155.069335938 l 1
 -49.4921875 -154.854492188 -49.0556640625 -154.635742188 -48.619140625 -154.4140625 c 0
 -48.3271484375 -152.377929688 -48.17578125 -150.296875 -48.17578125 -148.180664062 c 0
 -48.17578125 -124.180664062 -66.9755859375 -105.379882812 -90.9755859375 -105.380859375 c 0
 -114.576171875 -105.379882812 -133.375976562 -124.180664062 -133.375 -148.180664062 c 0
 -133.375976562 -151.765625 -132.94140625 -155.25 -132.123046875 -158.580078125 c 1
 -193.2578125 -158.580078125 l 1
EndSplineSet
EndChar

StartChar: uni09F2
Encoding: 2546 2546 437
Width: 445
VWidth: 0
Flags: HW
LayerCount: 2
Fore
SplineSet
108 427 m 5
 341 69 l 5
 235 8 l 5
 2 366 l 5
 108 427 l 5
EndSplineSet
EndChar

StartChar: uni09F3
Encoding: 2547 2547 438
Width: 806
VWidth: 0
Flags: HW
HStem: 671 132<-50 0 167 589> 671 90<0 167>
VStem: 3 164<172.77 761> 402 164<172.95 373>
LayerCount: 2
Fore
SplineSet
166 772 m 25
 166 772 197 869 180 928 c 24
 172 956 137 941 112 956 c 24
 88 970 56 1002 56 1002 c 25
 70 1094 l 25
 70 1094 155 1095 202 1074 c 24
 265 1046 320 1034 344 970 c 24
 374 890 322 752 322 752 c 25
 166 772 l 25
724 184 m 1
 655.931640625 -55.4130859375 230.236328125 -59.4453125 161 184 c 1
 158.467773438 671 l 1
 -18 671 l 5
 -18 803 l 5
 589 803 l 1
 589 671 l 1
 325 671 l 1
 325 185 l 1
 363.237304688 141.02734375 522.430664062 139.916992188 560 185 c 1
 560 373 l 1
 727 373 l 1
 724 184 l 1
EndSplineSet
EndChar

StartChar: uni09F4
Encoding: 2548 2548 439
Width: 445
VWidth: 0
Flags: HW
LayerCount: 2
Fore
SplineSet
240 467 m 1
 346 406 l 1
 113 48 l 1
 7 109 l 1
 240 467 l 1
EndSplineSet
EndChar

StartChar: uni09F5
Encoding: 2549 2549 440
Width: 1011
VWidth: 0
Flags: HW
HStem: 616 157<1.091 167.973> -14 161<1.091 167.973>
VStem: 302 153<282.8 477.701>
LayerCount: 2
Fore
SplineSet
86.0341796875 637.158203125 m 1
 94.587890625 638.015625 103.260742188 638.454101562 112.034179688 638.454101562 c 0
 255.034179688 638.454101562 370.03515625 523.454101562 370.03515625 381.454101562 c 0
 370.03515625 286.530273438 319.361328125 203.944335938 243.462890625 159.142578125 c 1
 319.920898438 140.380859375 404.73828125 161.677734375 465.268554688 222.208007812 c 0
 768 510 l 1
 946 434 l 1
 632.203125 120.736328125 l 0
 478.760742188 -32.705078125 173.229492188 -44.375 24.0341796875 104.828125 c 0
 6.380859375 122.482421875 -9.1337890625 141.481445312 -22.515625 161.515625 c 1
 86.0341796875 270.065429688 l 1
 86.0341796875 277.588867188 l 1
 88.0751953125 277.0859375 90.1396484375 276.641601562 92.2255859375 276.256835938 c 2
 94.8115234375 278.842773438 l 1
 95.3486328125 277.74609375 95.8955078125 276.653320312 96.451171875 275.563476562 c 0
 101.5390625 274.83203125 106.7421875 274.454101562 112.034179688 274.454101562 c 0
 172.034179688 274.453125 219.03515625 321.454101562 219.034179688 381.454101562 c 0
 219.03515625 440.454101562 172.034179688 487.454101562 112.034179688 487.453125 c 0
 103.0703125 487.454101562 94.3603515625 486.368164062 86.0341796875 484.322265625 c 1
 86.0341796875 637.158203125 l 1
EndSplineSet
EndChar

StartChar: uni09FA
Encoding: 2554 2554 442
Width: 400
Flags: HW
LayerCount: 2
Fore
SplineSet
89 511 m 5
 89 625 l 5
 211 625 l 5
 211 511 l 5
 89 511 l 5
343 472 m 5
 343 466 343 459 343 453 c 4
 343 345 257 259 151 259 c 4
 43 259 -43 345 -43 453 c 4
 -43 459 -43 466 -43 472 c 5
 73 472 l 5
 71 466 70 459 70 453 c 4
 70 408 106 372 151 372 c 4
 196 372 230 408 230 453 c 4
 230 459 229 466 227 472 c 5
 343 472 l 5
EndSplineSet
EndChar

StartChar: uni09FC
Encoding: 2556 2556 443
Width: 400
Flags: HW
LayerCount: 2
Fore
SplineSet
176 216 m 5
 341 69 l 1
 235 8 l 1
 70 155 l 5
 176 216 l 5
89 511 m 1
 89 625 l 1
 211 625 l 1
 211 511 l 1
 89 511 l 1
343 472 m 1
 343 466 343 459 343 453 c 0
 343 345 257 259 151 259 c 0
 43 259 -43 345 -43 453 c 0
 -43 459 -43 466 -43 472 c 1
 73 472 l 1
 71 466 70 459 70 453 c 0
 70 408 106 372 151 372 c 0
 196 372 230 408 230 453 c 0
 230 459 229 466 227 472 c 1
 343 472 l 1
EndSplineSet
EndChar

StartChar: uni09F7
Encoding: 2551 2551 444
Width: 779
VWidth: 0
Flags: HW
HStem: 616 157<1.091 167.973> -14 161<1.091 167.973>
VStem: 302 153<282.8 477.701>
LayerCount: 2
Fore
SplineSet
324 612 m 6
 456 612 l 6
 464 612 471 605 471 597 c 6
 471 5 l 6
 471 -3 464 -10 456 -10 c 6
 324 -10 l 6
 316 -10 309 -3 309 5 c 6
 309 597 l 6
 309 605 316 612 324 612 c 6
EndSplineSet
EndChar

StartChar: .notdef
Encoding: 65537 -1 445
Width: 252
VWidth: 0
Flags: HW
HStem: -2 21G<0 152> 492 20G<0 152> 630 142<0 152>
VStem: 0 152<-2 512 630 772>
LayerCount: 2
Fore
SplineSet
152 463 m 5
 152 -30 l 1
 0 -30 l 1
 0 463 l 5
 152 463 l 5
EndSplineSet
EndChar

